<svg width="549.6" height="316.8" viewBox="50 174 549.6 316.8" xmlns="http://www.w3.org/2000/svg" xmlns:xlink="http://www.w3.org/1999/xlink" id="Layer_1" overflow="hidden"><defs id="defs947"></defs><g id="g908" fill="#797472" transform="translate(-255.2 130)"><path d="M803.3 267 801.8 243.2 793.3 267 788 267 779.5 243.2 778 267 772.6 267 774.9 234.7 782.6 234.7 791.1 259.3 799.6 234.7 807.3 234.7 809.6 267Z" id="path902"/><path d="M815.6 267 815.6 234.7 821.7 234.7 821.7 267Z" id="path904"/><path d="M842.5 240.1 842.5 267 836.3 267 836.3 240.1 827.1 240.1 827.1 234.7 852.5 234.7 853.3 240.1C853.3 240.1 842.5 240.1 842.5 240.1Z" id="path906"/></g><path d="M103.8 490 95.3 468.5 66.9 468.5 59.2 489.3 50 489.3 76.9 420.1 86.1 420.1 113 487.7ZM81.5 431.6 70 460.8 92.3 460.8Z" id="path910" fill="#005395"/><path d="M122.3 489.3 122.3 420.1 160 420.1 160 428.6 132.3 428.6 132.3 448.6 153.8 448.6 155.3 457.1 132.2 457.1 132.2 480 160.6 480 160.6 488.5 122.2 488.5 122.2 489.3Z" id="path912" fill="#005395"/><path d="M221.4 488.5 212.2 490.8 190.7 460.8 183.8 460.8 183.8 490 174.6 490 174.6 420.8 193 420.8C199.9 420.8 205.3 422.3 209.9 426.2 213.7 429.3 216 434.7 216 440.8 216 446.2 214.5 450 212.2 453.1 209.1 456.2 206.1 458.5 201.4 460ZM206.8 440.8C206.8 437 205.3 433.9 203 432.3 200.7 430 196.9 429.2 192.2 429.2L183 429.2 183 453 190.7 453C195.3 453 199.2 452.2 201.5 449.9 205.3 447.8 206.8 444.7 206.8 440.8Z" id="path914" fill="#005395"/><path d="M291.4 454.7C291.4 460.1 290.6 464.7 289.1 469.3 287.6 473.9 285.3 477.8 283 480.8 279.9 483.9 276.8 486.2 273 488.5 269.2 490 264.5 490.8 259.9 490.8 255.3 490.8 250.7 490 246.8 488.5 243 487 239.9 484.7 236.8 481.6 233.7 478.5 232.2 474.7 230.7 470.1 229.2 465.5 228.4 460.9 228.4 455.5 228.4 450.1 229.2 445.5 230.7 440.9 232.2 436.3 234.5 432.4 236.8 429.4 239.9 426.3 242.9 424 246.8 422.5 250.6 421 255.3 420.2 259.9 420.2 264.5 420.2 269.1 421 273 422.5 276.8 424 279.9 426.3 283 429.4 286.1 432.5 287.6 436.3 289.1 440.9 290.6 444.7 291.4 450.1 291.4 454.7ZM282.2 455.4C282.2 451.6 281.4 447.7 280.7 443.9 279.9 440.8 278.4 437.8 276.1 435.4 274.6 433.1 272.3 431.6 269.2 430 266.1 428.5 263.1 428.5 260 428.5 256.9 428.5 253.9 429.3 250.8 430 247.7 431.5 245.4 433.1 243.9 435.4 242.4 437.7 240.8 440.8 239.3 443.9 238.5 447 237.8 450.8 237.8 455.4 237.8 459.2 238.6 463.1 239.3 466.9 240.1 470 241.6 473 243.9 475.4 245.4 477.7 247.7 479.2 250.8 480.8 253.9 482.3 256.9 482.3 260 482.3 263.1 482.3 266.1 481.5 269.2 480.8 272.3 479.3 274.6 477.7 276.1 475.4 277.6 473.1 279.2 470 280.7 466.9 281.4 463.1 282.2 459.3 282.2 455.4Z" id="path916" fill="#005395"/><path d="M350.6 490 342.1 468.5 313.7 468.5 306 489.3 296.8 489.3 323.7 420.1 332.9 420.1 359.8 487.7ZM328.3 431.6 317.5 460.8 339.8 460.8Z" id="path918" fill="#797472"/><path d="M409 470.8C409 473.9 408.2 476.2 407.5 478.5 406.7 480.8 405.2 483.1 402.9 484.6 401.4 486.1 399.1 487.7 396 488.4 392.9 489.2 390.6 489.9 386.8 489.9 383 489.9 379.1 489.1 376 488.4 372.9 487.6 369.9 486.9 367.5 485.3L369 476.1C371.3 477.6 374.4 479.2 377.5 479.9 380.6 481.4 383.6 481.4 387.5 481.4 391.3 481.4 394.4 480.6 396.7 478.3 399 476.8 400.5 473.7 400.5 470.6 400.5 469.1 400.5 467.5 399.7 466.8 398.9 465.3 398.9 464.5 397.4 463.7 396.6 462.9 395.1 461.4 393.6 460.6 392.1 459.8 389.8 458.3 387.5 457.5 384.4 456 381.3 454.4 379 452.9 376.7 451.4 375.2 449.8 373.6 448.3 372.1 446.8 371.3 445.2 370.5 442.9 369.7 441.4 369.7 439.1 369.7 436.8 369.7 433.7 370.5 431.4 371.2 429.1 372 426.8 373.5 425.3 375.8 423.7 377.3 422.2 379.6 420.6 382.7 419.9 385 419.1 388.1 418.4 391.2 418.4 394.3 418.4 397.4 418.4 400.4 419.2 402.7 420 405 420.7 407.3 422.3L405.8 431.5C403.5 430 402 429.2 398.9 427.7 396.6 426.9 393.5 426.2 391.2 426.2 387.4 426.2 384.3 427 382.7 429.3 381.2 430.8 379.6 433.1 379.6 436.2 379.6 437.7 379.6 438.5 380.4 440 380.4 440.8 381.2 442.3 382.7 443.1 383.5 443.9 385 444.6 386.5 446.2 388 447 390.3 448.5 392.6 449.3 395.7 450.8 398.7 452.4 401.1 453.9 403.4 455.4 404.9 457 406.5 458.5 408 460 408.8 461.6 409.6 463.9 409 466.2 409 468.5 409 470.8Z" id="path920" fill="#797472"/><path d="M447.4 429.3 447.4 490 438.2 490 438.2 429.3 415.9 429.3 415.9 420.8 468.2 420.8 469.7 429.3Z" id="path922" fill="#797472"/><path d="M529.7 488.5 520.5 490.8 499.7 460.8 492.8 460.8 492.8 490 482.8 490 482.8 420.8 501.2 420.8C508.1 420.8 513.5 422.3 518.1 426.2 521.9 429.3 524.2 434.7 524.2 440.8 524.2 446.2 522.7 450 520.4 453.1 517.3 456.2 514.2 458.5 509.6 460ZM515.1 440.8C515.1 437 513.6 433.9 511.3 432.3 509 430 505.1 429.2 500.5 429.2L491.3 429.2 491.3 453 499 453C503.6 453 507.5 452.2 509.8 449.9 513.5 447.8 515.1 444.7 515.1 440.8Z" id="path924" fill="#797472"/><path d="M599.6 454.7C599.6 460.1 598.8 464.7 597.3 469.3 595.8 473.9 593.5 477.8 591.1 480.8 588 483.9 585 486.2 581.1 488.5 577.3 490 572.6 490.8 568 490.8 563.4 490.8 558.8 490 554.9 488.5 551.1 487 548 484.7 544.9 481.6 541.8 478.5 540.3 474.7 538.8 470.1 537.3 465.5 536.5 460.9 536.5 455.5 536.5 450.1 537.3 445.5 538.8 440.9 540.3 436.3 542.6 432.4 544.9 429.4 548 426.3 551.1 424 554.9 422.5 558.7 421 563.4 420.2 568 420.2 572.6 420.2 577.2 421 581.1 422.5 584.9 424 588 426.3 591.1 429.4 594.2 432.5 595.7 436.3 597.3 440.9 598.9 444.7 599.6 450.1 599.6 454.7ZM589.7 455.4C589.7 451.6 588.9 447.7 588.2 443.9 587.4 440.8 585.9 437.8 583.6 435.4 582.1 433.1 579.8 431.6 576.7 430 573.6 428.5 570.6 428.5 567.5 428.5 564.4 428.5 561.4 429.3 558.3 430 555.2 431.5 552.9 433.1 551.4 435.4 549.9 437.7 548.3 440.8 546.8 443.9 546 447 545.3 450.8 545.3 455.4 545.3 459.2 546.1 463.1 546.8 466.9 547.6 470 549.1 473 551.4 475.4 552.9 477.7 555.2 479.2 558.3 480.8 561.4 482.3 564.4 482.3 567.5 482.3 570.6 482.3 573.6 481.5 576.7 480.8 579.8 479.3 582.1 477.7 583.6 475.4 585.1 473.1 586.7 470 588.2 466.9 588.9 463.1 589.7 459.3 589.7 455.4Z" id="path926" fill="#797472"/><g id="g940" fill="#005395" transform="translate(-8.4 -7.7)"><g id="g930"><path d="M169.9 181.7C108.4 181.7 58.4 231.7 58.4 293.2 58.4 331.6 77.6 365.5 107.6 385.4 109.1 383.1 110.7 380.8 110.7 380.8 123 359.3 133.8 340.1 135.3 322.4 136.8 300.9 125.3 290.9 113 276.3 111.5 274.8 89.9 256.3 89.9 256.3 110.7 254.8 190.6 283.2 189.1 300.9 188.3 312.4 150.7 357 118.4 391.6 133.8 400.1 151.5 404.7 169.9 404.7 231.4 404.7 281.4 354.7 281.4 293.2 281.4 231.7 231.4 181.7 169.9 181.7ZM217.6 321.6C217.6 321.6 224.5 303.9 224.5 303.2 227.6 291.7 231.4 280.9 228.3 272.5 226 265.6 219.8 263.3 212.2 260.2 211.4 260.2 191.4 254.8 191.4 254.1 202.2 251 250.6 250.3 253.7 257.9 256.8 264.7 226.8 313.1 217.6 321.6Z" id="path928"/></g><g id="g938"><g id="g936"><g id="g934"><path d="M306.7 221.7C310.5 220.2 314.4 217.9 318.2 215.6 319.7 214.8 322 213.3 323.6 211.8 324.4 211 328.2 208 328.2 208.7 328.2 209.5 326.7 210.2 325.9 211 325.1 211.8 324.4 212.5 323.6 213.3 322.1 214.8 320.5 216.4 319 217.9 315.9 221 313.6 224 310.5 227.9 307.4 231.7 305.1 235.6 302.8 239.4 301.3 241.7 300.5 243.2 299 245.5 298.2 246.3 298.2 247.8 297.5 248.6 297.5 248.6 296 251.7 296 250.9 296.8 245.5 297.5 240.9 294.5 236.3 293 234 291.4 232.5 289.1 230.9 288.3 230.9 287.6 230.9 286 230.9 285.2 230.9 284.5 230.9 284.5 230.9 283.7 230.9 283 230.9 283 230.9 283 230.1 287.6 229.4 288.4 229.4 290.7 228.6 292.2 228.6 294.5 227.9 298.3 225.5 302.1 224 306.7 221.7Z" id="path932"/></g></g></g></g></svg>