<?xml version="1.0" encoding="UTF-8" standalone="no"?>
<!DOCTYPE svg PUBLIC "-//W3C//DTD SVG 1.1//EN"
 "http://www.w3.org/Graphics/SVG/1.1/DTD/svg11.dtd">
<!-- Generated by graphviz version 2.49.1 (20210923.0004)
 -->
<!-- Pages: 1 -->
<svg width="366pt" height="524pt"
 viewBox="0.00 0.00 366.00 524.00" xmlns="http://www.w3.org/2000/svg" xmlns:xlink="http://www.w3.org/1999/xlink">
<g id="graph0" class="graph" transform="scale(1 1) rotate(0) translate(4 520)">
<polygon fill="#ffffff" stroke="transparent" points="-4,4 -4,-520 362,-520 362,4 -4,4"/>
<text text-anchor="middle" x="179" y="-497.6" font-family="Helvetica,sans-Serif" font-weight="bold" font-size="18.00">Procedure for Numerical Demonstration</text>
<text text-anchor="middle" x="179" y="-477.6" font-family="Helvetica,sans-Serif" font-weight="bold" font-size="18.00">of Estimator Performance</text>
<!-- func -->
<g id="node1" class="node">
<title>func</title>
<path fill="#e9f1f7" stroke="#333333" d="M250.75,-468C250.75,-468 50.75,-468 50.75,-468 44.75,-468 38.75,-462 38.75,-456 38.75,-456 38.75,-444 38.75,-444 38.75,-438 44.75,-432 50.75,-432 50.75,-432 250.75,-432 250.75,-432 256.75,-432 262.75,-438 262.75,-444 262.75,-444 262.75,-456 262.75,-456 262.75,-462 256.75,-468 250.75,-468"/>
<text text-anchor="middle" x="150.75" y="-453.4" font-family="Helvetica,sans-Serif" font-size="12.00">Underlying &quot;truth&quot; function</text>
<text text-anchor="middle" x="150.75" y="-440.4" font-family="Helvetica,sans-Serif" font-size="12.00">(sinusoid with a known signal frequency)</text>
</g>
<!-- draw -->
<g id="node2" class="node">
<title>draw</title>
<path fill="#e9f1f7" stroke="#333333" d="M206.25,-396C206.25,-396 95.25,-396 95.25,-396 89.25,-396 83.25,-390 83.25,-384 83.25,-384 83.25,-372 83.25,-372 83.25,-366 89.25,-360 95.25,-360 95.25,-360 206.25,-360 206.25,-360 212.25,-360 218.25,-366 218.25,-372 218.25,-372 218.25,-384 218.25,-384 218.25,-390 212.25,-396 206.25,-396"/>
<text text-anchor="middle" x="150.75" y="-381.4" font-family="Helvetica,sans-Serif" font-size="12.00">Take discrete samples</text>
<text text-anchor="middle" x="150.75" y="-368.4" font-family="Helvetica,sans-Serif" font-size="12.00">at sample frequency</text>
</g>
<!-- func&#45;&gt;draw -->
<g id="edge1" class="edge">
<title>func&#45;&gt;draw</title>
<path fill="none" stroke="#555555" d="M150.75,-431.83C150.75,-431.83 150.75,-406.41 150.75,-406.41"/>
<polygon fill="#555555" stroke="#555555" points="150.75,-396.41 155.25,-406.41 150.75,-401.41 150.75,-406.41 150.75,-406.41 150.75,-406.41 150.75,-401.41 146.25,-406.41 150.75,-396.41 150.75,-396.41"/>
</g>
<!-- noise -->
<g id="node4" class="node">
<title>noise</title>
<path fill="#e9f1f7" stroke="#333333" d="M234.25,-324C234.25,-324 103.25,-324 103.25,-324 97.25,-324 91.25,-318 91.25,-312 91.25,-312 91.25,-300 91.25,-300 91.25,-294 97.25,-288 103.25,-288 103.25,-288 234.25,-288 234.25,-288 240.25,-288 246.25,-294 246.25,-300 246.25,-300 246.25,-312 246.25,-312 246.25,-318 240.25,-324 234.25,-324"/>
<text text-anchor="middle" x="168.75" y="-309.4" font-family="Helvetica,sans-Serif" font-size="12.00">Add noise</text>
<text text-anchor="middle" x="168.75" y="-296.4" font-family="Helvetica,sans-Serif" font-size="12.00">(normal dist., independent)</text>
</g>
<!-- draw&#45;&gt;noise -->
<g id="edge3" class="edge">
<title>draw&#45;&gt;noise</title>
<path fill="none" stroke="#555555" d="M154.75,-359.83C154.75,-359.83 154.75,-334.41 154.75,-334.41"/>
<polygon fill="#555555" stroke="#555555" points="154.75,-324.41 159.25,-334.41 154.75,-329.41 154.75,-334.41 154.75,-334.41 154.75,-334.41 154.75,-329.41 150.25,-334.41 154.75,-324.41 154.75,-324.41"/>
</g>
<!-- tvar -->
<g id="node3" class="node">
<title>tvar</title>
<path fill="#f1f7e9" stroke="#333333" d="M307.25,-396C307.25,-396 244.25,-396 244.25,-396 238.25,-396 232.25,-390 232.25,-384 232.25,-384 232.25,-372 232.25,-372 232.25,-366 238.25,-360 244.25,-360 244.25,-360 307.25,-360 307.25,-360 313.25,-360 319.25,-366 319.25,-372 319.25,-372 319.25,-384 319.25,-384 319.25,-390 313.25,-396 307.25,-396"/>
<text text-anchor="middle" x="275.75" y="-374.9" font-family="Helvetica,sans-Serif" font-size="12.00">True variance</text>
</g>
<!-- tvar&#45;&gt;noise -->
<g id="edge2" class="edge">
<title>tvar&#45;&gt;noise</title>
<path fill="none" stroke="#555555" d="M239.25,-359.83C239.25,-359.83 239.25,-334.41 239.25,-334.41"/>
<polygon fill="#555555" stroke="#555555" points="239.25,-324.41 243.75,-334.41 239.25,-329.41 239.25,-334.41 239.25,-334.41 239.25,-334.41 239.25,-329.41 234.75,-334.41 239.25,-324.41 239.25,-324.41"/>
</g>
<!-- c -->
<g id="node8" class="node">
<title>c</title>
<path fill="white" stroke="transparent" d="M271.25,-36C271.25,-36 172.25,-36 172.25,-36 166.25,-36 160.25,-30 160.25,-24 160.25,-24 160.25,-12 160.25,-12 160.25,-6 166.25,0 172.25,0 172.25,0 271.25,0 271.25,0 277.25,0 283.25,-6 283.25,-12 283.25,-12 283.25,-24 283.25,-24 283.25,-30 277.25,-36 271.25,-36"/>
<text text-anchor="middle" x="221.75" y="-21.4" font-family="Helvetica,sans-Serif" font-size="12.00">Compare to</text>
<text text-anchor="middle" x="221.75" y="-8.4" font-family="Helvetica,sans-Serif" font-size="12.00">assess performance</text>
</g>
<!-- tvar&#45;&gt;c -->
<g id="edge7" class="edge">
<title>tvar&#45;&gt;c</title>
<path fill="none" stroke="gray" stroke-dasharray="5,2" d="M268.5,-359.65C268.5,-297.9 268.5,-98.01 268.5,-36.31"/>
</g>
<!-- syn -->
<g id="node5" class="node">
<title>syn</title>
<path fill="#f7e9f1" stroke="#333333" d="M210.75,-252C210.75,-252 126.75,-252 126.75,-252 120.75,-252 114.75,-246 114.75,-240 114.75,-240 114.75,-228 114.75,-228 114.75,-222 120.75,-216 126.75,-216 126.75,-216 210.75,-216 210.75,-216 216.75,-216 222.75,-222 222.75,-228 222.75,-228 222.75,-240 222.75,-240 222.75,-246 216.75,-252 210.75,-252"/>
<text text-anchor="middle" x="168.75" y="-230.9" font-family="Helvetica,sans-Serif" font-size="12.00">Synthetic Dataset</text>
</g>
<!-- noise&#45;&gt;syn -->
<g id="edge4" class="edge">
<title>noise&#45;&gt;syn</title>
<path fill="none" stroke="#555555" d="M168.75,-287.83C168.75,-287.83 168.75,-262.41 168.75,-262.41"/>
<polygon fill="#555555" stroke="#555555" points="168.75,-252.41 173.25,-262.41 168.75,-257.41 168.75,-262.41 168.75,-262.41 168.75,-262.41 168.75,-257.41 164.25,-262.41 168.75,-252.41 168.75,-252.41"/>
</g>
<!-- est -->
<g id="node6" class="node">
<title>est</title>
<path fill="#e9f1f7" stroke="#333333" d="M241.75,-180C241.75,-180 95.75,-180 95.75,-180 89.75,-180 83.75,-174 83.75,-168 83.75,-168 83.75,-156 83.75,-156 83.75,-150 89.75,-144 95.75,-144 95.75,-144 241.75,-144 241.75,-144 247.75,-144 253.75,-150 253.75,-156 253.75,-156 253.75,-168 253.75,-168 253.75,-174 247.75,-180 241.75,-180"/>
<text text-anchor="middle" x="168.75" y="-158.9" font-family="Helvetica,sans-Serif" font-size="12.00">Apply the first&#45;order estimator</text>
</g>
<!-- syn&#45;&gt;est -->
<g id="edge5" class="edge">
<title>syn&#45;&gt;est</title>
<path fill="none" stroke="#555555" d="M168.75,-215.83C168.75,-215.83 168.75,-190.41 168.75,-190.41"/>
<polygon fill="#555555" stroke="#555555" points="168.75,-180.41 173.25,-190.41 168.75,-185.41 168.75,-190.41 168.75,-190.41 168.75,-190.41 168.75,-185.41 164.25,-190.41 168.75,-180.41 168.75,-180.41"/>
</g>
<!-- evar -->
<g id="node7" class="node">
<title>evar</title>
<path fill="#f1f7e9" stroke="#333333" d="M228.25,-108C228.25,-108 135.25,-108 135.25,-108 129.25,-108 123.25,-102 123.25,-96 123.25,-96 123.25,-84 123.25,-84 123.25,-78 129.25,-72 135.25,-72 135.25,-72 228.25,-72 228.25,-72 234.25,-72 240.25,-78 240.25,-84 240.25,-84 240.25,-96 240.25,-96 240.25,-102 234.25,-108 228.25,-108"/>
<text text-anchor="middle" x="181.75" y="-86.9" font-family="Helvetica,sans-Serif" font-size="12.00">Estimated variance</text>
</g>
<!-- est&#45;&gt;evar -->
<g id="edge6" class="edge">
<title>est&#45;&gt;evar</title>
<path fill="none" stroke="#555555" d="M181.75,-143.83C181.75,-143.83 181.75,-118.41 181.75,-118.41"/>
<polygon fill="#555555" stroke="#555555" points="181.75,-108.41 186.25,-118.41 181.75,-113.41 181.75,-118.41 181.75,-118.41 181.75,-118.41 181.75,-113.41 177.25,-118.41 181.75,-108.41 181.75,-108.41"/>
</g>
<!-- evar&#45;&gt;c -->
<g id="edge8" class="edge">
<title>evar&#45;&gt;c</title>
<path fill="none" stroke="gray" stroke-dasharray="5,2" d="M200.25,-71.83C200.25,-61 200.25,-47.29 200.25,-36.41"/>
</g>
</g>
</svg>
