<?xml version="1.0" encoding="UTF-8" standalone="no"?>
<!DOCTYPE svg PUBLIC "-//W3C//DTD SVG 1.1//EN"
 "http://www.w3.org/Graphics/SVG/1.1/DTD/svg11.dtd">
<!-- Generated by graphviz version 2.49.1 (20210923.0004)
 -->
<!-- Pages: 1 -->
<svg width="611pt" height="432pt"
 viewBox="0.00 0.00 611.00 432.00" xmlns="http://www.w3.org/2000/svg" xmlns:xlink="http://www.w3.org/1999/xlink">
<g id="graph0" class="graph" transform="scale(1 1) rotate(0) translate(4 428)">
<polygon fill="#ffffff" stroke="transparent" points="-4,4 -4,-428 607,-428 607,4 -4,4"/>
<text text-anchor="middle" x="301.5" y="-405.6" font-family="Helvetica,sans-Serif" font-weight="bold" font-size="18.00">Inference&#45;Based Flight Data Reconstruction</text>
<!-- true -->
<g id="node1" class="node">
<title>true</title>
<path fill="white" stroke="#333333" d="M84,-396C84,-396 42,-396 42,-396 36,-396 30,-390 30,-384 30,-384 30,-372 30,-372 30,-366 36,-360 42,-360 42,-360 84,-360 84,-360 90,-360 96,-366 96,-372 96,-372 96,-384 96,-384 96,-390 90,-396 84,-396"/>
<text text-anchor="middle" x="63" y="-374.9" font-family="Helvetica,sans-Serif" font-size="12.00">True data</text>
</g>
<!-- sensor -->
<g id="node2" class="node">
<title>sensor</title>
<path fill="#e9f1f7" stroke="#333333" d="M132,-324C132,-324 76,-324 76,-324 70,-324 64,-318 64,-312 64,-312 64,-300 64,-300 64,-294 70,-288 76,-288 76,-288 132,-288 132,-288 138,-288 144,-294 144,-300 144,-300 144,-312 144,-312 144,-318 138,-324 132,-324"/>
<text text-anchor="middle" x="104" y="-302.9" font-family="Helvetica,sans-Serif" font-size="12.00">Sensor data</text>
</g>
<!-- true&#45;&gt;sensor -->
<g id="edge1" class="edge">
<title>true&#45;&gt;sensor</title>
<path fill="none" stroke="#555555" stroke-dasharray="5,2" d="M80,-359.83C80,-359.83 80,-334.41 80,-334.41"/>
<polygon fill="#555555" stroke="#555555" points="80,-324.41 84.5,-334.41 80,-329.41 80,-334.41 80,-334.41 80,-334.41 80,-329.41 75.5,-334.41 80,-324.41 80,-324.41"/>
</g>
<!-- estimate -->
<g id="node4" class="node">
<title>estimate</title>
<path fill="#e9f1f7" stroke="#333333" d="M64,-252C64,-252 12,-252 12,-252 6,-252 0,-246 0,-240 0,-240 0,-228 0,-228 0,-222 6,-216 12,-216 12,-216 64,-216 64,-216 70,-216 76,-222 76,-228 76,-228 76,-240 76,-240 76,-246 70,-252 64,-252"/>
<text text-anchor="middle" x="38" y="-237.4" font-family="Helvetica,sans-Serif" font-size="12.00">Estimate of</text>
<text text-anchor="middle" x="38" y="-224.4" font-family="Helvetica,sans-Serif" font-size="12.00">true data</text>
</g>
<!-- sensor&#45;&gt;estimate -->
<g id="edge3" class="edge">
<title>sensor&#45;&gt;estimate</title>
<path fill="none" stroke="#555555" d="M70,-287.83C70,-287.83 70,-262.41 70,-262.41"/>
<polygon fill="#555555" stroke="#555555" points="70,-252.41 74.5,-262.41 70,-257.41 70,-262.41 70,-262.41 70,-262.41 70,-257.41 65.5,-262.41 70,-252.41 70,-252.41"/>
</g>
<!-- noise_estimate -->
<g id="node5" class="node">
<title>noise_estimate</title>
<path fill="#e9f1f7" stroke="#333333" d="M237.5,-252C237.5,-252 102.5,-252 102.5,-252 96.5,-252 90.5,-246 90.5,-240 90.5,-240 90.5,-228 90.5,-228 90.5,-222 96.5,-216 102.5,-216 102.5,-216 237.5,-216 237.5,-216 243.5,-216 249.5,-222 249.5,-228 249.5,-228 249.5,-240 249.5,-240 249.5,-246 243.5,-252 237.5,-252"/>
<text text-anchor="middle" x="170" y="-237.4" font-family="Helvetica,sans-Serif" font-size="12.00">(Explicit) Estimate of noise,</text>
<text text-anchor="middle" x="170" y="-224.4" font-family="Helvetica,sans-Serif" font-size="12.00">computed from sensor data</text>
</g>
<!-- sensor&#45;&gt;noise_estimate -->
<g id="edge4" class="edge">
<title>sensor&#45;&gt;noise_estimate</title>
<path fill="none" stroke="#555555" d="M117.25,-287.83C117.25,-287.83 117.25,-262.41 117.25,-262.41"/>
<polygon fill="#555555" stroke="#555555" points="117.25,-252.41 121.75,-262.41 117.25,-257.41 117.25,-262.41 117.25,-262.41 117.25,-262.41 117.25,-257.41 112.75,-262.41 117.25,-252.41 117.25,-252.41"/>
</g>
<!-- noise -->
<g id="node3" class="node">
<title>noise</title>
<path fill="white" stroke="#333333" d="M169.5,-396C169.5,-396 122.5,-396 122.5,-396 116.5,-396 110.5,-390 110.5,-384 110.5,-384 110.5,-372 110.5,-372 110.5,-366 116.5,-360 122.5,-360 122.5,-360 169.5,-360 169.5,-360 175.5,-360 181.5,-366 181.5,-372 181.5,-372 181.5,-384 181.5,-384 181.5,-390 175.5,-396 169.5,-396"/>
<text text-anchor="middle" x="146" y="-374.9" font-family="Helvetica,sans-Serif" font-size="12.00">True noise</text>
</g>
<!-- noise&#45;&gt;sensor -->
<g id="edge2" class="edge">
<title>noise&#45;&gt;sensor</title>
<path fill="none" stroke="#555555" stroke-dasharray="5,2" d="M127.25,-359.83C127.25,-359.83 127.25,-334.41 127.25,-334.41"/>
<polygon fill="#555555" stroke="#555555" points="127.25,-324.41 131.75,-334.41 127.25,-329.41 127.25,-334.41 127.25,-334.41 127.25,-334.41 127.25,-329.41 122.75,-334.41 127.25,-324.41 127.25,-324.41"/>
</g>
<!-- energy_balance -->
<g id="node8" class="node">
<title>energy_balance</title>
<path fill="#e9f1f7" stroke="#333333" d="M431,-180C431,-180 281,-180 281,-180 275,-180 269,-174 269,-168 269,-168 269,-156 269,-156 269,-150 275,-144 281,-144 281,-144 431,-144 431,-144 437,-144 443,-150 443,-156 443,-156 443,-168 443,-168 443,-174 437,-180 431,-180"/>
<text text-anchor="middle" x="356" y="-165.4" font-family="Helvetica,sans-Serif" font-size="12.00">Energy&#45;balance reconstruction</text>
<text text-anchor="middle" x="356" y="-152.4" font-family="Helvetica,sans-Serif" font-size="12.00">(compute energy residuals)</text>
</g>
<!-- estimate&#45;&gt;energy_balance -->
<g id="edge6" class="edge">
<title>estimate&#45;&gt;energy_balance</title>
<path fill="none" stroke="#555555" d="M38,-215.83C38,-194.5 38,-162 38,-162 38,-162 258.68,-162 258.68,-162"/>
<polygon fill="#555555" stroke="#555555" points="268.68,-162 258.68,-166.5 263.68,-162 258.68,-162 258.68,-162 258.68,-162 263.68,-162 258.68,-157.5 268.68,-162 268.68,-162"/>
</g>
<!-- model_unsolved -->
<g id="node6" class="node">
<title>model_unsolved</title>
<path fill="#f7f1e9" stroke="#333333" d="M436.5,-252C436.5,-252 275.5,-252 275.5,-252 269.5,-252 263.5,-246 263.5,-240 263.5,-240 263.5,-228 263.5,-228 263.5,-222 269.5,-216 275.5,-216 275.5,-216 436.5,-216 436.5,-216 442.5,-216 448.5,-222 448.5,-228 448.5,-228 448.5,-240 448.5,-240 448.5,-246 442.5,-252 436.5,-252"/>
<text text-anchor="middle" x="356" y="-237.4" font-family="Helvetica,sans-Serif" font-size="12.00">Aerodynamic / Propulsive model</text>
<text text-anchor="middle" x="356" y="-224.4" font-family="Helvetica,sans-Serif" font-size="12.00">with unknown coefficients</text>
</g>
<!-- model_unsolved&#45;&gt;energy_balance -->
<g id="edge7" class="edge">
<title>model_unsolved&#45;&gt;energy_balance</title>
<path fill="none" stroke="#555555" d="M356,-215.83C356,-215.83 356,-190.41 356,-190.41"/>
<polygon fill="#555555" stroke="#555555" points="356,-180.41 360.5,-190.41 356,-185.41 356,-190.41 356,-190.41 356,-190.41 356,-185.41 351.5,-190.41 356,-180.41 356,-180.41"/>
</g>
<!-- newton -->
<g id="node7" class="node">
<title>newton</title>
<path fill="#f7f1e9" stroke="#333333" d="M591,-252C591,-252 475,-252 475,-252 469,-252 463,-246 463,-240 463,-240 463,-228 463,-228 463,-222 469,-216 475,-216 475,-216 591,-216 591,-216 597,-216 603,-222 603,-228 603,-228 603,-240 603,-240 603,-246 597,-252 591,-252"/>
<text text-anchor="middle" x="533" y="-237.4" font-family="Helvetica,sans-Serif" font-size="12.00">Newtonian dynamics</text>
<text text-anchor="middle" x="533" y="-224.4" font-family="Helvetica,sans-Serif" font-size="12.00">for unsteady corrections</text>
</g>
<!-- newton&#45;&gt;energy_balance -->
<g id="edge5" class="edge">
<title>newton&#45;&gt;energy_balance</title>
<path fill="none" stroke="#555555" d="M533,-215.83C533,-194.5 533,-162 533,-162 533,-162 453.2,-162 453.2,-162"/>
<polygon fill="#555555" stroke="#555555" points="443.2,-162 453.2,-157.5 448.2,-162 453.2,-162 453.2,-162 453.2,-162 448.2,-162 453.2,-166.5 443.2,-162 443.2,-162"/>
</g>
<!-- opti -->
<g id="node9" class="node">
<title>opti</title>
<path fill="#f7f1e9" stroke="#333333" d="M404.5,-108C404.5,-108 307.5,-108 307.5,-108 301.5,-108 295.5,-102 295.5,-96 295.5,-96 295.5,-84 295.5,-84 295.5,-78 301.5,-72 307.5,-72 307.5,-72 404.5,-72 404.5,-72 410.5,-72 416.5,-78 416.5,-84 416.5,-84 416.5,-96 416.5,-96 416.5,-102 410.5,-108 404.5,-108"/>
<text text-anchor="middle" x="356" y="-93.4" font-family="Helvetica,sans-Serif" font-size="12.00">Optimization</text>
<text text-anchor="middle" x="356" y="-80.4" font-family="Helvetica,sans-Serif" font-size="12.00">(minimize residuals)</text>
</g>
<!-- energy_balance&#45;&gt;opti -->
<g id="edge8" class="edge">
<title>energy_balance&#45;&gt;opti</title>
<path fill="none" stroke="#555555" d="M356,-143.83C356,-143.83 356,-118.41 356,-118.41"/>
<polygon fill="#555555" stroke="#555555" points="356,-108.41 360.5,-118.41 356,-113.41 356,-118.41 356,-118.41 356,-118.41 356,-113.41 351.5,-118.41 356,-108.41 356,-108.41"/>
</g>
<!-- model_solved -->
<g id="node10" class="node">
<title>model_solved</title>
<path fill="#f7f1e9" stroke="#333333" d="M436.5,-36C436.5,-36 275.5,-36 275.5,-36 269.5,-36 263.5,-30 263.5,-24 263.5,-24 263.5,-12 263.5,-12 263.5,-6 269.5,0 275.5,0 275.5,0 436.5,0 436.5,0 442.5,0 448.5,-6 448.5,-12 448.5,-12 448.5,-24 448.5,-24 448.5,-30 442.5,-36 436.5,-36"/>
<text text-anchor="middle" x="356" y="-21.4" font-family="Helvetica,sans-Serif" font-size="12.00">Aerodynamic / Propulsive model</text>
<text text-anchor="middle" x="356" y="-8.4" font-family="Helvetica,sans-Serif" font-size="12.00">with known coefficients</text>
</g>
<!-- opti&#45;&gt;model_solved -->
<g id="edge9" class="edge">
<title>opti&#45;&gt;model_solved</title>
<path fill="none" stroke="#555555" d="M356,-71.83C356,-71.83 356,-46.41 356,-46.41"/>
<polygon fill="#555555" stroke="#555555" points="356,-36.41 360.5,-46.41 356,-41.41 356,-46.41 356,-46.41 356,-46.41 356,-41.41 351.5,-46.41 356,-36.41 356,-36.41"/>
</g>
</g>
</svg>
