<?xml version="1.0" encoding="utf-8" standalone="no"?>
<!DOCTYPE svg PUBLIC "-//W3C//DTD SVG 1.1//EN"
  "http://www.w3.org/Graphics/SVG/1.1/DTD/svg11.dtd">
<svg xmlns:xlink="http://www.w3.org/1999/xlink" width="360pt" height="216pt" viewBox="0 0 360 216" xmlns="http://www.w3.org/2000/svg" version="1.1">
 <metadata>
  <rdf:RDF xmlns:dc="http://purl.org/dc/elements/1.1/" xmlns:cc="http://creativecommons.org/ns#" xmlns:rdf="http://www.w3.org/1999/02/22-rdf-syntax-ns#">
   <cc:Work>
    <dc:type rdf:resource="http://purl.org/dc/dcmitype/StillImage"/>
    <dc:date>2024-06-02T14:58:28.051071</dc:date>
    <dc:format>image/svg+xml</dc:format>
    <dc:creator>
     <cc:Agent>
      <dc:title>Matplotlib v3.8.3, https://matplotlib.org/</dc:title>
     </cc:Agent>
    </dc:creator>
   </cc:Work>
  </rdf:RDF>
 </metadata>
 <defs>
  <style type="text/css">*{stroke-linejoin: round; stroke-linecap: butt}</style>
 </defs>
 <g id="figure_1">
  <g id="patch_1">
   <path d="M 0 216 
L 360 216 
L 360 0 
L 0 0 
z
" style="fill: #ffffff"/>
  </g>
  <g id="axes_1">
   <g id="line2d_1">
    <path d="M 31.976219 82.994938 
L 32.916613 82.994938 
L 35.690638 82.994938 
L 40.159195 82.994938 
L 46.09821 82.994938 
L 53.209877 82.994938 
L 61.137587 82.994938 
L 69.483812 82.994938 
L 77.830037 82.994938 
L 85.757747 82.994938 
L 92.869414 82.994938 
L 98.808429 82.994938 
L 103.276986 82.994938 
L 106.051011 82.994938 
L 106.991405 82.994938 
" clip-path="url(#p1de07215da)" style="fill: none; stroke: #8b0000; stroke-width: 2; stroke-linecap: round"/>
    <defs>
     <path id="mf8b081d846" d="M 0 1.5 
C 0.397805 1.5 0.77937 1.341951 1.06066 1.06066 
C 1.341951 0.77937 1.5 0.397805 1.5 0 
C 1.5 -0.397805 1.341951 -0.77937 1.06066 -1.06066 
C 0.77937 -1.341951 0.397805 -1.5 0 -1.5 
C -0.397805 -1.5 -0.77937 -1.341951 -1.06066 -1.06066 
C -1.341951 -0.77937 -1.5 -0.397805 -1.5 0 
C -1.5 0.397805 -1.341951 0.77937 -1.06066 1.06066 
C -0.77937 1.341951 -0.397805 1.5 0 1.5 
z
" style="stroke: #8b0000"/>
    </defs>
    <g clip-path="url(#p1de07215da)">
     <use xlink:href="#mf8b081d846" x="31.976219" y="82.994938" style="fill: #8b0000; stroke: #8b0000"/>
     <use xlink:href="#mf8b081d846" x="32.916613" y="82.994938" style="fill: #8b0000; stroke: #8b0000"/>
     <use xlink:href="#mf8b081d846" x="35.690638" y="82.994938" style="fill: #8b0000; stroke: #8b0000"/>
     <use xlink:href="#mf8b081d846" x="40.159195" y="82.994938" style="fill: #8b0000; stroke: #8b0000"/>
     <use xlink:href="#mf8b081d846" x="46.09821" y="82.994938" style="fill: #8b0000; stroke: #8b0000"/>
     <use xlink:href="#mf8b081d846" x="53.209877" y="82.994938" style="fill: #8b0000; stroke: #8b0000"/>
     <use xlink:href="#mf8b081d846" x="61.137587" y="82.994938" style="fill: #8b0000; stroke: #8b0000"/>
     <use xlink:href="#mf8b081d846" x="69.483812" y="82.994938" style="fill: #8b0000; stroke: #8b0000"/>
     <use xlink:href="#mf8b081d846" x="77.830037" y="82.994938" style="fill: #8b0000; stroke: #8b0000"/>
     <use xlink:href="#mf8b081d846" x="85.757747" y="82.994938" style="fill: #8b0000; stroke: #8b0000"/>
     <use xlink:href="#mf8b081d846" x="92.869414" y="82.994938" style="fill: #8b0000; stroke: #8b0000"/>
     <use xlink:href="#mf8b081d846" x="98.808429" y="82.994938" style="fill: #8b0000; stroke: #8b0000"/>
     <use xlink:href="#mf8b081d846" x="103.276986" y="82.994938" style="fill: #8b0000; stroke: #8b0000"/>
     <use xlink:href="#mf8b081d846" x="106.051011" y="82.994938" style="fill: #8b0000; stroke: #8b0000"/>
     <use xlink:href="#mf8b081d846" x="106.991405" y="82.994938" style="fill: #8b0000; stroke: #8b0000"/>
    </g>
   </g>
   <g id="line2d_2">
    <path d="M 106.991405 95.497469 
L 108.185033 95.497469 
L 111.733356 95.497469 
L 117.539587 95.497469 
L 125.445346 95.497469 
L 135.234985 95.497469 
L 146.641468 95.497469 
L 159.353655 95.497469 
L 173.024793 95.497469 
L 187.281966 95.497469 
L 201.736278 95.497469 
L 215.993451 95.497469 
L 229.664588 95.497469 
L 242.376776 95.497469 
L 253.783259 95.497469 
L 263.572898 95.497469 
L 271.478657 95.497469 
L 277.284888 95.497469 
L 280.833211 95.497469 
L 282.026839 95.497469 
" clip-path="url(#p1de07215da)" style="fill: none; stroke: #00008b; stroke-width: 2; stroke-linecap: round"/>
    <defs>
     <path id="me60af1c9dc" d="M 0 1.5 
C 0.397805 1.5 0.77937 1.341951 1.06066 1.06066 
C 1.341951 0.77937 1.5 0.397805 1.5 0 
C 1.5 -0.397805 1.341951 -0.77937 1.06066 -1.06066 
C 0.77937 -1.341951 0.397805 -1.5 0 -1.5 
C -0.397805 -1.5 -0.77937 -1.341951 -1.06066 -1.06066 
C -1.341951 -0.77937 -1.5 -0.397805 -1.5 0 
C -1.5 0.397805 -1.341951 0.77937 -1.06066 1.06066 
C -0.77937 1.341951 -0.397805 1.5 0 1.5 
z
" style="stroke: #00008b"/>
    </defs>
    <g clip-path="url(#p1de07215da)">
     <use xlink:href="#me60af1c9dc" x="106.991405" y="95.497469" style="fill: #00008b; stroke: #00008b"/>
     <use xlink:href="#me60af1c9dc" x="108.185033" y="95.497469" style="fill: #00008b; stroke: #00008b"/>
     <use xlink:href="#me60af1c9dc" x="111.733356" y="95.497469" style="fill: #00008b; stroke: #00008b"/>
     <use xlink:href="#me60af1c9dc" x="117.539587" y="95.497469" style="fill: #00008b; stroke: #00008b"/>
     <use xlink:href="#me60af1c9dc" x="125.445346" y="95.497469" style="fill: #00008b; stroke: #00008b"/>
     <use xlink:href="#me60af1c9dc" x="135.234985" y="95.497469" style="fill: #00008b; stroke: #00008b"/>
     <use xlink:href="#me60af1c9dc" x="146.641468" y="95.497469" style="fill: #00008b; stroke: #00008b"/>
     <use xlink:href="#me60af1c9dc" x="159.353655" y="95.497469" style="fill: #00008b; stroke: #00008b"/>
     <use xlink:href="#me60af1c9dc" x="173.024793" y="95.497469" style="fill: #00008b; stroke: #00008b"/>
     <use xlink:href="#me60af1c9dc" x="187.281966" y="95.497469" style="fill: #00008b; stroke: #00008b"/>
     <use xlink:href="#me60af1c9dc" x="201.736278" y="95.497469" style="fill: #00008b; stroke: #00008b"/>
     <use xlink:href="#me60af1c9dc" x="215.993451" y="95.497469" style="fill: #00008b; stroke: #00008b"/>
     <use xlink:href="#me60af1c9dc" x="229.664588" y="95.497469" style="fill: #00008b; stroke: #00008b"/>
     <use xlink:href="#me60af1c9dc" x="242.376776" y="95.497469" style="fill: #00008b; stroke: #00008b"/>
     <use xlink:href="#me60af1c9dc" x="253.783259" y="95.497469" style="fill: #00008b; stroke: #00008b"/>
     <use xlink:href="#me60af1c9dc" x="263.572898" y="95.497469" style="fill: #00008b; stroke: #00008b"/>
     <use xlink:href="#me60af1c9dc" x="271.478657" y="95.497469" style="fill: #00008b; stroke: #00008b"/>
     <use xlink:href="#me60af1c9dc" x="277.284888" y="95.497469" style="fill: #00008b; stroke: #00008b"/>
     <use xlink:href="#me60af1c9dc" x="280.833211" y="95.497469" style="fill: #00008b; stroke: #00008b"/>
     <use xlink:href="#me60af1c9dc" x="282.026839" y="95.497469" style="fill: #00008b; stroke: #00008b"/>
    </g>
   </g>
   <g id="line2d_3">
    <path d="M 31.976219 145.507593 
L 31.976219 57.989876 
" clip-path="url(#p1de07215da)" style="fill: none; stroke-dasharray: 3.7,1.6; stroke-dashoffset: 0; stroke: #808080"/>
   </g>
   <g id="line2d_4">
    <path d="M 106.991405 145.507593 
L 106.991405 57.989876 
" clip-path="url(#p1de07215da)" style="fill: none; stroke-dasharray: 3.7,1.6; stroke-dashoffset: 0; stroke: #808080"/>
   </g>
   <g id="line2d_5">
    <path d="M 282.026839 145.507593 
L 282.026839 57.989876 
" clip-path="url(#p1de07215da)" style="fill: none; stroke-dasharray: 3.7,1.6; stroke-dashoffset: 0; stroke: #808080"/>
   </g>
   <g id="text_1">
    <!-- Time $t$ -->
    <g style="fill: #262626" transform="translate(133.801529 162.146374) scale(0.16 -0.16)">
     <defs>
      <path id="ArialMT-54" d="M 1659 0 
L 1659 4041 
L 150 4041 
L 150 4581 
L 3781 4581 
L 3781 4041 
L 2266 4041 
L 2266 0 
L 1659 0 
z
" transform="scale(0.015625)"/>
      <path id="ArialMT-69" d="M 425 3934 
L 425 4581 
L 988 4581 
L 988 3934 
L 425 3934 
z
M 425 0 
L 425 3319 
L 988 3319 
L 988 0 
L 425 0 
z
" transform="scale(0.015625)"/>
      <path id="ArialMT-6d" d="M 422 0 
L 422 3319 
L 925 3319 
L 925 2853 
Q 1081 3097 1340 3245 
Q 1600 3394 1931 3394 
Q 2300 3394 2536 3241 
Q 2772 3088 2869 2813 
Q 3263 3394 3894 3394 
Q 4388 3394 4653 3120 
Q 4919 2847 4919 2278 
L 4919 0 
L 4359 0 
L 4359 2091 
Q 4359 2428 4304 2576 
Q 4250 2725 4106 2815 
Q 3963 2906 3769 2906 
Q 3419 2906 3187 2673 
Q 2956 2441 2956 1928 
L 2956 0 
L 2394 0 
L 2394 2156 
Q 2394 2531 2256 2718 
Q 2119 2906 1806 2906 
Q 1569 2906 1367 2781 
Q 1166 2656 1075 2415 
Q 984 2175 984 1722 
L 984 0 
L 422 0 
z
" transform="scale(0.015625)"/>
      <path id="ArialMT-65" d="M 2694 1069 
L 3275 997 
Q 3138 488 2766 206 
Q 2394 -75 1816 -75 
Q 1088 -75 661 373 
Q 234 822 234 1631 
Q 234 2469 665 2931 
Q 1097 3394 1784 3394 
Q 2450 3394 2872 2941 
Q 3294 2488 3294 1666 
Q 3294 1616 3291 1516 
L 816 1516 
Q 847 969 1125 678 
Q 1403 388 1819 388 
Q 2128 388 2347 550 
Q 2566 713 2694 1069 
z
M 847 1978 
L 2700 1978 
Q 2663 2397 2488 2606 
Q 2219 2931 1791 2931 
Q 1403 2931 1139 2672 
Q 875 2413 847 1978 
z
" transform="scale(0.015625)"/>
      <path id="ArialMT-20" transform="scale(0.015625)"/>
      <path id="DejaVuSans-Oblique-74" d="M 2706 3500 
L 2619 3053 
L 1472 3053 
L 1100 1153 
Q 1081 1047 1072 975 
Q 1063 903 1063 863 
Q 1063 663 1183 572 
Q 1303 481 1569 481 
L 2150 481 
L 2053 0 
L 1503 0 
Q 991 0 739 200 
Q 488 400 488 806 
Q 488 878 497 964 
Q 506 1050 525 1153 
L 897 3053 
L 409 3053 
L 500 3500 
L 978 3500 
L 1172 4494 
L 1747 4494 
L 1556 3500 
L 2706 3500 
z
" transform="scale(0.015625)"/>
     </defs>
     <use xlink:href="#ArialMT-54" transform="translate(0 0.421875)"/>
     <use xlink:href="#ArialMT-69" transform="translate(61.083984 0.421875)"/>
     <use xlink:href="#ArialMT-6d" transform="translate(83.300781 0.421875)"/>
     <use xlink:href="#ArialMT-65" transform="translate(166.601562 0.421875)"/>
     <use xlink:href="#ArialMT-20" transform="translate(222.216797 0.421875)"/>
     <use xlink:href="#DejaVuSans-Oblique-74" transform="translate(250 0.421875)"/>
    </g>
   </g>
   <g id="text_2">
    <!-- Dash phase -->
    <g style="fill: #8b0000" transform="translate(37.464437 78.109432) scale(0.12 -0.12)">
     <defs>
      <path id="ArialMT-44" d="M 494 0 
L 494 4581 
L 2072 4581 
Q 2606 4581 2888 4516 
Q 3281 4425 3559 4188 
Q 3922 3881 4101 3404 
Q 4281 2928 4281 2316 
Q 4281 1794 4159 1391 
Q 4038 988 3847 723 
Q 3656 459 3429 307 
Q 3203 156 2883 78 
Q 2563 0 2147 0 
L 494 0 
z
M 1100 541 
L 2078 541 
Q 2531 541 2789 625 
Q 3047 709 3200 863 
Q 3416 1078 3536 1442 
Q 3656 1806 3656 2325 
Q 3656 3044 3420 3430 
Q 3184 3816 2847 3947 
Q 2603 4041 2063 4041 
L 1100 4041 
L 1100 541 
z
" transform="scale(0.015625)"/>
      <path id="ArialMT-61" d="M 2588 409 
Q 2275 144 1986 34 
Q 1697 -75 1366 -75 
Q 819 -75 525 192 
Q 231 459 231 875 
Q 231 1119 342 1320 
Q 453 1522 633 1644 
Q 813 1766 1038 1828 
Q 1203 1872 1538 1913 
Q 2219 1994 2541 2106 
Q 2544 2222 2544 2253 
Q 2544 2597 2384 2738 
Q 2169 2928 1744 2928 
Q 1347 2928 1158 2789 
Q 969 2650 878 2297 
L 328 2372 
Q 403 2725 575 2942 
Q 747 3159 1072 3276 
Q 1397 3394 1825 3394 
Q 2250 3394 2515 3294 
Q 2781 3194 2906 3042 
Q 3031 2891 3081 2659 
Q 3109 2516 3109 2141 
L 3109 1391 
Q 3109 606 3145 398 
Q 3181 191 3288 0 
L 2700 0 
Q 2613 175 2588 409 
z
M 2541 1666 
Q 2234 1541 1622 1453 
Q 1275 1403 1131 1340 
Q 988 1278 909 1158 
Q 831 1038 831 891 
Q 831 666 1001 516 
Q 1172 366 1500 366 
Q 1825 366 2078 508 
Q 2331 650 2450 897 
Q 2541 1088 2541 1459 
L 2541 1666 
z
" transform="scale(0.015625)"/>
      <path id="ArialMT-73" d="M 197 991 
L 753 1078 
Q 800 744 1014 566 
Q 1228 388 1613 388 
Q 2000 388 2187 545 
Q 2375 703 2375 916 
Q 2375 1106 2209 1216 
Q 2094 1291 1634 1406 
Q 1016 1563 777 1677 
Q 538 1791 414 1992 
Q 291 2194 291 2438 
Q 291 2659 392 2848 
Q 494 3038 669 3163 
Q 800 3259 1026 3326 
Q 1253 3394 1513 3394 
Q 1903 3394 2198 3281 
Q 2494 3169 2634 2976 
Q 2775 2784 2828 2463 
L 2278 2388 
Q 2241 2644 2061 2787 
Q 1881 2931 1553 2931 
Q 1166 2931 1000 2803 
Q 834 2675 834 2503 
Q 834 2394 903 2306 
Q 972 2216 1119 2156 
Q 1203 2125 1616 2013 
Q 2213 1853 2448 1751 
Q 2684 1650 2818 1456 
Q 2953 1263 2953 975 
Q 2953 694 2789 445 
Q 2625 197 2315 61 
Q 2006 -75 1616 -75 
Q 969 -75 630 194 
Q 291 463 197 991 
z
" transform="scale(0.015625)"/>
      <path id="ArialMT-68" d="M 422 0 
L 422 4581 
L 984 4581 
L 984 2938 
Q 1378 3394 1978 3394 
Q 2347 3394 2619 3248 
Q 2891 3103 3008 2847 
Q 3125 2591 3125 2103 
L 3125 0 
L 2563 0 
L 2563 2103 
Q 2563 2525 2380 2717 
Q 2197 2909 1863 2909 
Q 1613 2909 1392 2779 
Q 1172 2650 1078 2428 
Q 984 2206 984 1816 
L 984 0 
L 422 0 
z
" transform="scale(0.015625)"/>
      <path id="ArialMT-70" d="M 422 -1272 
L 422 3319 
L 934 3319 
L 934 2888 
Q 1116 3141 1344 3267 
Q 1572 3394 1897 3394 
Q 2322 3394 2647 3175 
Q 2972 2956 3137 2557 
Q 3303 2159 3303 1684 
Q 3303 1175 3120 767 
Q 2938 359 2589 142 
Q 2241 -75 1856 -75 
Q 1575 -75 1351 44 
Q 1128 163 984 344 
L 984 -1272 
L 422 -1272 
z
M 931 1641 
Q 931 1000 1190 694 
Q 1450 388 1819 388 
Q 2194 388 2461 705 
Q 2728 1022 2728 1688 
Q 2728 2322 2467 2637 
Q 2206 2953 1844 2953 
Q 1484 2953 1207 2617 
Q 931 2281 931 1641 
z
" transform="scale(0.015625)"/>
     </defs>
     <use xlink:href="#ArialMT-44"/>
     <use xlink:href="#ArialMT-61" x="72.216797"/>
     <use xlink:href="#ArialMT-73" x="127.832031"/>
     <use xlink:href="#ArialMT-68" x="177.832031"/>
     <use xlink:href="#ArialMT-20" x="233.447266"/>
     <use xlink:href="#ArialMT-70" x="261.230469"/>
     <use xlink:href="#ArialMT-68" x="316.845703"/>
     <use xlink:href="#ArialMT-61" x="372.460938"/>
     <use xlink:href="#ArialMT-73" x="428.076172"/>
     <use xlink:href="#ArialMT-65" x="478.076172"/>
    </g>
   </g>
   <g id="text_3">
    <!-- Glide phase -->
    <g style="fill: #00008b" transform="translate(162.489747 90.611963) scale(0.12 -0.12)">
     <defs>
      <path id="ArialMT-47" d="M 2638 1797 
L 2638 2334 
L 4578 2338 
L 4578 638 
Q 4131 281 3656 101 
Q 3181 -78 2681 -78 
Q 2006 -78 1454 211 
Q 903 500 622 1047 
Q 341 1594 341 2269 
Q 341 2938 620 3517 
Q 900 4097 1425 4378 
Q 1950 4659 2634 4659 
Q 3131 4659 3532 4498 
Q 3934 4338 4162 4050 
Q 4391 3763 4509 3300 
L 3963 3150 
Q 3859 3500 3706 3700 
Q 3553 3900 3268 4020 
Q 2984 4141 2638 4141 
Q 2222 4141 1919 4014 
Q 1616 3888 1430 3681 
Q 1244 3475 1141 3228 
Q 966 2803 966 2306 
Q 966 1694 1177 1281 
Q 1388 869 1791 669 
Q 2194 469 2647 469 
Q 3041 469 3416 620 
Q 3791 772 3984 944 
L 3984 1797 
L 2638 1797 
z
" transform="scale(0.015625)"/>
      <path id="ArialMT-6c" d="M 409 0 
L 409 4581 
L 972 4581 
L 972 0 
L 409 0 
z
" transform="scale(0.015625)"/>
      <path id="ArialMT-64" d="M 2575 0 
L 2575 419 
Q 2259 -75 1647 -75 
Q 1250 -75 917 144 
Q 584 363 401 755 
Q 219 1147 219 1656 
Q 219 2153 384 2558 
Q 550 2963 881 3178 
Q 1213 3394 1622 3394 
Q 1922 3394 2156 3267 
Q 2391 3141 2538 2938 
L 2538 4581 
L 3097 4581 
L 3097 0 
L 2575 0 
z
M 797 1656 
Q 797 1019 1065 703 
Q 1334 388 1700 388 
Q 2069 388 2326 689 
Q 2584 991 2584 1609 
Q 2584 2291 2321 2609 
Q 2059 2928 1675 2928 
Q 1300 2928 1048 2622 
Q 797 2316 797 1656 
z
" transform="scale(0.015625)"/>
     </defs>
     <use xlink:href="#ArialMT-47"/>
     <use xlink:href="#ArialMT-6c" x="77.783203"/>
     <use xlink:href="#ArialMT-69" x="100"/>
     <use xlink:href="#ArialMT-64" x="122.216797"/>
     <use xlink:href="#ArialMT-65" x="177.832031"/>
     <use xlink:href="#ArialMT-20" x="233.447266"/>
     <use xlink:href="#ArialMT-70" x="261.230469"/>
     <use xlink:href="#ArialMT-68" x="316.845703"/>
     <use xlink:href="#ArialMT-61" x="372.460938"/>
     <use xlink:href="#ArialMT-73" x="428.076172"/>
     <use xlink:href="#ArialMT-65" x="478.076172"/>
    </g>
   </g>
   <g id="text_4">
    <!-- $t=0$ -->
    <g style="fill: #808080" transform="translate(18.416219 40.095995) scale(0.12 -0.12)">
     <defs>
      <path id="DejaVuSans-3d" d="M 678 2906 
L 4684 2906 
L 4684 2381 
L 678 2381 
L 678 2906 
z
M 678 1631 
L 4684 1631 
L 4684 1100 
L 678 1100 
L 678 1631 
z
" transform="scale(0.015625)"/>
      <path id="DejaVuSans-30" d="M 2034 4250 
Q 1547 4250 1301 3770 
Q 1056 3291 1056 2328 
Q 1056 1369 1301 889 
Q 1547 409 2034 409 
Q 2525 409 2770 889 
Q 3016 1369 3016 2328 
Q 3016 3291 2770 3770 
Q 2525 4250 2034 4250 
z
M 2034 4750 
Q 2819 4750 3233 4129 
Q 3647 3509 3647 2328 
Q 3647 1150 3233 529 
Q 2819 -91 2034 -91 
Q 1250 -91 836 529 
Q 422 1150 422 2328 
Q 422 3509 836 4129 
Q 1250 4750 2034 4750 
z
" transform="scale(0.015625)"/>
     </defs>
     <use xlink:href="#DejaVuSans-Oblique-74" transform="translate(0 0.78125)"/>
     <use xlink:href="#DejaVuSans-3d" transform="translate(58.691406 0.78125)"/>
     <use xlink:href="#DejaVuSans-30" transform="translate(161.962891 0.78125)"/>
    </g>
    <!-- (fixed) -->
    <g style="fill: #808080" transform="translate(15.307469 52.963745) scale(0.12 -0.12)">
     <defs>
      <path id="ArialMT-28" d="M 1497 -1347 
Q 1031 -759 709 28 
Q 388 816 388 1659 
Q 388 2403 628 3084 
Q 909 3875 1497 4659 
L 1900 4659 
Q 1522 4009 1400 3731 
Q 1209 3300 1100 2831 
Q 966 2247 966 1656 
Q 966 153 1900 -1347 
L 1497 -1347 
z
" transform="scale(0.015625)"/>
      <path id="ArialMT-66" d="M 556 0 
L 556 2881 
L 59 2881 
L 59 3319 
L 556 3319 
L 556 3672 
Q 556 4006 616 4169 
Q 697 4388 901 4523 
Q 1106 4659 1475 4659 
Q 1713 4659 2000 4603 
L 1916 4113 
Q 1741 4144 1584 4144 
Q 1328 4144 1222 4034 
Q 1116 3925 1116 3625 
L 1116 3319 
L 1763 3319 
L 1763 2881 
L 1116 2881 
L 1116 0 
L 556 0 
z
" transform="scale(0.015625)"/>
      <path id="ArialMT-78" d="M 47 0 
L 1259 1725 
L 138 3319 
L 841 3319 
L 1350 2541 
Q 1494 2319 1581 2169 
Q 1719 2375 1834 2534 
L 2394 3319 
L 3066 3319 
L 1919 1756 
L 3153 0 
L 2463 0 
L 1781 1031 
L 1600 1309 
L 728 0 
L 47 0 
z
" transform="scale(0.015625)"/>
      <path id="ArialMT-29" d="M 791 -1347 
L 388 -1347 
Q 1322 153 1322 1656 
Q 1322 2244 1188 2822 
Q 1081 3291 891 3722 
Q 769 4003 388 4659 
L 791 4659 
Q 1378 3875 1659 3084 
Q 1900 2403 1900 1659 
Q 1900 816 1576 28 
Q 1253 -759 791 -1347 
z
" transform="scale(0.015625)"/>
     </defs>
     <use xlink:href="#ArialMT-28"/>
     <use xlink:href="#ArialMT-66" x="33.300781"/>
     <use xlink:href="#ArialMT-69" x="61.083984"/>
     <use xlink:href="#ArialMT-78" x="83.300781"/>
     <use xlink:href="#ArialMT-65" x="133.300781"/>
     <use xlink:href="#ArialMT-64" x="188.916016"/>
     <use xlink:href="#ArialMT-29" x="244.53125"/>
    </g>
   </g>
   <g id="text_5">
    <!-- $t_\mathrm{burnout}$ -->
    <g style="fill: #808080" transform="translate(87.851405 53.10437) scale(0.12 -0.12)">
     <defs>
      <path id="DejaVuSans-62" d="M 3116 1747 
Q 3116 2381 2855 2742 
Q 2594 3103 2138 3103 
Q 1681 3103 1420 2742 
Q 1159 2381 1159 1747 
Q 1159 1113 1420 752 
Q 1681 391 2138 391 
Q 2594 391 2855 752 
Q 3116 1113 3116 1747 
z
M 1159 2969 
Q 1341 3281 1617 3432 
Q 1894 3584 2278 3584 
Q 2916 3584 3314 3078 
Q 3713 2572 3713 1747 
Q 3713 922 3314 415 
Q 2916 -91 2278 -91 
Q 1894 -91 1617 61 
Q 1341 213 1159 525 
L 1159 0 
L 581 0 
L 581 4863 
L 1159 4863 
L 1159 2969 
z
" transform="scale(0.015625)"/>
      <path id="DejaVuSans-75" d="M 544 1381 
L 544 3500 
L 1119 3500 
L 1119 1403 
Q 1119 906 1312 657 
Q 1506 409 1894 409 
Q 2359 409 2629 706 
Q 2900 1003 2900 1516 
L 2900 3500 
L 3475 3500 
L 3475 0 
L 2900 0 
L 2900 538 
Q 2691 219 2414 64 
Q 2138 -91 1772 -91 
Q 1169 -91 856 284 
Q 544 659 544 1381 
z
M 1991 3584 
L 1991 3584 
z
" transform="scale(0.015625)"/>
      <path id="DejaVuSans-72" d="M 2631 2963 
Q 2534 3019 2420 3045 
Q 2306 3072 2169 3072 
Q 1681 3072 1420 2755 
Q 1159 2438 1159 1844 
L 1159 0 
L 581 0 
L 581 3500 
L 1159 3500 
L 1159 2956 
Q 1341 3275 1631 3429 
Q 1922 3584 2338 3584 
Q 2397 3584 2469 3576 
Q 2541 3569 2628 3553 
L 2631 2963 
z
" transform="scale(0.015625)"/>
      <path id="DejaVuSans-6e" d="M 3513 2113 
L 3513 0 
L 2938 0 
L 2938 2094 
Q 2938 2591 2744 2837 
Q 2550 3084 2163 3084 
Q 1697 3084 1428 2787 
Q 1159 2491 1159 1978 
L 1159 0 
L 581 0 
L 581 3500 
L 1159 3500 
L 1159 2956 
Q 1366 3272 1645 3428 
Q 1925 3584 2291 3584 
Q 2894 3584 3203 3211 
Q 3513 2838 3513 2113 
z
" transform="scale(0.015625)"/>
      <path id="DejaVuSans-6f" d="M 1959 3097 
Q 1497 3097 1228 2736 
Q 959 2375 959 1747 
Q 959 1119 1226 758 
Q 1494 397 1959 397 
Q 2419 397 2687 759 
Q 2956 1122 2956 1747 
Q 2956 2369 2687 2733 
Q 2419 3097 1959 3097 
z
M 1959 3584 
Q 2709 3584 3137 3096 
Q 3566 2609 3566 1747 
Q 3566 888 3137 398 
Q 2709 -91 1959 -91 
Q 1206 -91 779 398 
Q 353 888 353 1747 
Q 353 2609 779 3096 
Q 1206 3584 1959 3584 
z
" transform="scale(0.015625)"/>
      <path id="DejaVuSans-74" d="M 1172 4494 
L 1172 3500 
L 2356 3500 
L 2356 3053 
L 1172 3053 
L 1172 1153 
Q 1172 725 1289 603 
Q 1406 481 1766 481 
L 2356 481 
L 2356 0 
L 1766 0 
Q 1100 0 847 248 
Q 594 497 594 1153 
L 594 3053 
L 172 3053 
L 172 3500 
L 594 3500 
L 594 4494 
L 1172 4494 
z
" transform="scale(0.015625)"/>
     </defs>
     <use xlink:href="#DejaVuSans-Oblique-74" transform="translate(0 0.78125)"/>
     <use xlink:href="#DejaVuSans-62" transform="translate(39.208984 -15.625) scale(0.7)"/>
     <use xlink:href="#DejaVuSans-75" transform="translate(83.642578 -15.625) scale(0.7)"/>
     <use xlink:href="#DejaVuSans-72" transform="translate(128.007812 -15.625) scale(0.7)"/>
     <use xlink:href="#DejaVuSans-6e" transform="translate(156.787109 -15.625) scale(0.7)"/>
     <use xlink:href="#DejaVuSans-6f" transform="translate(201.152344 -15.625) scale(0.7)"/>
     <use xlink:href="#DejaVuSans-75" transform="translate(243.979492 -15.625) scale(0.7)"/>
     <use xlink:href="#DejaVuSans-74" transform="translate(288.344727 -15.625) scale(0.7)"/>
    </g>
   </g>
   <g id="text_6">
    <!-- $t_\mathrm{end}$ -->
    <g style="fill: #808080" transform="translate(271.586839 53.10437) scale(0.12 -0.12)">
     <defs>
      <path id="DejaVuSans-65" d="M 3597 1894 
L 3597 1613 
L 953 1613 
Q 991 1019 1311 708 
Q 1631 397 2203 397 
Q 2534 397 2845 478 
Q 3156 559 3463 722 
L 3463 178 
Q 3153 47 2828 -22 
Q 2503 -91 2169 -91 
Q 1331 -91 842 396 
Q 353 884 353 1716 
Q 353 2575 817 3079 
Q 1281 3584 2069 3584 
Q 2775 3584 3186 3129 
Q 3597 2675 3597 1894 
z
M 3022 2063 
Q 3016 2534 2758 2815 
Q 2500 3097 2075 3097 
Q 1594 3097 1305 2825 
Q 1016 2553 972 2059 
L 3022 2063 
z
" transform="scale(0.015625)"/>
      <path id="DejaVuSans-64" d="M 2906 2969 
L 2906 4863 
L 3481 4863 
L 3481 0 
L 2906 0 
L 2906 525 
Q 2725 213 2448 61 
Q 2172 -91 1784 -91 
Q 1150 -91 751 415 
Q 353 922 353 1747 
Q 353 2572 751 3078 
Q 1150 3584 1784 3584 
Q 2172 3584 2448 3432 
Q 2725 3281 2906 2969 
z
M 947 1747 
Q 947 1113 1208 752 
Q 1469 391 1925 391 
Q 2381 391 2643 752 
Q 2906 1113 2906 1747 
Q 2906 2381 2643 2742 
Q 2381 3103 1925 3103 
Q 1469 3103 1208 2742 
Q 947 2381 947 1747 
z
" transform="scale(0.015625)"/>
     </defs>
     <use xlink:href="#DejaVuSans-Oblique-74" transform="translate(0 0.78125)"/>
     <use xlink:href="#DejaVuSans-65" transform="translate(39.208984 -15.625) scale(0.7)"/>
     <use xlink:href="#DejaVuSans-6e" transform="translate(82.275391 -15.625) scale(0.7)"/>
     <use xlink:href="#DejaVuSans-64" transform="translate(126.640625 -15.625) scale(0.7)"/>
    </g>
   </g>
   <g id="line2d_6">
    <path d="M 31.976219 133.005062 
L 307.031901 133.005062 
" clip-path="url(#p1de07215da)" style="fill: none; stroke: #000000; stroke-width: 3; stroke-linecap: round"/>
   </g>
   <g id="line2d_7">
    <path d="M 31.976219 158.010124 
L 31.976219 108 
" clip-path="url(#p1de07215da)" style="fill: none; stroke: #000000; stroke-width: 3; stroke-linecap: round"/>
   </g>
   <g id="patch_2">
    <path d="M 332.036963 133.005062 
L 307.031901 139.256327 
L 307.031901 133.130087 
L 31.976219 133.130087 
L 31.976219 132.880037 
L 307.031901 132.880037 
L 307.031901 126.753796 
z
" clip-path="url(#p1de07215da)" style="stroke: #000000; stroke-linejoin: miter"/>
   </g>
  </g>
 </g>
 <defs>
  <clipPath id="p1de07215da">
   <rect x="16.973182" y="52.988864" width="330.066818" height="110.022273"/>
  </clipPath>
 </defs>
</svg>
