<svg width="480" height="144" viewBox="0 0 360 108" xmlns="http://www.w3.org/2000/svg" xmlns:xlink="http://www.w3.org/1999/xlink" stroke-linejoin="round" overflow="hidden"><defs></defs><defs><clipPath id="pf85037a863"><rect x="12.96" y="12.96" width="334.08" height="82.08"/></clipPath></defs><g id="figure_1"><g id="patch_1"><path d="M0 108 360 108 360 0 0 0 0 108Z" fill="none"/></g><g id="axes_1"><g id="patch_2"><path d="M331.855 66.4848 331.836 66.48 331.779 66.4656 331.684 66.4414 331.552 66.4073 331.382 66.3632 331.174 66.3086 330.928 66.2433 330.645 66.1669 330.324 66.0791 329.966 65.9793 329.571 65.8673 329.138 65.7425 328.668 65.6046 328.161 65.4532 327.617 65.288 327.036 65.1085 326.419 64.9146 325.765 64.7062 325.074 64.483 324.348 64.2451 323.586 63.9925 322.787 63.7254 321.954 63.4441 321.085 63.1488 320.18 62.8401 319.241 62.5184 318.267 62.1845 317.259 61.839 316.216 61.4827 315.14 61.1165 314.03 60.7413 312.886 60.3581 311.709 59.9679 310.5 59.5719 309.258 59.1709 307.983 58.7662 306.677 58.3588 305.339 57.9497 303.97 57.54 302.57 57.1305 301.14 56.7221 299.679 56.3158 298.189 55.9122 296.669 55.5121 295.12 55.1159 293.542 54.7241 291.936 54.3373 290.303 53.9555 288.641 53.579 286.953 53.2079 285.238 52.8422 283.496 52.4818 281.729 52.1264 279.937 51.7759 278.119 51.43 276.278 51.0882 274.412 50.7503 272.522 50.4157 270.61 50.084 268.675 49.7548 266.718 49.4278 264.739 49.1024 262.739 48.7783 260.719 48.4552 258.678 48.1329 256.618 47.8111 254.539 47.4898 252.441 47.1689 250.325 46.8485 248.192 46.5288 246.041 46.2099 243.875 45.8922 241.692 45.5762 239.494 45.2622 237.281 44.951 235.053 44.6432 232.812 44.3395 230.558 44.0407 228.292 43.7476 226.013 43.4611 223.722 43.1821 221.421 42.9114 219.11 42.65 216.789 42.3986 214.458 42.1582 212.119 41.9296 209.772 41.7135 207.418 41.5105 205.057 41.3213 202.689 41.1464 200.316 40.9862 197.938 40.8411 195.555 40.7113 193.169 40.5969 190.779 40.498 188.386 40.4144 185.992 40.3461 183.596 40.2928 181.199 40.2541 178.801 40.2296 176.404 40.2188 174.008 40.2211 171.614 40.236 169.221 40.2627 166.831 40.3006 164.445 40.349 162.062 40.4072 159.684 40.4744 157.311 40.5501 154.943 40.6335 152.582 40.7241 150.228 40.8213 147.881 40.9246 145.542 41.0335 143.211 41.1477 140.89 41.2669 138.579 41.3908 136.278 41.5194 133.987 41.6525 131.708 41.7901 129.442 41.9324 127.188 42.0794 124.947 42.2313 122.719 42.3883 120.506 42.5508 118.308 42.719 116.125 42.8932 113.959 43.0738 111.808 43.2611 109.675 43.4555 107.559 43.6572 105.461 43.8665 103.382 44.0837 101.322 44.309 99.281 44.5424 97.2606 44.7841 95.2608 45.0342 93.2821 45.2925 91.325 45.559 89.39 45.8334 87.4776 46.1157 85.5882 46.4055 83.7224 46.7024 81.8806 47.0062 80.0632 47.3162 78.2708 47.6322 76.5037 47.9537 74.7623 48.28 73.0472 48.6109 71.3588 48.9457 69.6974 49.284 68.0636 49.6254 66.4576 49.9695 64.8799 50.316 63.331 50.6645 61.811 51.0148 60.3206 51.3668 58.86 51.7204 57.4295 52.0755 56.0296 52.4321 54.6606 52.7904 53.3229 53.1506 52.0167 53.5129 50.7424 53.8775 49.5003 54.2448 48.2908 54.6151 47.1141 54.9888 45.9704 55.3662 44.8602 55.7477 43.7837 56.1335 42.7411 56.5241 41.7328 56.9194 40.7589 57.3197 39.8196 57.7249 38.9154 58.135 38.0463 58.5497 37.2125 58.9687 36.4144 59.3913 35.652 59.8169 34.9256 60.2447 34.2354 60.6735 33.5815 61.1021 32.9641 61.5292 32.3833 61.9531 31.8393 62.372 31.3322 62.7842 30.8622 63.1875 30.4294 63.5797 30.0338 63.9586 29.6756 64.3218 29.3549 64.6668 29.0717 64.9912 28.8262 65.2925 28.6183 65.5684 28.4481 65.8162 28.3157 66.0339 28.2211 66.2192 28.1644 66.3701 28.1455 66.4848 28.1644 66.7623 28.2211 67.0029 28.3157 67.2078 28.4481 67.3786 28.6183 67.5167 28.8262 67.6238 29.0717 67.7019 29.3549 67.7528 29.6756 67.7786 30.0338 67.7812 30.4294 67.7627 30.8622 67.7251 31.3322 67.6704 31.8393 67.6004 32.3833 67.5171 32.9641 67.4221 33.5815 67.317 34.2354 67.2034 34.9256 67.0826 35.652 66.9559 36.4144 66.8243 37.2125 66.6887 38.0463 66.55 38.9154 66.4087 39.8196 66.2655 40.7589 66.1207 41.7328 65.9745 42.7411 65.827 43.7837 65.6785 44.8602 65.5287 45.9704 65.3776 47.1141 65.2249 48.2908 65.0705 49.5003 64.914 50.7424 64.7551 52.0167 64.5935 53.3229 64.4289 54.6606 64.2608 56.0296 64.089 57.4295 63.913 58.86 63.7327 60.3206 63.5478 61.811 63.3579 63.331 63.1628 64.8799 62.9624 66.4576 62.7566 68.0636 62.545 69.6974 62.3278 71.3588 62.1047 73.0472 61.8757 74.7623 61.6408 76.5037 61.3998 78.2708 61.1529 80.0632 60.8999 81.8806 60.6408 83.7224 60.3756 85.5882 60.1043 87.4776 59.8267 89.39 59.5428 91.325 59.2525 93.2821 58.9558 95.2608 58.6525 97.2606 58.3425 99.281 58.0257 101.322 57.702 103.382 57.3712 105.461 57.0333 107.559 56.6882 109.675 56.3358 111.808 55.9761 113.959 55.609 116.125 55.2348 118.308 54.8535 120.506 54.4652 122.719 54.0703 124.947 53.6691 127.188 53.262 129.442 52.8496 131.708 52.4324 133.987 52.0112 136.278 51.5868 138.579 51.1601 140.89 50.7321 143.211 50.3038 145.542 49.8765 147.881 49.4514 150.228 49.0299 152.582 48.6132 154.943 48.203 157.311 47.8006 159.684 47.4075 162.062 47.0253 164.445 46.6554 166.831 46.2994 169.221 45.9587 171.614 45.6347 174.008 45.3287 176.404 45.042 178.801 44.7758 181.199 44.531 183.596 44.3087 185.992 44.1096 188.386 43.9344 190.779 43.7837 193.169 43.6577 195.555 43.5568 197.938 43.481 200.316 43.4302 202.689 43.4043 205.057 43.4027 207.418 43.425 209.772 43.4705 212.119 43.5386 214.458 43.6282 216.789 43.7385 219.11 43.8683 221.421 44.0167 223.722 44.1823 226.013 44.364 228.292 44.5606 230.558 44.7709 232.812 44.9936 235.053 45.2275 237.281 45.4716 239.494 45.7247 241.692 45.9859 243.875 46.2542 246.041 46.5287 248.192 46.8088 250.325 47.0937 252.441 47.3829 254.539 47.6759 256.618 47.9725 258.678 48.2723 260.719 48.5753 262.739 48.8813 264.739 49.1905 266.718 49.5028 268.675 49.8185 270.61 50.1378 272.522 50.461 274.412 50.7882 276.278 51.1199 278.119 51.4563 279.937 51.7977 281.729 52.1444 283.496 52.4965 285.238 52.8542 286.953 53.2176 288.641 53.5869 290.303 53.9618 291.936 54.3423 293.542 54.7281 295.12 55.119 296.669 55.5145 298.189 55.9141 299.679 56.3173 301.14 56.7233 302.57 57.1313 303.97 57.5406 305.339 57.9502 306.677 58.3592 307.983 58.7665 309.258 59.1711 310.5 59.572 311.709 59.968 312.886 60.3582 314.03 60.7413 315.14 61.1165 316.216 61.4827 317.259 61.839 318.267 62.1845 319.241 62.5184 320.18 62.8401 321.085 63.1488 321.954 63.4441 322.787 63.7254 323.586 63.9925 324.348 64.2451 325.074 64.483 325.765 64.7062 326.419 64.9146 327.036 65.1085 327.617 65.288 328.161 65.4532 328.668 65.6046 329.138 65.7425 329.571 65.8673 329.966 65.9793 330.324 66.0791 330.645 66.1669 330.928 66.2433 331.174 66.3086 331.382 66.3632 331.552 66.4073 331.684 66.4414 331.779 66.4656 331.836 66.48Z" stroke="#FFFFFF" stroke-linejoin="miter" clip-path="url(#pf85037a863)" opacity="0.2"/></g><g id="line2d_1"><path d="M331.855 66.4848 328.161 65.4532 322.787 63.7254 305.339 57.9497 298.189 55.9122 291.936 54.3373 285.238 52.8422 276.278 51.0882 264.739 49.1024 248.192 46.5288 232.812 44.3395 221.421 42.9114 212.119 41.9296 202.689 41.1464 193.169 40.5969 183.596 40.2928 174.008 40.2211 164.445 40.349 152.582 40.7241 138.579 41.3908 124.947 42.2313 111.808 43.2611 101.322 44.309 91.325 45.559 81.8806 47.0062 73.0472 48.6109 64.8799 50.316 57.4295 52.0755 50.7424 53.8775 45.9704 55.3662 41.7328 56.9194 38.0463 58.5497 35.652 59.8169 33.5815 61.1021 31.3322 62.7842 29.6756 64.3218 28.6183 65.5684 28.1644 66.3701 28.1644 66.7623 28.3157 67.2078 28.6183 67.5167 29.0717 67.7019 30.0338 67.7812 31.8393 67.6004 39.8196 66.2655 48.2908 65.0705 83.7224 60.3756 99.281 58.0257 113.959 55.609 131.708 52.4324 157.311 47.8006 166.831 46.2994 176.404 45.042 183.596 44.3087 190.779 43.7837 197.938 43.481 205.057 43.4027 212.119 43.5386 219.11 43.8683 228.292 44.5606 237.281 45.4716 248.192 46.8088 260.719 48.5753 272.522 50.461 281.729 52.1444 290.303 53.9618 296.669 55.5145 303.97 57.5406 311.709 59.968 331.174 66.3086 331.855 66.4848 331.855 66.4848" stroke="#000000" stroke-width="1.5" stroke-linecap="round" fill="none" clip-path="url(#pf85037a863)"/></g></g></g></svg>