<svg width="508.8" height="480" viewBox="0 0 381.6 360" xmlns="http://www.w3.org/2000/svg" xmlns:xlink="http://www.w3.org/1999/xlink" stroke-linejoin="round" overflow="hidden"><defs></defs><defs><clipPath id="p010b2b0c07"><rect x="65.0279" y="64.8364" width="282.779" height="113.112"/></clipPath><clipPath id="p13b28a3590"><rect x="65.0279" y="217.84" width="282.779" height="113.112"/></clipPath></defs><g id="figure_1"><g id="patch_1"><path d="M0 360 381.6 360 381.6 0 0 0Z" fill="#FFFFFF"/></g><g id="axes_1"><g id="patch_2"><path d="M65.0279 177.948 347.807 177.948 347.807 64.8364 65.0279 64.8364Z" fill="#EAEAF2"/></g><g id="matplotlib.axis_1"><g id="xtick_1"><g id="line2d_1"><path d="M77.8815 177.948 77.8815 64.8364" stroke="#FFFFFF" stroke-width="1.6" stroke-linecap="round" fill="none" clip-path="url(#p010b2b0c07)"/></g><g id="text_1"><g fill="#262626" transform="matrix(0.11 0 0 -0.11 70.2365 195.322)"><defs><path d="M266 2259C266 2801 321.667 3237 433 3567 544.333 3897.67 709.667 4152.33 929 4331 1149 4510.33 1425.67 4600 1759 4600 2005 4600 2220.67 4550.33 2406 4451 2591.33 4352.33 2744.33 4209.67 2865 4023 2986.33 3837 3081.33 3610 3150 3342 3218.67 3074.67 3253 2713.67 3253 2259 3253 1721.67 3197.67 1288 3087 958 2977 628 2812 372.667 2592 192 2372.67 12 2095-78 1759-78 1317.67-78 971 80.3333 719 397 417 778.333 266 1399 266 2259ZM844 2259C844 1507 932 1006.33 1108 757 1284 508.333 1501 384 1759 384 2017.67 384 2235 509 2411 759 2587 1009 2675 1509 2675 2259 2675 3013.67 2587 3514.67 2411 3762 2235 4010 2015.67 4134 1753 4134 1495 4134 1288.67 4024.67 1134 3806 940.667 3527.33 844 3011.67 844 2259Z" id="ArialMT-30" transform="scale(0.015625 0.015625)"/><path d="M581 0 581 641 1222 641 1222 0 581 0Z" id="ArialMT-2e" transform="scale(0.015625 0.015625)"/></defs><use width="100%" height="100%" xlink:href="#ArialMT-30"></use><use x="55.6152" width="100%" height="100%" xlink:href="#ArialMT-2e"></use><use x="83.3984" width="100%" height="100%" xlink:href="#ArialMT-30"></use></g></g></g><g id="xtick_2"><g id="line2d_2"><path d="M129.296 177.948 129.296 64.8364" stroke="#FFFFFF" stroke-width="1.6" stroke-linecap="round" fill="none" clip-path="url(#p010b2b0c07)"/></g><g id="text_2"><g fill="#262626" transform="matrix(0.11 0 0 -0.11 121.651 195.322)"><defs><path d="M3222 541 3222 0 194 0C190 135.333 211.667 265.667 259 391 336.333 597 459.667 800 629 1000 799 1200 1044.67 1431.33 1366 1694 1864 2102 2200.33 2425.33 2375 2664 2550.33 2902.67 2638 3128.33 2638 3341 2638 3563.67 2558 3751.33 2398 3904 2238.67 4057.33 2031 4134 1775 4134 1504.33 4134 1287.67 4052.67 1125 3890 962.333 3728 880 3503.33 878 3216L300 3275C339.333 3706.33 488 4035 746 4261 1004.67 4487 1352 4600 1788 4600 2227.33 4600 2575 4478 2831 4234 3087.67 3990.67 3216 3688.67 3216 3328 3216 3144.67 3178.33 2964.33 3103 2787 3028.33 2610.33 2904 2424 2730 2228 2556 2032 2267 1763.33 1863 1422 1525 1138.67 1308 946.333 1212 845 1116.67 744.333 1037.67 643 975 541L3222 541Z" id="ArialMT-32" transform="scale(0.015625 0.015625)"/></defs><use width="100%" height="100%" xlink:href="#ArialMT-30"></use><use x="55.6152" width="100%" height="100%" xlink:href="#ArialMT-2e"></use><use x="83.3984" width="100%" height="100%" xlink:href="#ArialMT-32"></use></g></g></g><g id="xtick_3"><g id="line2d_3"><path d="M180.71 177.948 180.71 64.8364" stroke="#FFFFFF" stroke-width="1.6" stroke-linecap="round" fill="none" clip-path="url(#p010b2b0c07)"/></g><g id="text_3"><g fill="#262626" transform="matrix(0.11 0 0 -0.11 173.065 195.322)"><defs><path d="M2069 0 2069 1097 81 1097 81 1613 2172 4581 2631 4581 2631 1613 3250 1613 3250 1097 2631 1097 2631 0 2069 0ZM2069 1613 2069 3678 634 1613 2069 1613Z" id="ArialMT-34" transform="scale(0.015625 0.015625)"/></defs><use width="100%" height="100%" xlink:href="#ArialMT-30"></use><use x="55.6152" width="100%" height="100%" xlink:href="#ArialMT-2e"></use><use x="83.3984" width="100%" height="100%" xlink:href="#ArialMT-34"></use></g></g></g><g id="xtick_4"><g id="line2d_4"><path d="M232.125 177.948 232.125 64.8364" stroke="#FFFFFF" stroke-width="1.6" stroke-linecap="round" fill="none" clip-path="url(#p010b2b0c07)"/></g><g id="text_4"><g fill="#262626" transform="matrix(0.11 0 0 -0.11 224.48 195.322)"><defs><path d="M3184 3459 2625 3416C2575 3636.67 2504.33 3797 2413 3897 2260.33 4057.67 2072.67 4138 1850 4138 1670.67 4138 1513.33 4088 1378 3988 1201.33 3858.67 1061.67 3670 959 3422 857 3174 804 2821 800 2363 935.333 2569 1101 2722 1297 2822 1493 2922 1698.33 2972 1913 2972 2287.67 2972 2606.67 2834 2870 2558 3134 2282 3266 1925.33 3266 1488 3266 1200 3204 932.667 3080 686 2956 439.333 2785.67 250.333 2569 119 2352.33-12.3333 2106.33-78 1831-78 1362.33-78 980 94.3333 684 439 388.667 783.667 241 1352 241 2144 241 3029.33 404.333 3673 731 4075 1016.33 4425 1400.67 4600 1884 4600 2244.67 4600 2540 4499 2770 4297 3000.67 4095 3138.67 3815.67 3184 3459ZM888 1484C888 1290.67 929 1105.33 1011 928 1093 751.333 1208 616.333 1356 523 1504 430.333 1659.33 384 1822 384 2059.33 384 2263.33 479.667 2434 671 2605.33 863 2691 1123.67 2691 1453 2691 1769.67 2606.33 2019 2437 2201 2268.33 2383.67 2056 2475 1800 2475 1546 2475 1330.33 2383.67 1153 2201 976.333 2019 888 1780 888 1484Z" id="ArialMT-36" transform="scale(0.015625 0.015625)"/></defs><use width="100%" height="100%" xlink:href="#ArialMT-30"></use><use x="55.6152" width="100%" height="100%" xlink:href="#ArialMT-2e"></use><use x="83.3984" width="100%" height="100%" xlink:href="#ArialMT-36"></use></g></g></g><g id="xtick_5"><g id="line2d_5"><path d="M283.539 177.948 283.539 64.8364" stroke="#FFFFFF" stroke-width="1.6" stroke-linecap="round" fill="none" clip-path="url(#p010b2b0c07)"/></g><g id="text_5"><g fill="#262626" transform="matrix(0.11 0 0 -0.11 275.894 195.322)"><defs><path d="M1131 2484C897.667 2570 724.667 2692 612 2850 500 3008.67 444 3198.33 444 3419 444 3752.33 563.667 4032.33 803 4259 1043 4486.33 1361.67 4600 1759 4600 2159 4600 2481 4483.67 2725 4251 2969 4019 3091 3736.33 3091 3403 3091 3190.33 3035 3005.33 2923 2848 2811.67 2691.33 2642.67 2570 2416 2484 2697.33 2392.67 2911.33 2244.67 3058 2040 3204.67 1836 3278 1592.33 3278 1309 3278 917.667 3139.33 588.667 2862 322 2585.33 55.3333 2221-78 1769-78 1317-78 952.333 55.6667 675 323 397.667 591 259 925 259 1325 259 1623 334.667 1872.33 486 2073 637.333 2274.33 852.333 2411.33 1131 2484ZM1019 3438C1019 3221.33 1088.67 3044 1228 2906 1368 2768.67 1549.33 2700 1772 2700 1988.67 2700 2166.33 2768 2305 2904 2443.67 3040.67 2513 3208 2513 3406 2513 3612.67 2441.33 3786.33 2298 3927 2155.33 4067.67 1978 4138 1766 4138 1551.33 4138 1373 4069 1231 3931 1089.67 3793.67 1019 3629.33 1019 3438ZM838 1322C838 1161.33 876 1006 952 856 1028 706 1141 589.667 1291 507 1441 425 1602.33 384 1775 384 2043.67 384 2265.33 470.333 2440 643 2615.33 816.333 2703 1036.33 2703 1303 2703 1573.67 2613 1797.67 2433 1975 2253 2152.33 2027.33 2241 1756 2241 1491.33 2241 1272 2153.33 1098 1978 924.667 1803.33 838 1584.67 838 1322Z" id="ArialMT-38" transform="scale(0.015625 0.015625)"/></defs><use width="100%" height="100%" xlink:href="#ArialMT-30"></use><use x="55.6152" width="100%" height="100%" xlink:href="#ArialMT-2e"></use><use x="83.3984" width="100%" height="100%" xlink:href="#ArialMT-38"></use></g></g></g><g id="xtick_6"><g id="line2d_6"><path d="M334.954 177.948 334.954 64.8364" stroke="#FFFFFF" stroke-width="1.6" stroke-linecap="round" fill="none" clip-path="url(#p010b2b0c07)"/></g><g id="text_6"><g fill="#262626" transform="matrix(0.11 0 0 -0.11 327.309 195.322)"><defs><path d="M2384 0 1822 0 1822 3584C1686.67 3455.33 1509 3326.33 1289 3197 1069 3067.67 871.667 2970.67 697 2906L697 3450C1011.67 3598 1286.67 3777 1522 3987 1757.33 4197.67 1924 4402 2022 4600L2384 4600 2384 0Z" id="ArialMT-31" transform="scale(0.015625 0.015625)"/></defs><use width="100%" height="100%" xlink:href="#ArialMT-31"></use><use x="55.6152" width="100%" height="100%" xlink:href="#ArialMT-2e"></use><use x="83.3984" width="100%" height="100%" xlink:href="#ArialMT-30"></use></g></g></g><g id="xtick_7"><g id="line2d_7"><path d="M90.7351 177.948 90.7351 64.8364" stroke="#FFFFFF" stroke-width="0.7" stroke-linecap="round" fill="none" clip-path="url(#p010b2b0c07)"/></g></g><g id="xtick_8"><g id="line2d_8"><path d="M103.589 177.948 103.589 64.8364" stroke="#FFFFFF" stroke-width="0.7" stroke-linecap="round" fill="none" clip-path="url(#p010b2b0c07)"/></g></g><g id="xtick_9"><g id="line2d_9"><path d="M116.442 177.948 116.442 64.8364" stroke="#FFFFFF" stroke-width="0.7" stroke-linecap="round" fill="none" clip-path="url(#p010b2b0c07)"/></g></g><g id="xtick_10"><g id="line2d_10"><path d="M142.149 177.948 142.149 64.8364" stroke="#FFFFFF" stroke-width="0.7" stroke-linecap="round" fill="none" clip-path="url(#p010b2b0c07)"/></g></g><g id="xtick_11"><g id="line2d_11"><path d="M155.003 177.948 155.003 64.8364" stroke="#FFFFFF" stroke-width="0.7" stroke-linecap="round" fill="none" clip-path="url(#p010b2b0c07)"/></g></g><g id="xtick_12"><g id="line2d_12"><path d="M167.857 177.948 167.857 64.8364" stroke="#FFFFFF" stroke-width="0.7" stroke-linecap="round" fill="none" clip-path="url(#p010b2b0c07)"/></g></g><g id="xtick_13"><g id="line2d_13"><path d="M193.564 177.948 193.564 64.8364" stroke="#FFFFFF" stroke-width="0.7" stroke-linecap="round" fill="none" clip-path="url(#p010b2b0c07)"/></g></g><g id="xtick_14"><g id="line2d_14"><path d="M206.417 177.948 206.417 64.8364" stroke="#FFFFFF" stroke-width="0.7" stroke-linecap="round" fill="none" clip-path="url(#p010b2b0c07)"/></g></g><g id="xtick_15"><g id="line2d_15"><path d="M219.271 177.948 219.271 64.8364" stroke="#FFFFFF" stroke-width="0.7" stroke-linecap="round" fill="none" clip-path="url(#p010b2b0c07)"/></g></g><g id="xtick_16"><g id="line2d_16"><path d="M244.978 177.948 244.978 64.8364" stroke="#FFFFFF" stroke-width="0.7" stroke-linecap="round" fill="none" clip-path="url(#p010b2b0c07)"/></g></g><g id="xtick_17"><g id="line2d_17"><path d="M257.832 177.948 257.832 64.8364" stroke="#FFFFFF" stroke-width="0.7" stroke-linecap="round" fill="none" clip-path="url(#p010b2b0c07)"/></g></g><g id="xtick_18"><g id="line2d_18"><path d="M270.686 177.948 270.686 64.8364" stroke="#FFFFFF" stroke-width="0.7" stroke-linecap="round" fill="none" clip-path="url(#p010b2b0c07)"/></g></g><g id="xtick_19"><g id="line2d_19"><path d="M296.393 177.948 296.393 64.8364" stroke="#FFFFFF" stroke-width="0.7" stroke-linecap="round" fill="none" clip-path="url(#p010b2b0c07)"/></g></g><g id="xtick_20"><g id="line2d_20"><path d="M309.246 177.948 309.246 64.8364" stroke="#FFFFFF" stroke-width="0.7" stroke-linecap="round" fill="none" clip-path="url(#p010b2b0c07)"/></g></g><g id="xtick_21"><g id="line2d_21"><path d="M322.1 177.948 322.1 64.8364" stroke="#FFFFFF" stroke-width="0.7" stroke-linecap="round" fill="none" clip-path="url(#p010b2b0c07)"/></g></g></g><g id="matplotlib.axis_2"><g id="ytick_1"><g id="line2d_22"><path d="M65.0279 157.382 347.807 157.382" stroke="#FFFFFF" stroke-width="1.6" stroke-linecap="round" fill="none" clip-path="url(#p010b2b0c07)"/></g><g id="text_7"><g fill="#262626" transform="matrix(0.11 0 0 -0.11 33.8132 161.319)"><defs><path d="M3381 1997 356 1997 356 2522 3381 2522 3381 1997Z" id="ArialMT-2212" transform="scale(0.015625 0.015625)"/></defs><use width="100%" height="100%" xlink:href="#ArialMT-2212"></use><use x="58.3984" width="100%" height="100%" xlink:href="#ArialMT-30"></use><use x="114.014" width="100%" height="100%" xlink:href="#ArialMT-2e"></use><use x="141.797" width="100%" height="100%" xlink:href="#ArialMT-31"></use></g></g></g><g id="ytick_2"><g id="line2d_23"><path d="M65.0279 131.675 347.807 131.675" stroke="#FFFFFF" stroke-width="1.6" stroke-linecap="round" fill="none" clip-path="url(#p010b2b0c07)"/></g><g id="text_8"><g fill="#262626" transform="matrix(0.11 0 0 -0.11 40.2379 135.612)"><use width="100%" height="100%" xlink:href="#ArialMT-30"></use><use x="55.6152" width="100%" height="100%" xlink:href="#ArialMT-2e"></use><use x="83.3984" width="100%" height="100%" xlink:href="#ArialMT-30"></use></g></g></g><g id="ytick_3"><g id="line2d_24"><path d="M65.0279 105.968 347.807 105.968" stroke="#FFFFFF" stroke-width="1.6" stroke-linecap="round" fill="none" clip-path="url(#p010b2b0c07)"/></g><g id="text_9"><g fill="#262626" transform="matrix(0.11 0 0 -0.11 40.2379 109.905)"><use width="100%" height="100%" xlink:href="#ArialMT-30"></use><use x="55.6152" width="100%" height="100%" xlink:href="#ArialMT-2e"></use><use x="83.3984" width="100%" height="100%" xlink:href="#ArialMT-31"></use></g></g></g><g id="ytick_4"><g id="line2d_25"><path d="M65.0279 80.2607 347.807 80.2607" stroke="#FFFFFF" stroke-width="1.6" stroke-linecap="round" fill="none" clip-path="url(#p010b2b0c07)"/></g><g id="text_10"><g fill="#262626" transform="matrix(0.11 0 0 -0.11 40.2379 84.1975)"><use width="100%" height="100%" xlink:href="#ArialMT-30"></use><use x="55.6152" width="100%" height="100%" xlink:href="#ArialMT-2e"></use><use x="83.3984" width="100%" height="100%" xlink:href="#ArialMT-32"></use></g></g></g><g id="ytick_5"><g id="line2d_26"><path d="M65.0279 172.807 347.807 172.807" stroke="#FFFFFF" stroke-width="0.7" stroke-linecap="round" fill="none" clip-path="url(#p010b2b0c07)"/></g></g><g id="ytick_6"><g id="line2d_27"><path d="M65.0279 167.665 347.807 167.665" stroke="#FFFFFF" stroke-width="0.7" stroke-linecap="round" fill="none" clip-path="url(#p010b2b0c07)"/></g></g><g id="ytick_7"><g id="line2d_28"><path d="M65.0279 162.524 347.807 162.524" stroke="#FFFFFF" stroke-width="0.7" stroke-linecap="round" fill="none" clip-path="url(#p010b2b0c07)"/></g></g><g id="ytick_8"><g id="line2d_29"><path d="M65.0279 152.241 347.807 152.241" stroke="#FFFFFF" stroke-width="0.7" stroke-linecap="round" fill="none" clip-path="url(#p010b2b0c07)"/></g></g><g id="ytick_9"><g id="line2d_30"><path d="M65.0279 147.099 347.807 147.099" stroke="#FFFFFF" stroke-width="0.7" stroke-linecap="round" fill="none" clip-path="url(#p010b2b0c07)"/></g></g><g id="ytick_10"><g id="line2d_31"><path d="M65.0279 141.958 347.807 141.958" stroke="#FFFFFF" stroke-width="0.7" stroke-linecap="round" fill="none" clip-path="url(#p010b2b0c07)"/></g></g><g id="ytick_11"><g id="line2d_32"><path d="M65.0279 136.817 347.807 136.817" stroke="#FFFFFF" stroke-width="0.7" stroke-linecap="round" fill="none" clip-path="url(#p010b2b0c07)"/></g></g><g id="ytick_12"><g id="line2d_33"><path d="M65.0279 126.534 347.807 126.534" stroke="#FFFFFF" stroke-width="0.7" stroke-linecap="round" fill="none" clip-path="url(#p010b2b0c07)"/></g></g><g id="ytick_13"><g id="line2d_34"><path d="M65.0279 121.392 347.807 121.392" stroke="#FFFFFF" stroke-width="0.7" stroke-linecap="round" fill="none" clip-path="url(#p010b2b0c07)"/></g></g><g id="ytick_14"><g id="line2d_35"><path d="M65.0279 116.251 347.807 116.251" stroke="#FFFFFF" stroke-width="0.7" stroke-linecap="round" fill="none" clip-path="url(#p010b2b0c07)"/></g></g><g id="ytick_15"><g id="line2d_36"><path d="M65.0279 111.109 347.807 111.109" stroke="#FFFFFF" stroke-width="0.7" stroke-linecap="round" fill="none" clip-path="url(#p010b2b0c07)"/></g></g><g id="ytick_16"><g id="line2d_37"><path d="M65.0279 100.826 347.807 100.826" stroke="#FFFFFF" stroke-width="0.7" stroke-linecap="round" fill="none" clip-path="url(#p010b2b0c07)"/></g></g><g id="ytick_17"><g id="line2d_38"><path d="M65.0279 95.685 347.807 95.685" stroke="#FFFFFF" stroke-width="0.7" stroke-linecap="round" fill="none" clip-path="url(#p010b2b0c07)"/></g></g><g id="ytick_18"><g id="line2d_39"><path d="M65.0279 90.5436 347.807 90.5436" stroke="#FFFFFF" stroke-width="0.7" stroke-linecap="round" fill="none" clip-path="url(#p010b2b0c07)"/></g></g><g id="ytick_19"><g id="line2d_40"><path d="M65.0279 85.4021 347.807 85.4021" stroke="#FFFFFF" stroke-width="0.7" stroke-linecap="round" fill="none" clip-path="url(#p010b2b0c07)"/></g></g><g id="ytick_20"><g id="line2d_41"><path d="M65.0279 75.1193 347.807 75.1193" stroke="#FFFFFF" stroke-width="0.7" stroke-linecap="round" fill="none" clip-path="url(#p010b2b0c07)"/></g></g><g id="ytick_21"><g id="line2d_42"><path d="M65.0279 69.9778 347.807 69.9778" stroke="#FFFFFF" stroke-width="0.7" stroke-linecap="round" fill="none" clip-path="url(#p010b2b0c07)"/></g></g><g id="ytick_22"><g id="line2d_43"><path d="M65.0279 64.8364 347.807 64.8364" stroke="#FFFFFF" stroke-width="0.7" stroke-linecap="round" fill="none" clip-path="url(#p010b2b0c07)"/></g></g></g><g id="patch_3"><path d="M334.954 131.675 331.479 131.023 327.243 130.232 321.554 129.093 314.03 127.464 306.153 125.617 298.437 123.673 290.724 121.61 282.968 119.437 275.146 117.172 267.242 114.836 259.285 112.462 251.462 110.153 243.805 107.972 236.306 105.97 228.932 104.192 221.621 102.668 214.305 101.399 206.944 100.369 199.534 99.5699 192.092 98.9989 184.632 98.6584 177.158 98.5513 169.68 98.6718 162.215 99.016 154.784 99.5921 147.4 100.4 140.077 101.447 132.841 102.74 125.727 104.284 118.78 106.086 112.055 108.146 105.623 110.462 99.5803 113.021 94.046 115.787 89.1841 118.683 85.1731 121.572 82.1222 124.29 80.0133 126.705 78.7277 128.727 78.0761 130.353 77.8815 131.675 78.0079 132.571 78.3986 133.328 79.0164 133.935 79.9602 134.426 81.51 134.856 84.1985 135.243 88.5374 135.503 94.5642 135.548 101.688 135.393 109.395 135.092 117.388 134.695 125.538 134.237 133.782 133.745 142.082 133.235 150.42 132.719 158.759 132.207 167.076 131.706 175.373 131.225 183.65 130.766 191.907 130.338 200.146 129.944 208.365 129.589 216.564 129.283 224.75 129.031 232.925 128.836 241.092 128.701 249.255 128.625 257.415 128.608 265.57 128.649 273.716 128.746 281.848 128.905 289.965 129.13 298.08 129.424 306.246 129.79 314.392 130.232 321.584 130.681 327.152 131.071 331.427 131.398Z" stroke="#FFFFFF" stroke-linejoin="miter" clip-path="url(#p010b2b0c07)" opacity="0.2"/></g><g id="line2d_44"><path d="M334.954 131.661 332.654 129.123 330.352 126.838 327.954 124.709 325.072 122.459 322.599 120.772 319.866 119.142 316.878 117.611 313.642 116.208 310.166 114.954 306.458 113.855 302.525 112.904 296.947 111.837 291.008 110.94 279.819 109.549 264.138 107.573 251.12 105.672 223.614 101.519 213.516 100.281 205.403 99.4918 197.294 98.9107 189.221 98.5511 181.217 98.4151 173.313 98.499 165.542 98.797 157.933 99.3046 150.517 100.019 143.325 100.937 136.383 102.055 129.721 103.365 123.365 104.855 117.34 106.504 111.67 108.292 106.377 110.193 101.484 112.186 97.0085 114.25 92.9693 116.369 89.3824 118.525 86.2619 120.698 83.6205 122.862 81.4686 124.979 80.1811 126.509 79.1767 127.965 78.4577 129.325 78.0256 130.567 77.8815 131.675 78.0256 132.595 78.4577 133.367 79.1767 133.997 80.1811 134.496 81.4686 134.876 83.6205 135.228 86.9976 135.47 92.0296 135.552 100.325 135.413 111.67 134.981 126.503 134.192 199.319 129.985 217.564 129.254 233.605 128.821 249.212 128.619 264.138 128.635 279.819 128.868 295.495 129.324 310.166 129.984 323.453 130.811 334.954 131.689 334.954 131.689" stroke="#FFA500" stroke-width="1.5" stroke-linecap="round" stroke-opacity="0.7" fill="none" clip-path="url(#p010b2b0c07)"/></g><g id="line2d_45"><path d="M334.954 131.661 333.02 131.24 330.875 130.545 328.6 129.59 325.837 128.19 322.599 126.294 317.902 123.231 301.165 111.921 296.947 109.381 292.525 106.944 287.911 104.665 283.114 102.588 278.144 100.744 273.014 99.1531 267.735 97.8218 262.318 96.746 256.775 95.9128 251.12 95.3026 245.365 94.8912 237.557 94.6068 229.625 94.5665 219.584 94.7714 207.432 95.2689 191.234 96.1844 175.278 97.304 163.623 98.3144 154.199 99.3241 145.1 100.536 138.094 101.676 131.359 102.98 124.924 104.448 118.814 106.07 113.053 107.83 107.664 109.707 102.669 111.68 98.0871 113.728 93.9373 115.835 90.2359 117.983 86.9976 120.155 84.2354 122.324 81.9602 124.457 80.1811 126.509 79.1767 127.965 78.4577 129.325 78.0256 130.567 77.8815 131.675 78.0256 132.595 78.4577 133.367 79.1767 133.997 80.1811 134.496 81.4686 134.876 83.6205 135.228 86.9976 135.47 92.0296 135.552 100.325 135.413 111.67 134.981 126.503 134.192 199.319 129.985 217.564 129.254 233.605 128.821 249.212 128.619 264.138 128.635 279.819 128.868 295.495 129.324 310.166 129.984 323.453 130.811 334.954 131.689 334.954 131.689" stroke="#F1A812" stroke-width="1.5" stroke-linecap="round" stroke-opacity="0.7" fill="none" clip-path="url(#p010b2b0c07)"/></g><g id="line2d_46"><path d="M334.954 131.661 329.799 130.714 325.837 129.782 321.717 128.574 317.902 127.219 313.642 125.434 310.166 123.771 306.458 121.807 301.165 118.713 295.495 115.1 287.911 109.979 276.452 102.206 271.27 98.8905 265.944 95.7207 260.484 92.789 256.775 91.0091 253.017 89.3948 249.212 87.9647 245.365 86.7334 241.478 85.7115 237.557 84.9051 233.605 84.3158 229.625 83.9406 225.623 83.7724 221.601 83.8004 217.564 84.0102 213.516 84.3847 207.432 85.2131 201.346 86.2989 193.251 88.0244 181.217 90.8978 161.715 95.584 126.503 103.787 118.814 105.947 113.053 107.772 107.664 109.682 102.669 111.67 98.0871 113.725 93.9373 115.834 90.2359 117.983 86.9976 120.155 84.2354 122.324 81.9602 124.457 80.1811 126.509 79.1767 127.965 78.4577 129.325 78.0256 130.567 77.8815 131.675 78.0256 132.595 78.4577 133.367 79.1767 133.997 80.1811 134.496 81.4686 134.876 83.6205 135.228 86.9976 135.47 92.0296 135.552 100.325 135.413 111.67 134.981 126.503 134.192 199.319 129.985 217.564 129.254 233.605 128.821 249.212 128.619 264.138 128.635 279.819 128.868 295.495 129.324 310.166 129.984 323.453 130.811 334.954 131.689 334.954 131.689" stroke="#E3AB24" stroke-width="1.5" stroke-linecap="round" stroke-opacity="0.7" fill="none" clip-path="url(#p010b2b0c07)"/></g><g id="line2d_47"><path d="M334.954 131.661 328.6 130.522 321.717 129.075 315.827 127.644 310.166 126.049 305.171 124.418 299.782 122.386 295.495 120.548 291.008 118.407 286.332 115.943 281.476 113.147 276.452 110.032 269.51 105.438 247.293 90.2953 241.478 86.7425 237.557 84.5498 233.605 82.5368 229.625 80.7337 225.623 79.1664 221.601 77.8564 217.564 76.8196 213.516 76.066 209.461 75.5996 205.403 75.4182 201.346 75.514 197.294 75.8735 193.251 76.4786 189.221 77.3071 185.208 78.3336 181.217 79.5307 175.278 81.5832 169.409 83.8579 161.715 87.0793 134.691 98.6524 121.827 103.753 107.664 109.371 101.484 112.054 97.0085 114.195 92.9693 116.349 89.3824 118.519 86.2619 120.697 83.6205 122.862 81.4686 124.979 80.1811 126.509 79.1767 127.965 78.4577 129.325 78.0256 130.567 77.8815 131.675 78.0256 132.595 78.4577 133.367 79.1767 133.997 80.1811 134.496 81.4686 134.876 83.6205 135.228 86.9976 135.47 92.0296 135.552 100.325 135.413 111.67 134.981 126.503 134.192 199.319 129.985 217.564 129.254 233.605 128.821 249.212 128.619 264.138 128.635 279.819 128.868 295.495 129.324 310.166 129.984 323.453 130.811 334.954 131.689 334.954 131.689" stroke="#D5AE36" stroke-width="1.5" stroke-linecap="round" stroke-opacity="0.7" fill="none" clip-path="url(#p010b2b0c07)"/></g><g id="line2d_48"><path d="M334.954 131.661 328.6 130.525 319.866 128.723 310.166 126.489 302.525 124.52 295.495 122.479 289.47 120.504 283.114 118.152 278.144 116.101 273.014 113.778 267.735 111.17 262.318 108.273 256.775 105.1 249.212 100.491 237.557 93.0319 227.626 86.7233 221.601 83.1055 215.541 79.748 211.489 77.7086 207.432 75.8643 203.374 74.2438 199.319 72.872 195.271 71.7705 191.234 70.9559 187.212 70.4401 183.21 70.2297 179.23 70.3254 175.278 70.7227 171.357 71.4115 167.47 72.3767 163.623 73.5986 159.818 75.0534 156.06 76.7138 152.351 78.5504 146.891 81.5668 141.565 84.801 134.691 89.2718 110.31 105.489 101.484 110.882 92.0296 116.64 87.763 119.529 84.8806 121.757 82.4828 123.923 80.5789 126.005 79.4799 127.489 78.6655 128.883 78.1377 130.167 77.8975 131.321 77.9456 132.305 78.2817 133.126 78.9052 133.803 79.8147 134.343 81.0081 134.761 83.0363 135.155 85.5562 135.396 89.3824 135.535 95.9572 135.513 105.116 135.256 118.814 134.624 139.821 133.379 181.217 130.897 203.374 129.804 221.601 129.125 237.557 128.748 253.017 128.604 269.51 128.69 284.732 128.986 299.782 129.492 313.642 130.179 327.279 131.089 334.954 131.689 334.954 131.689" stroke="#C7B148" stroke-width="1.5" stroke-linecap="round" stroke-opacity="0.7" fill="none" clip-path="url(#p010b2b0c07)"/></g><g id="line2d_49"><path d="M334.954 131.661 328.6 130.525 319.866 128.728 308.955 126.252 298.376 123.623 289.47 121.191 281.476 118.802 273.014 116.032 265.944 113.511 258.636 110.703 251.12 107.595 243.426 104.188 235.584 100.492 225.623 95.5113 213.516 89.1557 197.294 80.63 191.234 77.6489 185.208 74.9175 181.217 73.2819 177.251 71.8278 173.313 70.5831 169.409 69.5742 165.542 68.8255 161.715 68.3579 157.933 68.1886 154.199 68.33 150.517 68.7889 146.891 69.5666 143.325 70.6579 139.821 72.0514 136.383 73.7298 133.016 75.6698 129.721 77.843 126.503 80.2168 123.365 82.7549 118.814 86.7861 114.459 90.9677 108.975 96.5564 91.1184 115.078 82.4828 123.721 80.5789 125.949 79.1767 127.956 78.4577 129.323 78.0256 130.567 77.8815 131.675 78.0256 132.595 78.4577 133.367 79.1767 133.997 80.1811 134.496 81.4686 134.876 83.6205 135.228 86.9976 135.47 92.0296 135.552 100.325 135.413 111.67 134.981 126.503 134.192 199.319 129.985 217.564 129.254 233.605 128.821 249.212 128.619 264.138 128.635 279.819 128.868 295.495 129.324 310.166 129.984 323.453 130.811 334.954 131.689 334.954 131.689" stroke="#B9B35A" stroke-width="1.5" stroke-linecap="round" stroke-opacity="0.7" fill="none" clip-path="url(#p010b2b0c07)"/></g><g id="line2d_50"><path d="M334.954 131.661 328.6 130.525 319.866 128.728 308.955 126.256 298.376 123.652 287.911 120.855 276.452 117.543 262.318 113.184 213.516 97.6654 201.346 93.5848 191.234 89.9355 181.217 86.0346 169.409 81.1375 157.933 76.376 152.351 74.2401 146.891 72.3971 143.325 71.3829 139.821 70.5764 136.383 70.007 133.016 69.7018 129.721 69.6844 126.503 69.9741 123.365 70.5853 120.31 71.5263 117.34 72.7991 114.459 74.3992 111.67 76.3149 108.975 78.5279 106.377 81.0136 103.88 83.7412 101.484 86.6745 99.1927 89.7732 95.9572 94.635 92.9693 99.6142 89.3824 106.165 85.5562 113.733 81.0081 123.28 78.6655 128.587 78.0256 130.543 77.8815 131.675 78.0256 132.595 78.4577 133.367 79.1767 133.997 80.1811 134.496 81.4686 134.876 83.6205 135.228 86.9976 135.47 92.0296 135.552 100.325 135.413 111.67 134.981 126.503 134.192 199.319 129.985 217.564 129.254 233.605 128.821 249.212 128.619 264.138 128.635 279.819 128.868 295.495 129.324 310.166 129.984 323.453 130.811 334.954 131.689 334.954 131.689" stroke="#ABB66C" stroke-width="1.5" stroke-linecap="round" stroke-opacity="0.7" fill="none" clip-path="url(#p010b2b0c07)"/></g><g id="line2d_51"><path d="M334.954 131.661 328.6 130.525 319.866 128.728 308.955 126.257 298.376 123.653 287.911 120.864 276.452 117.58 239.522 106.731 231.618 104.707 223.614 102.857 215.541 101.204 207.432 99.7486 197.294 98.1639 165.542 93.5101 157.933 92.0805 150.517 90.4401 143.325 88.5779 136.383 86.5166 129.721 84.3171 110.31 77.7118 106.377 76.7561 103.88 76.3402 101.484 76.1354 99.1927 76.1706 97.0085 76.4733 94.9333 77.0691 92.9693 77.9806 91.1184 79.2267 89.3824 80.8221 87.763 82.7764 86.2619 85.0932 84.8806 87.7704 83.6205 90.7989 82.4828 94.1632 81.4686 97.8412 80.5789 101.804 79.8147 106.017 79.1767 110.44 78.4577 117.371 78.0256 124.507 77.8815 131.675 78.0256 132.595 78.4577 133.367 79.1767 133.997 80.1811 134.496 81.4686 134.876 83.6205 135.228 86.9976 135.47 92.0296 135.552 100.325 135.413 111.67 134.981 126.503 134.192 199.319 129.985 217.564 129.254 233.605 128.821 249.212 128.619 264.138 128.635 279.819 128.868 295.495 129.324 310.166 129.984 323.453 130.811 334.954 131.689 334.954 131.689" stroke="#9DB97E" stroke-width="1.5" stroke-linecap="round" stroke-opacity="0.7" fill="none" clip-path="url(#p010b2b0c07)"/></g><g id="line2d_52"><path d="M334.954 131.661 328.6 130.525 319.866 128.728 308.955 126.257 298.376 123.653 287.911 120.864 276.452 117.582 241.478 107.322 233.605 105.315 225.623 103.51 217.564 101.957 209.461 100.688 203.374 99.9336 195.271 99.1906 187.212 98.7387 179.23 98.5604 171.357 98.6366 163.623 98.9499 156.06 99.4875 148.697 100.241 141.565 101.203 134.691 102.367 128.103 103.723 121.827 105.253 115.888 106.939 110.31 108.757 105.116 110.684 100.325 112.696 95.9572 114.775 92.0296 116.905 88.558 119.068 85.5562 121.241 83.0363 123.397 81.0081 125.496 79.8147 127.004 78.9052 128.43 78.2817 129.753 77.9456 130.952 77.8815 131.675 78.0256 138.654 78.4577 145.321 78.9052 149.516 79.4799 153.462 80.1811 157.123 81.0081 160.468 81.9602 163.471 83.0363 166.111 84.2354 168.374 85.5562 170.25 86.9976 171.735 88.558 172.833 90.2359 173.549 92.0296 173.896 93.9373 173.892 95.9572 173.556 98.0871 172.912 100.325 171.988 102.669 170.812 106.377 168.645 111.67 165.169 126.503 155.086 131.359 152.049 136.383 149.135 141.565 146.394 146.891 143.862 152.351 141.562 157.933 139.503 163.623 137.685 169.409 136.1 175.278 134.732 181.217 133.563 187.212 132.573 195.271 131.495 203.374 130.65 213.516 129.859 223.614 129.305 235.584 128.883 249.212 128.651 264.138 128.642 279.819 128.869 295.495 129.324 310.166 129.984 323.453 130.811 334.954 131.689 334.954 131.689" stroke="#80B69D" stroke-width="1.5" stroke-linecap="round" stroke-opacity="0.7" fill="none" clip-path="url(#p010b2b0c07)"/></g><g id="line2d_53"><path d="M334.954 131.661 328.6 130.525 319.866 128.728 308.955 126.257 298.376 123.653 287.911 120.864 276.452 117.582 241.478 107.322 233.605 105.315 225.623 103.51 217.564 101.957 209.461 100.688 203.374 99.9336 195.271 99.1906 187.212 98.7387 179.23 98.5604 171.357 98.6366 163.623 98.9499 156.06 99.4875 148.697 100.241 141.565 101.203 134.691 102.367 128.103 103.723 121.827 105.253 115.888 106.939 110.31 108.757 105.116 110.684 100.325 112.696 95.9572 114.775 92.0296 116.905 88.558 119.068 85.5562 121.241 83.0363 123.397 81.0081 125.496 79.8147 127.004 78.9052 128.43 78.2817 129.753 77.9456 130.952 77.8975 131.999 78.1377 132.925 78.6655 133.889 80.1811 135.925 86.2619 143.835 91.1184 150.074 93.9373 153.425 97.0085 156.75 99.1927 158.881 101.484 160.89 103.88 162.738 106.377 164.387 108.975 165.803 111.67 166.958 114.459 167.832 117.34 168.408 120.31 168.678 123.365 168.643 126.503 168.308 129.721 167.683 133.016 166.788 136.383 165.644 139.821 164.279 145.1 161.879 150.517 159.154 161.715 153.172 171.357 148.129 177.251 145.255 183.21 142.573 189.221 140.125 195.271 137.94 201.346 136.028 207.432 134.39 213.516 133.016 219.584 131.888 225.623 130.982 231.618 130.274 239.522 129.589 247.293 129.148 256.775 128.853 267.735 128.765 279.819 128.894 294.021 129.274 307.719 129.857 320.805 130.628 334.954 131.689 334.954 131.689" stroke="#72B1AC" stroke-width="1.5" stroke-linecap="round" stroke-opacity="0.7" fill="none" clip-path="url(#p010b2b0c07)"/></g><g id="line2d_54"><path d="M334.954 131.661 328.6 130.525 319.866 128.728 308.955 126.257 298.376 123.653 287.911 120.864 276.452 117.582 241.478 107.322 233.605 105.315 225.623 103.51 217.564 101.957 209.461 100.688 203.374 99.9336 195.271 99.1906 187.212 98.7387 179.23 98.5604 171.357 98.6366 163.623 98.9499 156.06 99.4875 148.697 100.241 141.565 101.203 134.691 102.367 128.103 103.723 121.827 105.253 115.888 106.939 110.31 108.757 105.116 110.684 100.325 112.696 95.9572 114.775 92.0296 116.905 88.558 119.068 85.5562 121.241 83.0363 123.397 81.0081 125.496 79.8147 127.004 78.9052 128.43 78.2817 129.753 77.9456 130.952 77.8975 131.998 78.1377 132.869 78.6655 133.595 79.4799 134.193 80.5789 134.692 82.4828 135.28 88.558 136.99 92.0296 138.284 94.9333 139.582 98.0871 141.192 102.669 143.823 108.975 147.775 117.34 153.037 121.827 155.639 126.503 158.065 129.721 159.525 133.016 160.82 136.383 161.922 139.821 162.804 143.325 163.445 146.891 163.832 150.517 163.953 154.199 163.807 157.933 163.395 161.715 162.727 165.542 161.816 169.409 160.683 173.313 159.35 179.23 157.036 185.208 154.435 195.271 149.751 207.432 144.134 213.516 141.526 219.584 139.137 225.623 137.008 231.618 135.161 237.557 133.603 243.426 132.327 249.212 131.314 254.902 130.538 260.484 129.969 267.735 129.478 274.741 129.226 283.114 129.151 292.525 129.289 303.86 129.682 316.878 130.374 330.352 131.324 334.954 131.689 334.954 131.689" stroke="#64ABBA" stroke-width="1.5" stroke-linecap="round" stroke-opacity="0.7" fill="none" clip-path="url(#p010b2b0c07)"/></g><g id="line2d_55"><path d="M334.954 131.661 328.6 130.525 319.866 128.728 308.955 126.257 298.376 123.653 287.911 120.864 276.452 117.582 241.478 107.322 233.605 105.315 225.623 103.51 217.564 101.957 209.461 100.688 203.374 99.9336 195.271 99.1906 187.212 98.7387 179.23 98.5604 171.357 98.6366 163.623 98.9499 156.06 99.4875 148.697 100.241 141.565 101.203 134.691 102.367 128.103 103.723 121.827 105.253 115.888 106.939 110.31 108.757 105.116 110.684 100.325 112.696 95.9572 114.775 92.0296 116.905 88.558 119.068 85.5562 121.241 83.0363 123.397 81.0081 125.496 79.8147 127.004 78.9052 128.43 78.2817 129.753 77.9456 130.952 77.8975 131.998 78.1377 132.868 78.6655 133.593 79.4799 134.178 80.5789 134.636 81.9602 134.983 84.2354 135.311 88.558 135.625 97.0085 136.181 101.484 136.683 106.377 137.475 110.31 138.312 114.459 139.387 118.814 140.714 123.365 142.291 129.721 144.746 152.351 153.883 157.933 155.724 161.715 156.786 165.542 157.685 169.409 158.396 173.313 158.901 177.251 159.185 181.217 159.238 185.208 159.056 189.221 158.64 193.251 157.997 197.294 157.141 201.346 156.087 205.403 154.858 211.489 152.741 217.564 150.379 227.626 146.173 239.522 141.222 247.293 138.269 253.017 136.328 258.636 134.653 264.138 133.256 269.51 132.13 274.741 131.261 279.819 130.622 286.332 130.074 292.525 129.805 299.782 129.749 307.719 129.938 316.878 130.385 329.215 131.236 334.954 131.689 334.954 131.689" stroke="#56A6C8" stroke-width="1.5" stroke-linecap="round" stroke-opacity="0.7" fill="none" clip-path="url(#p010b2b0c07)"/></g><g id="line2d_56"><path d="M334.954 131.661 328.6 130.525 319.866 128.728 308.955 126.257 298.376 123.653 287.911 120.864 276.452 117.582 241.478 107.322 233.605 105.315 225.623 103.51 217.564 101.957 209.461 100.688 203.374 99.9336 195.271 99.1906 187.212 98.7387 179.23 98.5604 171.357 98.6366 163.623 98.9499 156.06 99.4875 148.697 100.241 141.565 101.203 134.691 102.367 128.103 103.723 121.827 105.253 115.888 106.939 110.31 108.757 105.116 110.684 100.325 112.696 95.9572 114.775 92.0296 116.905 88.558 119.068 85.5562 121.241 83.0363 123.397 81.0081 125.496 79.8147 127.004 78.9052 128.43 78.2817 129.753 77.9456 130.952 77.8975 131.998 78.1377 132.868 78.6655 133.593 79.4799 134.177 80.5789 134.635 81.9602 134.979 84.2354 135.292 87.763 135.501 93.9373 135.567 113.053 135.564 120.31 135.862 126.503 136.357 131.359 136.926 136.383 137.692 141.565 138.672 146.891 139.87 154.199 141.788 161.715 144.005 181.217 149.947 187.212 151.52 193.251 152.845 197.294 153.554 201.346 154.099 205.403 154.465 209.461 154.639 213.516 154.616 217.564 154.391 221.601 153.968 225.623 153.353 229.625 152.558 233.605 151.599 239.522 149.897 245.365 147.947 253.017 145.114 273.014 137.51 279.819 135.292 284.732 133.913 289.47 132.792 294.021 131.921 298.376 131.283 303.86 130.748 308.955 130.503 314.748 130.481 320.805 130.692 329.215 131.238 334.954 131.689 334.954 131.689" stroke="#48A0D6" stroke-width="1.5" stroke-linecap="round" stroke-opacity="0.7" fill="none" clip-path="url(#p010b2b0c07)"/></g><g id="line2d_57"><path d="M334.954 131.661 328.6 130.525 319.866 128.728 308.955 126.257 298.376 123.653 287.911 120.864 276.452 117.582 241.478 107.322 233.605 105.315 225.623 103.51 217.564 101.957 209.461 100.688 203.374 99.9336 195.271 99.1906 187.212 98.7387 179.23 98.5604 171.357 98.6366 163.623 98.9499 156.06 99.4875 148.697 100.241 141.565 101.203 134.691 102.367 128.103 103.723 121.827 105.253 115.888 106.939 110.31 108.757 105.116 110.684 100.325 112.696 95.9572 114.775 92.0296 116.905 88.558 119.068 85.5562 121.241 83.0363 123.397 81.0081 125.496 79.8147 127.004 78.9052 128.43 78.2817 129.753 77.9456 130.952 77.8975 131.998 78.1377 132.868 78.6655 133.593 79.4799 134.177 80.5789 134.635 81.9602 134.979 84.2354 135.292 87.763 135.498 92.9693 135.549 101.484 135.387 117.34 134.811 131.359 134.379 139.821 134.321 146.891 134.463 154.199 134.839 161.715 135.501 167.47 136.208 173.313 137.103 181.217 138.58 189.221 140.339 199.319 142.804 213.516 146.297 221.601 148.024 227.626 149.065 233.605 149.82 237.557 150.14 241.478 150.301 245.365 150.295 249.212 150.12 253.017 149.777 256.775 149.272 260.484 148.613 265.944 147.366 271.27 145.863 276.452 144.175 283.114 141.772 298.376 136.12 303.86 134.371 308.955 133.027 313.642 132.09 317.902 131.518 321.717 131.241 325.837 131.179 330.352 131.352 334.954 131.689 334.954 131.689" stroke="#399BE4" stroke-width="1.5" stroke-linecap="round" stroke-opacity="0.7" fill="none" clip-path="url(#p010b2b0c07)"/></g><g id="line2d_58"><path d="M334.954 131.661 328.6 130.525 319.866 128.728 308.955 126.257 298.376 123.653 287.911 120.864 276.452 117.582 241.478 107.322 233.605 105.315 225.623 103.51 217.564 101.957 209.461 100.688 203.374 99.9336 195.271 99.1906 187.212 98.7387 179.23 98.5604 171.357 98.6366 163.623 98.9499 156.06 99.4875 148.697 100.241 141.565 101.203 134.691 102.367 128.103 103.723 121.827 105.253 115.888 106.939 110.31 108.757 105.116 110.684 100.325 112.696 95.9572 114.775 92.0296 116.905 88.558 119.068 85.5562 121.241 83.0363 123.397 81.0081 125.496 79.8147 127.004 78.9052 128.43 78.2817 129.753 77.9456 130.952 77.8975 131.998 78.1377 132.868 78.6655 133.593 79.4799 134.177 80.5789 134.635 81.9602 134.979 84.2354 135.292 87.763 135.498 92.9693 135.549 101.484 135.379 113.053 134.92 131.359 133.944 150.517 132.96 161.715 132.582 171.357 132.466 179.23 132.562 187.212 132.872 195.271 133.43 203.374 134.261 211.489 135.37 219.584 136.736 227.626 138.308 241.478 141.298 251.12 143.323 258.636 144.675 264.138 145.449 269.51 145.965 274.741 146.19 279.819 146.104 284.732 145.705 289.47 145.01 294.021 144.048 298.376 142.868 302.525 141.529 307.719 139.61 323.453 133.485 326.573 132.578 329.215 132.01 331.827 131.685 334.169 131.643 334.954 131.689 334.954 131.689" stroke="#2B95F2" stroke-width="1.5" stroke-linecap="round" stroke-opacity="0.7" fill="none" clip-path="url(#p010b2b0c07)"/></g><g id="line2d_59"><path d="M334.954 131.661 328.6 130.525 319.866 128.728 308.955 126.257 298.376 123.653 287.911 120.864 276.452 117.582 241.478 107.322 233.605 105.315 225.623 103.51 217.564 101.957 209.461 100.688 203.374 99.9336 195.271 99.1906 187.212 98.7387 179.23 98.5604 171.357 98.6366 163.623 98.9499 156.06 99.4875 148.697 100.241 141.565 101.203 134.691 102.367 128.103 103.723 121.827 105.253 115.888 106.939 110.31 108.757 105.116 110.684 100.325 112.696 95.9572 114.775 92.0296 116.905 88.558 119.068 85.5562 121.241 83.0363 123.397 81.0081 125.496 79.8147 127.004 78.9052 128.43 78.2817 129.753 77.9456 130.952 77.8975 131.998 78.1377 132.868 78.6655 133.593 79.4799 134.177 80.5789 134.635 81.9602 134.979 84.2354 135.292 87.763 135.498 92.9693 135.549 101.484 135.379 113.053 134.917 129.721 134.002 177.251 131.242 191.234 130.682 203.374 130.411 213.516 130.4 223.614 130.642 231.618 131.048 239.522 131.658 247.293 132.473 254.902 133.478 264.138 134.953 274.741 136.905 291.008 139.941 296.947 140.827 302.525 141.405 306.458 141.6 310.166 141.571 313.642 141.315 316.878 140.836 319.866 140.151 322.599 139.29 325.072 138.291 327.279 137.203 329.799 135.709 332.256 133.965 334.697 131.923 334.954 131.689 334.954 131.689" stroke="#1E90FF" stroke-width="1.5" stroke-linecap="round" stroke-opacity="0.7" fill="none" clip-path="url(#p010b2b0c07)"/></g><g id="patch_4"><path d="M65.0279 177.948 65.0279 64.8364" stroke="#FFFFFF" stroke-width="1.25" stroke-linecap="square" stroke-linejoin="miter" fill="none"/></g><g id="patch_5"><path d="M347.807 177.948 347.807 64.8364" stroke="#FFFFFF" stroke-width="1.25" stroke-linecap="square" stroke-linejoin="miter" fill="none"/></g><g id="patch_6"><path d="M65.0279 177.948 347.807 177.948" stroke="#FFFFFF" stroke-width="1.25" stroke-linecap="square" stroke-linejoin="miter" fill="none"/></g><g id="patch_7"><path d="M65.0279 64.8364 347.807 64.8364" stroke="#FFFFFF" stroke-width="1.25" stroke-linecap="square" stroke-linejoin="miter" fill="none"/></g><g id="text_11"><g fill="#262626" transform="matrix(0.12 0 0 -0.12 107.715 58.8364)"><defs><path d="M1659 0 1659 4041 150 4041 150 4581 3781 4581 3781 4041 2266 4041 2266 0 1659 0Z" id="ArialMT-54" transform="scale(0.015625 0.015625)"/><path d="M213 1659C213 2273.67 383.667 2729 725 3025 1010.33 3271 1358.33 3394 1769 3394 2225 3394 2597.67 3244.33 2887 2945 3177 2646.33 3322 2233.33 3322 1706 3322 1279.33 3258 943.333 3130 698 3002 453.333 2815.33 263.333 2570 128 2325.33-7.33333 2058.33-75 1769-75 1304.33-75 928.667 74 642 372 356 670 213 1099 213 1659ZM791 1659C791 1234.33 883.667 916.333 1069 705 1254.33 493.667 1487.67 388 1769 388 2048.33 388 2280.67 494 2466 706 2651.33 918.667 2744 1242.67 2744 1678 2744 2088.67 2650.67 2399.67 2464 2611 2277.33 2822.33 2045.67 2928 1769 2928 1487.67 2928 1254.33 2822.67 1069 2612 883.667 2402 791 2084.33 791 1659Z" id="ArialMT-6f" transform="scale(0.015625 0.015625)"/><path d="M422-1272 422 3319 934 3319 934 2888C1055.33 3056.67 1192 3183 1344 3267 1496 3351.67 1680.33 3394 1897 3394 2180.33 3394 2430.33 3321 2647 3175 2863.67 3029 3027 2823 3137 2557 3247.67 2291.67 3303 2000.67 3303 1684 3303 1344.67 3242 1039 3120 767 2998.67 495 2821.67 286.667 2589 142 2357-2.66667 2112.67-75 1856-75 1668.67-75 1500.33-35.3333 1351 44 1202.33 123.333 1080 223.333 984 344L984-1272 422-1272ZM931 1641C931 1213.67 1017.33 898 1190 694 1363.33 490 1573 388 1819 388 2069 388 2283 493.667 2461 705 2639 916.333 2728 1244 2728 1688 2728 2110.67 2641 2427 2467 2637 2293 2847.67 2085.33 2953 1844 2953 1604 2953 1391.67 2841 1207 2617 1023 2393 931 2067.67 931 1641Z" id="ArialMT-70" transform="scale(0.015625 0.015625)"/><path d="M203 1375 203 1941 1931 1941 1931 1375 203 1375Z" id="ArialMT-2d" transform="scale(0.015625 0.015625)"/><path d="" id="ArialMT-20" transform="scale(0.015625 0.015625)"/><path d="M2588 409C2379.33 232.333 2178.67 107.333 1986 34 1793.33-38.6667 1586.67-75 1366-75 1001.33-75 721 14 525 192 329 370 231 597.667 231 875 231 1037.67 268 1186 342 1320 416 1454.67 513 1562.67 633 1644 753 1725.33 888 1786.67 1038 1828 1148 1857.33 1314.67 1885.67 1538 1913 1992 1967 2326.33 2031.33 2541 2106 2543 2183.33 2544 2232.33 2544 2253 2544 2482.33 2490.67 2644 2384 2738 2240.67 2864.67 2027.33 2928 1744 2928 1479.33 2928 1284 2881.67 1158 2789 1032 2696.33 938.667 2532.33 878 2297L328 2372C378 2607.33 460.333 2797.33 575 2942 689.667 3086.67 855.333 3198 1072 3276 1288.67 3354.67 1539.67 3394 1825 3394 2108.33 3394 2338.33 3360.67 2515 3294 2692.33 3227.33 2822.67 3143.33 2906 3042 2989.33 2941.33 3047.67 2813.67 3081 2659 3099.67 2563.67 3109 2391 3109 2141L3109 1391C3109 867.667 3121 536.667 3145 398 3169 260 3216.67 127.333 3288 0L2700 0C2642 116.667 2604.67 253 2588 409ZM2541 1666C2336.33 1582.67 2030 1511.67 1622 1453 1390.67 1419.67 1227 1382 1131 1340 1035.67 1298.67 961.667 1238 909 1158 857 1078 831 989 831 891 831 741 887.667 616 1001 516 1115 416 1281.33 366 1500 366 1716.67 366 1909.33 413.333 2078 508 2246.67 602.667 2370.67 732.333 2450 897 2510.67 1024.33 2541 1211.67 2541 1459L2541 1666Z" id="ArialMT-61" transform="scale(0.015625 0.015625)"/><path d="M422 0 422 3319 928 3319 928 2847C1172 3211.67 1524 3394 1984 3394 2184 3394 2368 3358 2536 3286 2704 3214 2829.67 3119.67 2913 3003 2996.33 2886.33 3054.67 2748 3088 2588 3108.67 2483.33 3119 2301 3119 2041L3119 0 2556 0 2556 2019C2556 2248.33 2534 2419.67 2490 2533 2446.67 2646.33 2369.33 2736.67 2258 2804 2146.67 2872 2016 2906 1866 2906 1626 2906 1419 2830 1245 2678 1071 2526 984 2237.67 984 1813L984 0 422 0Z" id="ArialMT-6e" transform="scale(0.015625 0.015625)"/><path d="M2575 0 2575 419C2364.33 89.6667 2055-75 1647-75 1382.33-75 1139-2 917 144 695 290 523 493.667 401 755 279.667 1016.33 219 1316.67 219 1656 219 1987.33 274 2288 384 2558 494.667 2828 660.333 3034.67 881 3178 1102.33 3322 1349.33 3394 1622 3394 1822 3394 2000 3351.67 2156 3267 2312.67 3183 2440 3073.33 2538 2938L2538 4581 3097 4581 3097 0 2575 0ZM797 1656C797 1231.33 886.333 913.667 1065 703 1244.33 493 1456 388 1700 388 1946 388 2154.67 488.333 2326 689 2498 890.333 2584 1197 2584 1609 2584 2063.67 2496.33 2397 2321 2609 2146.33 2821.67 1931 2928 1675 2928 1425 2928 1216 2826 1048 2622 880.667 2418 797 2096 797 1656Z" id="ArialMT-64" transform="scale(0.015625 0.015625)"/><path d="M469 0 469 4581 2188 4581C2538 4581 2818.67 4534.67 3030 4442 3241.33 4349.33 3406.67 4206.67 3526 4014 3646 3821.33 3706 3619.67 3706 3409 3706 3213.67 3653 3029.33 3547 2856 3441 2683.33 3280.67 2544 3066 2438 3342.67 2356.67 3555.33 2218 3704 2022 3853.33 1826 3928 1594.67 3928 1328 3928 1113.33 3882.67 913.667 3792 729 3701.33 545 3589.33 403 3456 303 3322.67 203 3155.33 127.333 2954 76 2753.33 25.3333 2507.33 0 2216 0L469 0ZM1075 2656 2066 2656C2334.67 2656 2527.33 2673.67 2644 2709 2798 2755 2914 2831 2992 2937 3070 3043.67 3109 3177.33 3109 3338 3109 3490 3072.67 3623.67 3000 3739 2927.33 3855 2823 3934.33 2687 3977 2551.67 4019.67 2319.67 4041 1991 4041L1075 4041 1075 2656ZM1075 541 2216 541C2411.33 541 2548.67 548.333 2628 563 2768 587.667 2884.67 629 2978 687 3072 745.667 3149 830.667 3209 942 3269.67 1053.33 3300 1182 3300 1328 3300 1498.67 3256.33 1647 3169 1773 3081.67 1899.67 2960.33 1988.33 2805 2039 2649.67 2090.33 2426 2116 2134 2116L1075 2116 1075 541Z" id="ArialMT-42" transform="scale(0.015625 0.015625)"/><path d="M1650 503 1731 6C1573-27.3333 1431.33-44 1306-44 1102-44 943.667-11.6667 831 53 719 117.667 640 202.667 594 308 548 413.333 525 634.667 525 972L525 2881 113 2881 113 3319 525 3319 525 4141 1084 4478 1084 3319 1650 3319 1650 2881 1084 2881 1084 941C1084 780.333 1094 677 1114 631 1134 585.667 1166.33 549.333 1211 522 1255.67 494.667 1319.67 481 1403 481 1465.67 481 1548 488.333 1650 503Z" id="ArialMT-74" transform="scale(0.015625 0.015625)"/><path d="M422 0 422 3319 925 3319 925 2853C1029 3015.67 1167.33 3146.33 1340 3245 1513.33 3344.33 1710.33 3394 1931 3394 2177 3394 2378.67 3343 2536 3241 2693.33 3139 2804.33 2996.33 2869 2813 3131.67 3200.33 3473.33 3394 3894 3394 4223.33 3394 4476.33 3302.67 4653 3120 4830.33 2938 4919 2657.33 4919 2278L4919 0 4359 0 4359 2091C4359 2315.67 4340.67 2477.33 4304 2576 4268 2675.33 4202 2755 4106 2815 4010.67 2875.67 3898.33 2906 3769 2906 3535.67 2906 3341.67 2828.33 3187 2673 3033 2518.33 2956 2270 2956 1928L2956 0 2394 0 2394 2156C2394 2406 2348 2593.33 2256 2718 2164.67 2843.33 2014.67 2906 1806 2906 1648 2906 1501.67 2864.33 1367 2781 1233 2697.67 1135.67 2575.67 1075 2415 1014.33 2255 984 2024 984 1722L984 0 422 0Z" id="ArialMT-6d" transform="scale(0.015625 0.015625)"/><path d="M288 1472 859 1522C886.333 1292.67 949.333 1104.67 1048 958 1147.33 811.333 1301 692.667 1509 602 1717.67 511.333 1952.33 466 2213 466 2443.67 466 2647.67 500.333 2825 569 3002.33 637.667 3134 731.667 3220 851 3306.67 971 3350 1102 3350 1244 3350 1387.33 3308.33 1512.67 3225 1620 3141.67 1727.33 3004.33 1817.67 2813 1891 2689.67 1939 2417.67 2013.33 1997 2114 1576.33 2215.33 1281.67 2310.67 1113 2400 893.667 2514.67 730.333 2656.67 623 2826 516.333 2996 463 3186.33 463 3397 463 3628.33 528.333 3844.33 659 4045 790.333 4246.33 982 4399 1234 4503 1486.67 4607 1767 4659 2075 4659 2414.33 4659 2713.67 4604.33 2973 4495 3233 4385.67 3432.67 4224.67 3572 4012 3711.33 3800 3786.33 3559.67 3797 3291L3216 3247C3184.67 3536.33 3078.67 3755 2898 3903 2718 4051 2452 4125 2100 4125 1733.33 4125 1466 4057.67 1298 3923 1130.67 3789 1047 3627.33 1047 3438 1047 3273.33 1106.33 3137.67 1225 3031 1341.67 2925 1646.33 2816.33 2139 2705 2631.67 2593.67 2969.67 2496.33 3153 2413 3419.67 2289.67 3616.33 2133.67 3743 1945 3870.33 1757 3934 1540 3934 1294 3934 1050 3864.33 820 3725 604 3585.67 388.667 3385 221 3123 101 2861.67-18.3333 2567.67-78 2241-78 1826.33-78 1478.67-17.6667 1198 103 918 223.667 698.333 405.333 539 648 379.667 891.333 296 1166 288 1472Z" id="ArialMT-53" transform="scale(0.015625 0.015625)"/><path d="M2597 0 2597 488C2338.33 112.667 1987.33-75 1544-75 1348-75 1165-37.6667 995 37 825.667 112.333 699.667 206.667 617 320 535 434 477.333 573.333 444 738 420.667 848 409 1023 409 1263L409 3319 972 3319 972 1478C972 1184.67 983.333 986.667 1006 884 1041.33 736.667 1116.33 620.667 1231 536 1345.67 451.333 1487.33 409 1656 409 1824.67 409 1983 452.333 2131 539 2279 625.667 2383.67 743.333 2445 892 2507 1041.33 2538 1257.67 2538 1541L2538 3319 3100 3319 3100 0 2597 0Z" id="ArialMT-75" transform="scale(0.015625 0.015625)"/><path d="M416 0 416 3319 922 3319 922 2816C1051.33 3051.33 1170.67 3206.33 1280 3281 1389.33 3356.33 1509.67 3394 1641 3394 1830.33 3394 2023 3333.67 2219 3213L2025 2691C1887.67 2772.33 1750.33 2813 1613 2813 1489.67 2813 1379 2776 1281 2702 1183 2628 1113.33 2525.33 1072 2394 1009.33 2194 978 1975.33 978 1738L978 0 416 0Z" id="ArialMT-72" transform="scale(0.015625 0.015625)"/><path d="M556 0 556 2881 59 2881 59 3319 556 3319 556 3672C556 3894.67 576 4060.33 616 4169 670 4315 765 4433 901 4523 1037.67 4613.67 1229 4659 1475 4659 1633.67 4659 1808.67 4640.33 2000 4603L1916 4113C1799.33 4133.67 1688.67 4144 1584 4144 1413.33 4144 1292.67 4107.33 1222 4034 1151.33 3961.33 1116 3825 1116 3625L1116 3319 1763 3319 1763 2881 1116 2881 1116 0 556 0Z" id="ArialMT-66" transform="scale(0.015625 0.015625)"/><path d="M2588 1216 3141 1144C3080.33 762.667 2925.33 464 2676 248 2427.33 32.6667 2121.67-75 1759-75 1305-75 940 73.3333 664 370 388 667.333 250 1093 250 1647 250 2005 309.333 2318.33 428 2587 546.667 2856.33 727.333 3058 970 3192 1212.67 3326.67 1477 3394 1763 3394 2123 3394 2417.67 3302.67 2647 3120 2876.33 2938 3023.33 2679.33 3088 2344L2541 2259C2489 2482.33 2396.67 2650 2264 2762 2132 2874.67 1972 2931 1784 2931 1500.67 2931 1270.33 2829.33 1093 2626 916.333 2423.33 828 2102.33 828 1663 828 1217 913.333 893 1084 691 1255.33 489 1478.33 388 1753 388 1973.67 388 2158 455.667 2306 591 2454 726.333 2548 934.667 2588 1216Z" id="ArialMT-63" transform="scale(0.015625 0.015625)"/><path d="M2694 1069 3275 997C3183.67 657.667 3014 394 2766 206 2518 18.6667 2201.33-75 1816-75 1330.67-75 945.667 74.3333 661 373 376.333 672.333 234 1091.67 234 1631 234 2189.67 377.667 2623 665 2931 953 3239.67 1326 3394 1784 3394 2228 3394 2590.67 3243 2872 2941 3153.33 2639 3294 2214 3294 1666 3294 1632.67 3293 1582.67 3291 1516L816 1516C836.667 1151.33 939.667 872 1125 678 1310.33 484.667 1541.67 388 1819 388 2025 388 2201 442 2347 550 2493 658.667 2608.67 831.667 2694 1069ZM847 1978 2700 1978C2675.33 2257.33 2604.67 2466.67 2488 2606 2308.67 2822.67 2076.33 2931 1791 2931 1532.33 2931 1315 2844.67 1139 2672 963 2499.33 865.667 2268 847 1978Z" id="ArialMT-65" transform="scale(0.015625 0.015625)"/><path d="M475 0 475 4581 1388 4581 2472 1338C2572 1035.33 2645 809 2691 659 2743 825.667 2824 1070.67 2934 1394L4031 4581 4847 4581 4847 0 4263 0 4263 3834 2931 0 2384 0 1059 3900 1059 0 475 0Z" id="ArialMT-4d" transform="scale(0.015625 0.015625)"/><path d="M197 991 753 1078C784.333 855.333 871.333 684.667 1014 566 1156.67 447.333 1356.33 388 1613 388 1871 388 2062.33 440.333 2187 545 2312.33 650.333 2375 774 2375 916 2375 1042.67 2319.67 1142.67 2209 1216 2132.33 1266 1940.67 1329.33 1634 1406 1222 1510.67 936.333 1601 777 1677 617.667 1753 496.667 1858 414 1992 332 2126.67 291 2275.33 291 2438 291 2585.33 324.667 2722 392 2848 460 2974.67 552.333 3079.67 669 3163 756.333 3227 875.333 3281.33 1026 3326 1177.33 3371.33 1339.67 3394 1513 3394 1773 3394 2001.33 3356.33 2198 3281 2395.33 3206.33 2540.67 3104.67 2634 2976 2728 2848 2792.67 2677 2828 2463L2278 2388C2253.33 2558.67 2181 2691.67 2061 2787 1941 2883 1771.67 2931 1553 2931 1295 2931 1110.67 2888.33 1000 2803 889.333 2717.67 834 2617.67 834 2503 834 2430.33 857 2364.67 903 2306 949 2246 1021 2196 1119 2156 1175 2135.33 1340.67 2087.67 1616 2013 2014 1906.33 2291.33 1819 2448 1751 2605.33 1683.67 2728.67 1585.33 2818 1456 2908 1327.33 2953 1167 2953 975 2953 787.667 2898.33 611 2789 445 2679.67 279.667 2521.67 151.667 2315 61 2109-29.6667 1876-75 1616-75 1184.67-75 856 14.6667 630 194 404 373.333 259.667 639 197 991Z" id="ArialMT-73" transform="scale(0.015625 0.015625)"/><path d="M1497-1347C1186.33-955 923.667-496.667 709 28 495 553.333 388 1097 388 1659 388 2155 468 2630 628 3084 815.333 3611.33 1105 4136.33 1497 4659L1900 4659C1648 4225.67 1481.33 3916.33 1400 3731 1272.67 3443.67 1172.67 3143.67 1100 2831 1010.67 2441.67 966 2050 966 1656 966 654 1277.33-347 1900-1347L1497-1347Z" id="ArialMT-28" transform="scale(0.015625 0.015625)"/><path d="M791-1347 388-1347C1010.67-347 1322 654 1322 1656 1322 2048 1277.33 2436.67 1188 2822 1116.67 3134.67 1017.67 3434.67 891 3722 809.667 3909.33 642 4221.67 388 4659L791 4659C1182.33 4136.33 1471.67 3611.33 1659 3084 1819.67 2630 1900 2155 1900 1659 1900 1097 1792 553.333 1576 28 1360.67-496.667 1099-955 791-1347Z" id="ArialMT-29" transform="scale(0.015625 0.015625)"/></defs><use width="100%" height="100%" xlink:href="#ArialMT-54"></use><use x="49.959" width="100%" height="100%" xlink:href="#ArialMT-6f"></use><use x="105.574" width="100%" height="100%" xlink:href="#ArialMT-70"></use><use x="161.189" width="100%" height="100%" xlink:href="#ArialMT-2d"></use><use x="194.49" width="100%" height="100%" xlink:href="#ArialMT-20"></use><use x="222.273" width="100%" height="100%" xlink:href="#ArialMT-61"></use><use x="277.889" width="100%" height="100%" xlink:href="#ArialMT-6e"></use><use x="333.504" width="100%" height="100%" xlink:href="#ArialMT-64"></use><use x="389.119" width="100%" height="100%" xlink:href="#ArialMT-20"></use><use x="416.902" width="100%" height="100%" xlink:href="#ArialMT-42"></use><use x="483.602" width="100%" height="100%" xlink:href="#ArialMT-6f"></use><use x="539.217" width="100%" height="100%" xlink:href="#ArialMT-74"></use><use x="567" width="100%" height="100%" xlink:href="#ArialMT-74"></use><use x="594.783" width="100%" height="100%" xlink:href="#ArialMT-6f"></use><use x="650.398" width="100%" height="100%" xlink:href="#ArialMT-6d"></use><use x="733.699" width="100%" height="100%" xlink:href="#ArialMT-2d"></use><use x="767" width="100%" height="100%" xlink:href="#ArialMT-53"></use><use x="833.699" width="100%" height="100%" xlink:href="#ArialMT-75"></use><use x="889.314" width="100%" height="100%" xlink:href="#ArialMT-72"></use><use x="922.615" width="100%" height="100%" xlink:href="#ArialMT-66"></use><use x="950.398" width="100%" height="100%" xlink:href="#ArialMT-61"></use><use x="1006.01" width="100%" height="100%" xlink:href="#ArialMT-63"></use><use x="1056.01" width="100%" height="100%" xlink:href="#ArialMT-65"></use><use x="1111.63" width="100%" height="100%" xlink:href="#ArialMT-20"></use><use x="1139.41" width="100%" height="100%" xlink:href="#ArialMT-4d"></use><use x="1222.71" width="100%" height="100%" xlink:href="#ArialMT-6f"></use><use x="1278.33" width="100%" height="100%" xlink:href="#ArialMT-64"></use><use x="1333.94" width="100%" height="100%" xlink:href="#ArialMT-65"></use><use x="1389.56" width="100%" height="100%" xlink:href="#ArialMT-73"></use><use x="1439.56" width="100%" height="100%" xlink:href="#ArialMT-20"></use><use x="1467.34" width="100%" height="100%" xlink:href="#ArialMT-28"></use><use x="1500.64" width="100%" height="100%" xlink:href="#ArialMT-31"></use><use x="1556.26" width="100%" height="100%" xlink:href="#ArialMT-36"></use><use x="1611.87" width="100%" height="100%" xlink:href="#ArialMT-29"></use></g></g><g id="line2d_60"><path d="M334.954 131.675 331.479 131.023 327.243 130.232 321.554 129.093 314.03 127.464 306.153 125.617 298.437 123.673 290.724 121.61 282.968 119.437 275.146 117.172 267.242 114.836 259.285 112.462 251.462 110.153 243.805 107.972 236.306 105.97 228.932 104.192 221.621 102.668 214.305 101.399 206.944 100.369 199.534 99.5699 192.092 98.9989 184.632 98.6584 177.158 98.5513 169.68 98.6718 162.215 99.016 154.784 99.5921 147.4 100.4 140.077 101.447 132.841 102.74 125.727 104.284 118.78 106.086 112.055 108.146 105.623 110.462 99.5803 113.021 94.046 115.787 89.1841 118.683 85.1731 121.572 82.1222 124.29 80.0133 126.705 78.7277 128.727 78.0761 130.353 77.8815 131.675 78.0079 132.571 78.3986 133.328 79.0164 133.935 79.9602 134.426 81.51 134.856 84.1985 135.243 88.5374 135.503 94.5642 135.548 101.688 135.393 109.395 135.092 117.388 134.695 125.538 134.237 133.782 133.745 142.082 133.235 150.42 132.719 158.759 132.207 167.076 131.706 175.373 131.225 183.65 130.766 191.907 130.338 200.146 129.944 208.365 129.589 216.564 129.283 224.75 129.031 232.925 128.836 241.092 128.701 249.255 128.625 257.415 128.608 265.57 128.649 273.716 128.746 281.848 128.905 289.965 129.13 298.08 129.424 306.246 129.79 314.392 130.232 321.584 130.681 327.152 131.071 331.427 131.398 334.954 131.675" stroke="#000000" stroke-width="1.5" stroke-linecap="round" fill="none" clip-path="url(#p010b2b0c07)"/></g></g><g id="axes_2"><g id="patch_8"><path d="M65.0279 330.952 347.807 330.952 347.807 217.84 65.0279 217.84Z" fill="#EAEAF2"/></g><g id="matplotlib.axis_3"><g id="xtick_22"><g id="line2d_61"><path d="M77.8815 330.952 77.8815 217.84" stroke="#FFFFFF" stroke-width="1.6" stroke-linecap="round" fill="none" clip-path="url(#p13b28a3590)"/></g><g id="text_12"><g fill="#262626" transform="matrix(0.11 0 0 -0.11 70.2365 348.326)"><use width="100%" height="100%" xlink:href="#ArialMT-30"></use><use x="55.6152" width="100%" height="100%" xlink:href="#ArialMT-2e"></use><use x="83.3984" width="100%" height="100%" xlink:href="#ArialMT-30"></use></g></g></g><g id="xtick_23"><g id="line2d_62"><path d="M129.296 330.952 129.296 217.84" stroke="#FFFFFF" stroke-width="1.6" stroke-linecap="round" fill="none" clip-path="url(#p13b28a3590)"/></g><g id="text_13"><g fill="#262626" transform="matrix(0.11 0 0 -0.11 121.651 348.326)"><use width="100%" height="100%" xlink:href="#ArialMT-30"></use><use x="55.6152" width="100%" height="100%" xlink:href="#ArialMT-2e"></use><use x="83.3984" width="100%" height="100%" xlink:href="#ArialMT-32"></use></g></g></g><g id="xtick_24"><g id="line2d_63"><path d="M180.71 330.952 180.71 217.84" stroke="#FFFFFF" stroke-width="1.6" stroke-linecap="round" fill="none" clip-path="url(#p13b28a3590)"/></g><g id="text_14"><g fill="#262626" transform="matrix(0.11 0 0 -0.11 173.065 348.326)"><use width="100%" height="100%" xlink:href="#ArialMT-30"></use><use x="55.6152" width="100%" height="100%" xlink:href="#ArialMT-2e"></use><use x="83.3984" width="100%" height="100%" xlink:href="#ArialMT-34"></use></g></g></g><g id="xtick_25"><g id="line2d_64"><path d="M232.125 330.952 232.125 217.84" stroke="#FFFFFF" stroke-width="1.6" stroke-linecap="round" fill="none" clip-path="url(#p13b28a3590)"/></g><g id="text_15"><g fill="#262626" transform="matrix(0.11 0 0 -0.11 224.48 348.326)"><use width="100%" height="100%" xlink:href="#ArialMT-30"></use><use x="55.6152" width="100%" height="100%" xlink:href="#ArialMT-2e"></use><use x="83.3984" width="100%" height="100%" xlink:href="#ArialMT-36"></use></g></g></g><g id="xtick_26"><g id="line2d_65"><path d="M283.539 330.952 283.539 217.84" stroke="#FFFFFF" stroke-width="1.6" stroke-linecap="round" fill="none" clip-path="url(#p13b28a3590)"/></g><g id="text_16"><g fill="#262626" transform="matrix(0.11 0 0 -0.11 275.894 348.326)"><use width="100%" height="100%" xlink:href="#ArialMT-30"></use><use x="55.6152" width="100%" height="100%" xlink:href="#ArialMT-2e"></use><use x="83.3984" width="100%" height="100%" xlink:href="#ArialMT-38"></use></g></g></g><g id="xtick_27"><g id="line2d_66"><path d="M334.954 330.952 334.954 217.84" stroke="#FFFFFF" stroke-width="1.6" stroke-linecap="round" fill="none" clip-path="url(#p13b28a3590)"/></g><g id="text_17"><g fill="#262626" transform="matrix(0.11 0 0 -0.11 327.309 348.326)"><use width="100%" height="100%" xlink:href="#ArialMT-31"></use><use x="55.6152" width="100%" height="100%" xlink:href="#ArialMT-2e"></use><use x="83.3984" width="100%" height="100%" xlink:href="#ArialMT-30"></use></g></g></g><g id="xtick_28"><g id="line2d_67"><path d="M90.7351 330.952 90.7351 217.84" stroke="#FFFFFF" stroke-width="0.7" stroke-linecap="round" fill="none" clip-path="url(#p13b28a3590)"/></g></g><g id="xtick_29"><g id="line2d_68"><path d="M103.589 330.952 103.589 217.84" stroke="#FFFFFF" stroke-width="0.7" stroke-linecap="round" fill="none" clip-path="url(#p13b28a3590)"/></g></g><g id="xtick_30"><g id="line2d_69"><path d="M116.442 330.952 116.442 217.84" stroke="#FFFFFF" stroke-width="0.7" stroke-linecap="round" fill="none" clip-path="url(#p13b28a3590)"/></g></g><g id="xtick_31"><g id="line2d_70"><path d="M142.149 330.952 142.149 217.84" stroke="#FFFFFF" stroke-width="0.7" stroke-linecap="round" fill="none" clip-path="url(#p13b28a3590)"/></g></g><g id="xtick_32"><g id="line2d_71"><path d="M155.003 330.952 155.003 217.84" stroke="#FFFFFF" stroke-width="0.7" stroke-linecap="round" fill="none" clip-path="url(#p13b28a3590)"/></g></g><g id="xtick_33"><g id="line2d_72"><path d="M167.857 330.952 167.857 217.84" stroke="#FFFFFF" stroke-width="0.7" stroke-linecap="round" fill="none" clip-path="url(#p13b28a3590)"/></g></g><g id="xtick_34"><g id="line2d_73"><path d="M193.564 330.952 193.564 217.84" stroke="#FFFFFF" stroke-width="0.7" stroke-linecap="round" fill="none" clip-path="url(#p13b28a3590)"/></g></g><g id="xtick_35"><g id="line2d_74"><path d="M206.417 330.952 206.417 217.84" stroke="#FFFFFF" stroke-width="0.7" stroke-linecap="round" fill="none" clip-path="url(#p13b28a3590)"/></g></g><g id="xtick_36"><g id="line2d_75"><path d="M219.271 330.952 219.271 217.84" stroke="#FFFFFF" stroke-width="0.7" stroke-linecap="round" fill="none" clip-path="url(#p13b28a3590)"/></g></g><g id="xtick_37"><g id="line2d_76"><path d="M244.978 330.952 244.978 217.84" stroke="#FFFFFF" stroke-width="0.7" stroke-linecap="round" fill="none" clip-path="url(#p13b28a3590)"/></g></g><g id="xtick_38"><g id="line2d_77"><path d="M257.832 330.952 257.832 217.84" stroke="#FFFFFF" stroke-width="0.7" stroke-linecap="round" fill="none" clip-path="url(#p13b28a3590)"/></g></g><g id="xtick_39"><g id="line2d_78"><path d="M270.686 330.952 270.686 217.84" stroke="#FFFFFF" stroke-width="0.7" stroke-linecap="round" fill="none" clip-path="url(#p13b28a3590)"/></g></g><g id="xtick_40"><g id="line2d_79"><path d="M296.393 330.952 296.393 217.84" stroke="#FFFFFF" stroke-width="0.7" stroke-linecap="round" fill="none" clip-path="url(#p13b28a3590)"/></g></g><g id="xtick_41"><g id="line2d_80"><path d="M309.246 330.952 309.246 217.84" stroke="#FFFFFF" stroke-width="0.7" stroke-linecap="round" fill="none" clip-path="url(#p13b28a3590)"/></g></g><g id="xtick_42"><g id="line2d_81"><path d="M322.1 330.952 322.1 217.84" stroke="#FFFFFF" stroke-width="0.7" stroke-linecap="round" fill="none" clip-path="url(#p13b28a3590)"/></g></g></g><g id="matplotlib.axis_4"><g id="ytick_23"><g id="line2d_82"><path d="M65.0279 310.386 347.807 310.386" stroke="#FFFFFF" stroke-width="1.6" stroke-linecap="round" fill="none" clip-path="url(#p13b28a3590)"/></g><g id="text_18"><g fill="#262626" transform="matrix(0.11 0 0 -0.11 33.8132 314.323)"><use width="100%" height="100%" xlink:href="#ArialMT-2212"></use><use x="58.3984" width="100%" height="100%" xlink:href="#ArialMT-30"></use><use x="114.014" width="100%" height="100%" xlink:href="#ArialMT-2e"></use><use x="141.797" width="100%" height="100%" xlink:href="#ArialMT-31"></use></g></g></g><g id="ytick_24"><g id="line2d_83"><path d="M65.0279 284.679 347.807 284.679" stroke="#FFFFFF" stroke-width="1.6" stroke-linecap="round" fill="none" clip-path="url(#p13b28a3590)"/></g><g id="text_19"><g fill="#262626" transform="matrix(0.11 0 0 -0.11 40.2379 288.616)"><use width="100%" height="100%" xlink:href="#ArialMT-30"></use><use x="55.6152" width="100%" height="100%" xlink:href="#ArialMT-2e"></use><use x="83.3984" width="100%" height="100%" xlink:href="#ArialMT-30"></use></g></g></g><g id="ytick_25"><g id="line2d_84"><path d="M65.0279 258.972 347.807 258.972" stroke="#FFFFFF" stroke-width="1.6" stroke-linecap="round" fill="none" clip-path="url(#p13b28a3590)"/></g><g id="text_20"><g fill="#262626" transform="matrix(0.11 0 0 -0.11 40.2379 262.909)"><use width="100%" height="100%" xlink:href="#ArialMT-30"></use><use x="55.6152" width="100%" height="100%" xlink:href="#ArialMT-2e"></use><use x="83.3984" width="100%" height="100%" xlink:href="#ArialMT-31"></use></g></g></g><g id="ytick_26"><g id="line2d_85"><path d="M65.0279 233.265 347.807 233.265" stroke="#FFFFFF" stroke-width="1.6" stroke-linecap="round" fill="none" clip-path="url(#p13b28a3590)"/></g><g id="text_21"><g fill="#262626" transform="matrix(0.11 0 0 -0.11 40.2379 237.201)"><use width="100%" height="100%" xlink:href="#ArialMT-30"></use><use x="55.6152" width="100%" height="100%" xlink:href="#ArialMT-2e"></use><use x="83.3984" width="100%" height="100%" xlink:href="#ArialMT-32"></use></g></g></g><g id="ytick_27"><g id="line2d_86"><path d="M65.0279 325.811 347.807 325.811" stroke="#FFFFFF" stroke-width="0.7" stroke-linecap="round" fill="none" clip-path="url(#p13b28a3590)"/></g></g><g id="ytick_28"><g id="line2d_87"><path d="M65.0279 320.669 347.807 320.669" stroke="#FFFFFF" stroke-width="0.7" stroke-linecap="round" fill="none" clip-path="url(#p13b28a3590)"/></g></g><g id="ytick_29"><g id="line2d_88"><path d="M65.0279 315.528 347.807 315.528" stroke="#FFFFFF" stroke-width="0.7" stroke-linecap="round" fill="none" clip-path="url(#p13b28a3590)"/></g></g><g id="ytick_30"><g id="line2d_89"><path d="M65.0279 305.245 347.807 305.245" stroke="#FFFFFF" stroke-width="0.7" stroke-linecap="round" fill="none" clip-path="url(#p13b28a3590)"/></g></g><g id="ytick_31"><g id="line2d_90"><path d="M65.0279 300.103 347.807 300.103" stroke="#FFFFFF" stroke-width="0.7" stroke-linecap="round" fill="none" clip-path="url(#p13b28a3590)"/></g></g><g id="ytick_32"><g id="line2d_91"><path d="M65.0279 294.962 347.807 294.962" stroke="#FFFFFF" stroke-width="0.7" stroke-linecap="round" fill="none" clip-path="url(#p13b28a3590)"/></g></g><g id="ytick_33"><g id="line2d_92"><path d="M65.0279 289.82 347.807 289.82" stroke="#FFFFFF" stroke-width="0.7" stroke-linecap="round" fill="none" clip-path="url(#p13b28a3590)"/></g></g><g id="ytick_34"><g id="line2d_93"><path d="M65.0279 279.538 347.807 279.538" stroke="#FFFFFF" stroke-width="0.7" stroke-linecap="round" fill="none" clip-path="url(#p13b28a3590)"/></g></g><g id="ytick_35"><g id="line2d_94"><path d="M65.0279 274.396 347.807 274.396" stroke="#FFFFFF" stroke-width="0.7" stroke-linecap="round" fill="none" clip-path="url(#p13b28a3590)"/></g></g><g id="ytick_36"><g id="line2d_95"><path d="M65.0279 269.255 347.807 269.255" stroke="#FFFFFF" stroke-width="0.7" stroke-linecap="round" fill="none" clip-path="url(#p13b28a3590)"/></g></g><g id="ytick_37"><g id="line2d_96"><path d="M65.0279 264.113 347.807 264.113" stroke="#FFFFFF" stroke-width="0.7" stroke-linecap="round" fill="none" clip-path="url(#p13b28a3590)"/></g></g><g id="ytick_38"><g id="line2d_97"><path d="M65.0279 253.83 347.807 253.83" stroke="#FFFFFF" stroke-width="0.7" stroke-linecap="round" fill="none" clip-path="url(#p13b28a3590)"/></g></g><g id="ytick_39"><g id="line2d_98"><path d="M65.0279 248.689 347.807 248.689" stroke="#FFFFFF" stroke-width="0.7" stroke-linecap="round" fill="none" clip-path="url(#p13b28a3590)"/></g></g><g id="ytick_40"><g id="line2d_99"><path d="M65.0279 243.548 347.807 243.548" stroke="#FFFFFF" stroke-width="0.7" stroke-linecap="round" fill="none" clip-path="url(#p13b28a3590)"/></g></g><g id="ytick_41"><g id="line2d_100"><path d="M65.0279 238.406 347.807 238.406" stroke="#FFFFFF" stroke-width="0.7" stroke-linecap="round" fill="none" clip-path="url(#p13b28a3590)"/></g></g><g id="ytick_42"><g id="line2d_101"><path d="M65.0279 228.123 347.807 228.123" stroke="#FFFFFF" stroke-width="0.7" stroke-linecap="round" fill="none" clip-path="url(#p13b28a3590)"/></g></g><g id="ytick_43"><g id="line2d_102"><path d="M65.0279 222.982 347.807 222.982" stroke="#FFFFFF" stroke-width="0.7" stroke-linecap="round" fill="none" clip-path="url(#p13b28a3590)"/></g></g><g id="ytick_44"><g id="line2d_103"><path d="M65.0279 217.84 347.807 217.84" stroke="#FFFFFF" stroke-width="0.7" stroke-linecap="round" fill="none" clip-path="url(#p13b28a3590)"/></g></g></g><g id="patch_9"><path d="M334.954 284.679 331.479 284.027 327.243 283.236 321.554 282.097 314.03 280.468 306.153 278.621 298.437 276.677 290.724 274.614 282.968 272.441 275.146 270.176 267.242 267.84 259.285 265.466 251.462 263.157 243.805 260.976 236.306 258.974 228.932 257.196 221.621 255.671 214.305 254.403 206.944 253.373 199.534 252.574 192.092 252.003 184.632 251.662 177.158 251.555 169.68 251.676 162.215 252.02 154.784 252.596 147.4 253.404 140.077 254.451 132.841 255.744 125.727 257.288 118.78 259.09 112.055 261.15 105.623 263.466 99.5803 266.025 94.046 268.791 89.1841 271.687 85.1731 274.576 82.1222 277.294 80.0133 279.709 78.7277 281.731 78.0761 283.357 77.8815 284.679 78.0079 285.575 78.3986 286.332 79.0164 286.939 79.9602 287.43 81.51 287.86 84.1985 288.247 88.5374 288.507 94.5642 288.552 101.688 288.397 109.395 288.096 117.388 287.699 125.538 287.241 133.782 286.749 142.082 286.239 150.42 285.723 158.759 285.211 167.076 284.71 175.373 284.229 183.65 283.77 191.907 283.342 200.146 282.948 208.365 282.593 216.564 282.287 224.75 282.035 232.925 281.84 241.092 281.705 249.255 281.629 257.415 281.612 265.57 281.653 273.716 281.75 281.848 281.909 289.965 282.134 298.08 282.427 306.246 282.794 314.392 283.236 321.584 283.685 327.152 284.075 331.427 284.402Z" stroke="#FFFFFF" stroke-linejoin="miter" clip-path="url(#p13b28a3590)" opacity="0.2"/></g><g id="line2d_104"><path d="M334.954 284.665 328.6 283.529 319.866 281.732 308.955 279.26 298.376 276.657 287.911 273.868 276.452 270.585 241.478 260.296 233.605 258.262 225.623 256.411 217.564 254.782 209.461 253.396 201.346 252.25 193.251 251.325 183.21 250.428 171.357 249.635 157.933 248.978 146.891 248.624 138.094 248.534 131.359 248.66 124.924 249.03 120.31 249.507 115.888 250.187 111.67 251.096 107.664 252.255 103.88 253.679 101.484 254.78 99.1927 256.001 97.0085 257.34 94.9333 258.793 92.0296 261.165 89.3824 263.735 86.9976 266.452 84.8806 269.252 83.0363 272.062 81.4686 274.8 79.8147 278.195 78.6655 281.123 78.0256 283.427 77.8815 284.679 78.0256 285.455 78.2817 285.735 78.6655 285.833 79.1767 285.761 80.1811 285.369 82.4828 284.129 86.2619 282.117 89.3824 280.745 92.0296 279.812 94.9333 279.018 98.0871 278.399 101.484 277.973 105.116 277.747 108.975 277.712 114.459 277.93 120.31 278.39 131.359 279.54 145.1 280.941 154.199 281.662 163.623 282.185 173.313 282.493 183.21 282.601 195.271 282.521 215.541 282.124 239.522 281.686 256.775 281.598 273.014 281.743 289.47 282.124 303.86 282.674 317.902 283.442 331.827 284.443 334.954 284.693 334.954 284.693" stroke="#1E90FF" stroke-width="1.5" stroke-linecap="round" stroke-opacity="0.7" fill="none" clip-path="url(#p13b28a3590)"/></g><g id="line2d_105"><path d="M334.954 258.958 328.6 258.457 319.866 257.534 308.955 256.153 298.376 254.608 287.911 252.865 276.452 250.729 241.478 243.966 233.605 242.747 225.623 241.74 217.564 240.992 211.489 240.621 205.403 240.418 199.319 240.385 191.234 240.598 183.21 241.088 175.278 241.832 167.47 242.81 159.818 244.002 152.351 245.395 145.1 246.978 138.094 248.743 131.359 250.678 124.924 252.767 118.814 254.989 113.053 257.32 107.664 259.734 102.669 262.205 98.0871 264.712 93.9373 267.233 90.2359 269.752 86.9976 272.247 84.2354 274.692 81.9602 277.053 80.1811 279.283 79.1767 280.839 78.4577 282.271 78.0256 283.556 77.8815 284.679 78.0256 285.613 78.4577 286.429 79.1767 287.131 80.1811 287.729 81.4686 288.239 83.6205 288.805 86.9976 289.386 92.0296 289.971 100.325 290.661 111.67 291.364 126.503 292.058 199.319 295.132 217.564 296.226 233.605 297.397 249.212 298.756 264.138 300.265 279.819 302.065 295.495 304.089 310.166 306.217 323.453 308.372 334.954 310.4 334.954 310.4" stroke="#FFA500" stroke-width="1.5" stroke-linecap="round" stroke-opacity="0.7" fill="none" clip-path="url(#p13b28a3590)"/></g><g id="patch_10"><path d="M65.0279 330.952 65.0279 217.84" stroke="#FFFFFF" stroke-width="1.25" stroke-linecap="square" stroke-linejoin="miter" fill="none"/></g><g id="patch_11"><path d="M347.807 330.952 347.807 217.84" stroke="#FFFFFF" stroke-width="1.25" stroke-linecap="square" stroke-linejoin="miter" fill="none"/></g><g id="patch_12"><path d="M65.0279 330.952 347.807 330.952" stroke="#FFFFFF" stroke-width="1.25" stroke-linecap="square" stroke-linejoin="miter" fill="none"/></g><g id="patch_13"><path d="M65.0279 217.84 347.807 217.84" stroke="#FFFFFF" stroke-width="1.25" stroke-linecap="square" stroke-linejoin="miter" fill="none"/></g><g id="text_22"><g fill="#262626" transform="matrix(0.12 0 0 -0.12 35.6772 211.84)"><defs><path d="M469 0 469 4581 1075 4581 1075 541 3331 541 3331 0 469 0Z" id="ArialMT-4c" transform="scale(0.015625 0.015625)"/><path d="M425 3934 425 4581 988 4581 988 3934 425 3934ZM425 0 425 3319 988 3319 988 0 425 0Z" id="ArialMT-69" transform="scale(0.015625 0.015625)"/><path d="M319-275 866-356C888.667-524.667 952-647.667 1056-725 1196-829 1386.67-881 1628-881 1888.67-881 2089.67-829 2231-725 2373-621 2469-475.333 2519-288 2548.33-173.333 2561.67 67.3333 2559 434 2313.67 144.667 2007.67 0 1641 0 1184.33 0 831 164.667 581 494 331 823.333 206 1218 206 1678 206 1994.67 263.333 2286.67 378 2554 492.667 2822 658.667 3029 876 3175 1094 3321 1350 3394 1644 3394 2035.33 3394 2358.33 3235.67 2613 2919L2613 3319 3131 3319 3131 450C3131-66.6667 3078.33-432.667 2973-648 2868.33-864 2701.67-1034.33 2473-1159 2245-1284.33 1964.33-1347 1631-1347 1235.67-1347 916-1258 672-1080 428-902 310.333-633.667 319-275ZM784 1719C784 1283.67 870.333 966 1043 766 1216.33 566 1433.33 466 1694 466 1952 466 2168.33 565.333 2343 764 2518.33 963.333 2606 1275.33 2606 1700 2606 2106 2516 2412 2336 2618 2156 2824.67 1938.67 2928 1684 2928 1434 2928 1221.33 2826.33 1046 2623 871.333 2420.33 784 2119 784 1719Z" id="ArialMT-67" transform="scale(0.015625 0.015625)"/><path d="M506 0 506 4581 3819 4581 3819 4041 1113 4041 1113 2638 3647 2638 3647 2100 1113 2100 1113 541 3925 541 3925 0 506 0Z" id="ArialMT-45" transform="scale(0.015625 0.015625)"/><path d="M409 0 409 4581 972 4581 972 0 409 0Z" id="ArialMT-6c" transform="scale(0.015625 0.015625)"/></defs><use width="100%" height="100%" xlink:href="#ArialMT-4c"></use><use x="55.6152" width="100%" height="100%" xlink:href="#ArialMT-65"></use><use x="111.23" width="100%" height="100%" xlink:href="#ArialMT-61"></use><use x="166.846" width="100%" height="100%" xlink:href="#ArialMT-64"></use><use x="222.461" width="100%" height="100%" xlink:href="#ArialMT-69"></use><use x="244.678" width="100%" height="100%" xlink:href="#ArialMT-6e"></use><use x="300.293" width="100%" height="100%" xlink:href="#ArialMT-67"></use><use x="355.908" width="100%" height="100%" xlink:href="#ArialMT-2d"></use><use x="389.209" width="100%" height="100%" xlink:href="#ArialMT-45"></use><use x="455.908" width="100%" height="100%" xlink:href="#ArialMT-64"></use><use x="511.523" width="100%" height="100%" xlink:href="#ArialMT-67"></use><use x="567.139" width="100%" height="100%" xlink:href="#ArialMT-65"></use><use x="622.754" width="100%" height="100%" xlink:href="#ArialMT-2d"></use><use x="656.055" width="100%" height="100%" xlink:href="#ArialMT-4d"></use><use x="739.355" width="100%" height="100%" xlink:href="#ArialMT-6f"></use><use x="794.971" width="100%" height="100%" xlink:href="#ArialMT-64"></use><use x="850.586" width="100%" height="100%" xlink:href="#ArialMT-69"></use><use x="872.803" width="100%" height="100%" xlink:href="#ArialMT-66"></use><use x="900.586" width="100%" height="100%" xlink:href="#ArialMT-69"></use><use x="922.803" width="100%" height="100%" xlink:href="#ArialMT-63"></use><use x="972.803" width="100%" height="100%" xlink:href="#ArialMT-61"></use><use x="1028.42" width="100%" height="100%" xlink:href="#ArialMT-74"></use><use x="1056.2" width="100%" height="100%" xlink:href="#ArialMT-69"></use><use x="1078.42" width="100%" height="100%" xlink:href="#ArialMT-6f"></use><use x="1134.03" width="100%" height="100%" xlink:href="#ArialMT-6e"></use><use x="1189.65" width="100%" height="100%" xlink:href="#ArialMT-20"></use><use x="1217.43" width="100%" height="100%" xlink:href="#ArialMT-28"></use><use x="1250.73" width="100%" height="100%" xlink:href="#ArialMT-4c"></use><use x="1306.35" width="100%" height="100%" xlink:href="#ArialMT-45"></use><use x="1373.05" width="100%" height="100%" xlink:href="#ArialMT-4d"></use><use x="1456.35" width="100%" height="100%" xlink:href="#ArialMT-29"></use><use x="1489.65" width="100%" height="100%" xlink:href="#ArialMT-20"></use><use x="1517.43" width="100%" height="100%" xlink:href="#ArialMT-61"></use><use x="1573.05" width="100%" height="100%" xlink:href="#ArialMT-6e"></use><use x="1628.66" width="100%" height="100%" xlink:href="#ArialMT-64"></use><use x="1684.28" width="100%" height="100%" xlink:href="#ArialMT-20"></use><use x="1710.31" width="100%" height="100%" xlink:href="#ArialMT-54"></use><use x="1767.64" width="100%" height="100%" xlink:href="#ArialMT-72"></use><use x="1800.95" width="100%" height="100%" xlink:href="#ArialMT-61"></use><use x="1856.56" width="100%" height="100%" xlink:href="#ArialMT-69"></use><use x="1878.78" width="100%" height="100%" xlink:href="#ArialMT-6c"></use><use x="1900.99" width="100%" height="100%" xlink:href="#ArialMT-69"></use><use x="1923.21" width="100%" height="100%" xlink:href="#ArialMT-6e"></use><use x="1978.83" width="100%" height="100%" xlink:href="#ArialMT-67"></use><use x="2034.44" width="100%" height="100%" xlink:href="#ArialMT-20"></use><use x="2062.22" width="100%" height="100%" xlink:href="#ArialMT-45"></use><use x="2128.92" width="100%" height="100%" xlink:href="#ArialMT-64"></use><use x="2184.54" width="100%" height="100%" xlink:href="#ArialMT-67"></use><use x="2240.15" width="100%" height="100%" xlink:href="#ArialMT-65"></use><use x="2295.77" width="100%" height="100%" xlink:href="#ArialMT-20"></use><use x="2323.55" width="100%" height="100%" xlink:href="#ArialMT-28"></use><use x="2356.85" width="100%" height="100%" xlink:href="#ArialMT-54"></use><use x="2417.94" width="100%" height="100%" xlink:href="#ArialMT-45"></use><use x="2484.64" width="100%" height="100%" xlink:href="#ArialMT-29"></use><use x="2517.94" width="100%" height="100%" xlink:href="#ArialMT-20"></use><use x="2545.72" width="100%" height="100%" xlink:href="#ArialMT-4d"></use><use x="2629.02" width="100%" height="100%" xlink:href="#ArialMT-6f"></use><use x="2684.64" width="100%" height="100%" xlink:href="#ArialMT-64"></use><use x="2740.25" width="100%" height="100%" xlink:href="#ArialMT-65"></use><use x="2795.87" width="100%" height="100%" xlink:href="#ArialMT-73"></use></g></g><g id="line2d_106"><path d="M334.954 284.679 331.479 284.027 327.243 283.236 321.554 282.097 314.03 280.468 306.153 278.621 298.437 276.677 290.724 274.614 282.968 272.441 275.146 270.176 267.242 267.84 259.285 265.466 251.462 263.157 243.805 260.976 236.306 258.974 228.932 257.196 221.621 255.671 214.305 254.403 206.944 253.373 199.534 252.574 192.092 252.003 184.632 251.662 177.158 251.555 169.68 251.676 162.215 252.02 154.784 252.596 147.4 253.404 140.077 254.451 132.841 255.744 125.727 257.288 118.78 259.09 112.055 261.15 105.623 263.466 99.5803 266.025 94.046 268.791 89.1841 271.687 85.1731 274.576 82.1222 277.294 80.0133 279.709 78.7277 281.731 78.0761 283.357 77.8815 284.679 78.0079 285.575 78.3986 286.332 79.0164 286.939 79.9602 287.43 81.51 287.86 84.1985 288.247 88.5374 288.507 94.5642 288.552 101.688 288.397 109.395 288.096 117.388 287.699 125.538 287.241 133.782 286.749 142.082 286.239 150.42 285.723 158.759 285.211 167.076 284.71 175.373 284.229 183.65 283.77 191.907 283.342 200.146 282.948 208.365 282.593 216.564 282.287 224.75 282.035 232.925 281.84 241.092 281.705 249.255 281.629 257.415 281.612 265.57 281.653 273.716 281.75 281.848 281.909 289.965 282.134 298.08 282.427 306.246 282.794 314.392 283.236 321.584 283.685 327.152 284.075 331.427 284.402 334.954 284.679" stroke="#000000" stroke-width="1.5" stroke-linecap="round" fill="none" clip-path="url(#p13b28a3590)"/></g></g><g id="text_23"><g fill="#262626" transform="matrix(0.144 0 0 -0.144 59.1424 17.6827)"><defs><path d="M488 0 488 4581 1109 4581 3516 984 3516 4581 4097 4581 4097 0 3475 0 1069 3600 1069 0 488 0Z" id="ArialMT-4e" transform="scale(0.015625 0.015625)"/><path d="M525 0 525 4581 3616 4581 3616 4041 1131 4041 1131 2622 3281 2622 3281 2081 1131 2081 1131 0 525 0Z" id="ArialMT-46" transform="scale(0.015625 0.015625)"/><path d="M-9 0 1750 4581 2403 4581 4278 0 3588 0 3053 1388 1138 1388 634 0-9 0ZM1313 1881 2866 1881 2388 3150C2242 3535.33 2133.67 3852 2063 4100 2004.33 3806 1922 3514.33 1816 3225L1313 1881Z" id="ArialMT-41" transform="scale(0.015625 0.015625)"/><path d="M422 0 422 4581 984 4581 984 2938C1246.67 3242 1578 3394 1978 3394 2224 3394 2437.67 3345.33 2619 3248 2800.33 3151.33 2930 3017.67 3008 2847 3086 2676.33 3125 2428.33 3125 2103L3125 0 2563 0 2563 2103C2563 2384.33 2502 2589 2380 2717 2258 2845 2085.67 2909 1863 2909 1696.33 2909 1539.33 2865.67 1392 2779 1245.33 2693 1140.67 2576 1078 2428 1015.33 2280 984 2076 984 1816L984 0 422 0Z" id="ArialMT-68" transform="scale(0.015625 0.015625)"/><path d="M494 0 494 4581 2222 4581C2526 4581 2758.33 4566.67 2919 4538 3143.67 4500 3332 4428.33 3484 4323 3636.67 4218.33 3759.33 4071 3852 3881 3944.67 3691.67 3991 3483.33 3991 3256 3991 2866.67 3867 2537 3619 2267 3371 1997.67 2923 1863 2275 1863L1100 1863 1100 0 494 0ZM1100 2403 2284 2403C2676 2403 2954.33 2476 3119 2622 3283.67 2768 3366 2973.33 3366 3238 3366 3429.33 3317.33 3593 3220 3729 3123.33 3865.67 2996 3956 2838 4000 2735.33 4027.33 2546.67 4041 2272 4041L1100 4041 1100 2403Z" id="ArialMT-50" transform="scale(0.015625 0.015625)"/><path d="M125 0 125 456 2238 2881C1998 2869 1786.33 2863 1603 2863L250 2863 250 3319 2963 3319 2963 2947 1166 841 819 456C1071 474.667 1307.33 484 1528 484L3063 484 3063 0 125 0Z" id="ArialMT-7a" transform="scale(0.015625 0.015625)"/></defs><use width="100%" height="100%" xlink:href="#ArialMT-4e"></use><use x="72.2168" width="100%" height="100%" xlink:href="#ArialMT-65"></use><use x="127.832" width="100%" height="100%" xlink:href="#ArialMT-75"></use><use x="183.447" width="100%" height="100%" xlink:href="#ArialMT-72"></use><use x="216.748" width="100%" height="100%" xlink:href="#ArialMT-61"></use><use x="272.363" width="100%" height="100%" xlink:href="#ArialMT-6c"></use><use x="294.58" width="100%" height="100%" xlink:href="#ArialMT-46"></use><use x="355.664" width="100%" height="100%" xlink:href="#ArialMT-6f"></use><use x="411.279" width="100%" height="100%" xlink:href="#ArialMT-69"></use><use x="433.496" width="100%" height="100%" xlink:href="#ArialMT-6c"></use><use x="455.713" width="100%" height="100%" xlink:href="#ArialMT-20"></use><use x="477.996" width="100%" height="100%" xlink:href="#ArialMT-41"></use><use x="544.695" width="100%" height="100%" xlink:href="#ArialMT-69"></use><use x="566.912" width="100%" height="100%" xlink:href="#ArialMT-72"></use><use x="600.213" width="100%" height="100%" xlink:href="#ArialMT-66"></use><use x="627.996" width="100%" height="100%" xlink:href="#ArialMT-6f"></use><use x="683.611" width="100%" height="100%" xlink:href="#ArialMT-69"></use><use x="705.828" width="100%" height="100%" xlink:href="#ArialMT-6c"></use><use x="728.045" width="100%" height="100%" xlink:href="#ArialMT-20"></use><use x="755.828" width="100%" height="100%" xlink:href="#ArialMT-53"></use><use x="822.527" width="100%" height="100%" xlink:href="#ArialMT-68"></use><use x="878.143" width="100%" height="100%" xlink:href="#ArialMT-61"></use><use x="933.758" width="100%" height="100%" xlink:href="#ArialMT-70"></use><use x="989.373" width="100%" height="100%" xlink:href="#ArialMT-65"></use><use x="1044.99" width="100%" height="100%" xlink:href="#ArialMT-20"></use><use x="1072.77" width="100%" height="100%" xlink:href="#ArialMT-50"></use><use x="1139.47" width="100%" height="100%" xlink:href="#ArialMT-61"></use><use x="1195.09" width="100%" height="100%" xlink:href="#ArialMT-72"></use><use x="1228.39" width="100%" height="100%" xlink:href="#ArialMT-61"></use><use x="1284" width="100%" height="100%" xlink:href="#ArialMT-6d"></use><use x="1367.3" width="100%" height="100%" xlink:href="#ArialMT-65"></use><use x="1422.92" width="100%" height="100%" xlink:href="#ArialMT-74"></use><use x="1450.7" width="100%" height="100%" xlink:href="#ArialMT-65"></use><use x="1506.32" width="100%" height="100%" xlink:href="#ArialMT-72"></use><use x="1539.62" width="100%" height="100%" xlink:href="#ArialMT-69"></use><use x="1561.83" width="100%" height="100%" xlink:href="#ArialMT-7a"></use><use x="1611.83" width="100%" height="100%" xlink:href="#ArialMT-61"></use><use x="1667.45" width="100%" height="100%" xlink:href="#ArialMT-74"></use><use x="1695.23" width="100%" height="100%" xlink:href="#ArialMT-69"></use><use x="1717.45" width="100%" height="100%" xlink:href="#ArialMT-6f"></use><use x="1773.06" width="100%" height="100%" xlink:href="#ArialMT-6e"></use></g><g fill="#262626" transform="matrix(0.144 0 0 -0.144 139.585 33.124)"><use width="100%" height="100%" xlink:href="#ArialMT-28"></use><use x="33.3008" width="100%" height="100%" xlink:href="#ArialMT-31"></use><use x="88.916" width="100%" height="100%" xlink:href="#ArialMT-38"></use><use x="144.531" width="100%" height="100%" xlink:href="#ArialMT-20"></use><use x="172.314" width="100%" height="100%" xlink:href="#ArialMT-70"></use><use x="227.93" width="100%" height="100%" xlink:href="#ArialMT-61"></use><use x="283.545" width="100%" height="100%" xlink:href="#ArialMT-72"></use><use x="316.846" width="100%" height="100%" xlink:href="#ArialMT-61"></use><use x="372.461" width="100%" height="100%" xlink:href="#ArialMT-6d"></use><use x="455.762" width="100%" height="100%" xlink:href="#ArialMT-65"></use><use x="511.377" width="100%" height="100%" xlink:href="#ArialMT-74"></use><use x="539.16" width="100%" height="100%" xlink:href="#ArialMT-65"></use><use x="594.775" width="100%" height="100%" xlink:href="#ArialMT-72"></use><use x="628.076" width="100%" height="100%" xlink:href="#ArialMT-73"></use><use x="678.076" width="100%" height="100%" xlink:href="#ArialMT-29"></use></g></g></g></svg>