<svg width="480" height="144" viewBox="0 0 360 108" xmlns="http://www.w3.org/2000/svg" xmlns:xlink="http://www.w3.org/1999/xlink" stroke-linejoin="round" overflow="hidden"><defs></defs><defs><clipPath id="p5512112605"><rect x="12.96" y="12.96" width="334.08" height="82.08"/></clipPath></defs><g id="figure_1"><g id="patch_1"><path d="M0 108 360 108 360 0 0 0 0 108Z" fill="none"/></g><g id="axes_1"><g id="patch_2"><path d="M331.855 71.2786 327.749 70.5078 322.746 69.5732 316.024 68.228 307.135 66.3039 297.829 64.122 288.713 61.8246 279.601 59.3878 270.438 56.8205 261.197 54.1443 251.859 51.3849 242.459 48.58 233.217 45.8519 224.171 43.2752 215.311 40.9104 206.599 38.8099 197.962 37.0086 189.318 35.5095 180.622 34.2935 171.868 33.349 163.075 32.6743 154.262 32.2721 145.433 32.1456 136.597 32.288 127.779 32.6946 119 33.3752 110.276 34.3301 101.625 35.5668 93.0757 37.0937 84.6712 38.9182 76.4641 41.0474 68.5186 43.481 60.9202 46.2174 53.7808 49.24 47.2425 52.508 41.4985 55.9292 36.7599 59.3428 33.1554 62.5538 30.664 65.4065 29.1451 67.7957 28.3754 69.7166 28.1455 71.2786 28.2948 72.3373 28.7564 73.2309 29.4863 73.9484 30.6013 74.5283 32.4323 75.0369 35.6085 75.4936 40.7346 75.8006 47.8547 75.8544 56.2713 75.671 65.3755 75.3157 74.819 74.8463 84.4481 74.3057 94.1869 73.7242 103.993 73.1217 113.844 72.5119 123.696 71.9067 133.522 71.3148 143.324 70.7463 153.102 70.2046 162.857 69.6993 172.591 69.2335 182.301 68.8139 191.987 68.4529 201.658 68.155 211.316 67.924 220.965 67.7646 230.609 67.6749 240.249 67.655 249.884 67.7031 259.508 67.8183 269.115 68.0065 278.705 68.2718 288.291 68.6185 297.939 69.0521 307.562 69.5735 316.06 70.1039 322.637 70.565 327.689 70.9516Z" stroke="#FFFFFF" stroke-linejoin="miter" clip-path="url(#p5512112605)" opacity="0.2"/></g><g id="line2d_1"><path d="M331.855 71.2786 327.749 70.5078 322.746 69.5732 316.024 68.228 307.135 66.3039 297.829 64.122 288.713 61.8246 279.601 59.3878 270.438 56.8205 261.197 54.1443 251.859 51.3849 242.459 48.58 233.217 45.8519 224.171 43.2752 215.311 40.9104 206.599 38.8099 197.962 37.0086 189.318 35.5095 180.622 34.2935 171.868 33.349 163.075 32.6743 154.262 32.2721 145.433 32.1456 136.597 32.288 127.779 32.6946 119 33.3752 110.276 34.3301 101.625 35.5668 93.0757 37.0937 84.6712 38.9182 76.4641 41.0474 68.5186 43.481 60.9202 46.2174 53.7808 49.24 47.2425 52.508 41.4985 55.9292 36.7599 59.3428 33.1554 62.5538 30.664 65.4065 29.1451 67.7957 28.3754 69.7166 28.1455 71.2786 28.2948 72.3373 28.7564 73.2309 29.4863 73.9484 30.6013 74.5283 32.4323 75.0369 35.6085 75.4936 40.7346 75.8006 47.8547 75.8544 56.2713 75.671 65.3755 75.3157 74.819 74.8463 84.4481 74.3057 94.1869 73.7242 103.993 73.1217 113.844 72.5119 123.696 71.9067 133.522 71.3148 143.324 70.7463 153.102 70.2046 162.857 69.6993 172.591 69.2335 182.301 68.8139 191.987 68.4529 201.658 68.155 211.316 67.924 220.965 67.7646 230.609 67.6749 240.249 67.655 249.884 67.7031 259.508 67.8183 269.115 68.0065 278.705 68.2718 288.291 68.6185 297.939 69.0521 307.562 69.5735 316.06 70.1039 322.637 70.565 327.689 70.9516 331.855 71.2786" stroke="#000000" stroke-width="1.5" stroke-linecap="round" fill="none" clip-path="url(#p5512112605)"/></g></g></g></svg>