<svg width="480" height="144" viewBox="0 0 360 108" xmlns="http://www.w3.org/2000/svg" xmlns:xlink="http://www.w3.org/1999/xlink" stroke-linejoin="round" overflow="hidden"><defs></defs><defs><clipPath id="p2d4f84d5b5"><rect x="12.96" y="12.96" width="334.08" height="82.08"/></clipPath></defs><g id="figure_1"><g id="patch_1"><path d="M0 108 360 108 360 0 0 0 0 108Z" fill="none"/></g><g id="axes_1"><g id="patch_2"><path d="M331.855 62.4977 331.836 62.4943 331.779 62.4838 331.684 62.4664 331.552 62.442 331.382 62.4106 331.174 62.3721 330.928 62.3265 330.645 62.2737 330.324 62.2137 329.966 62.1465 329.571 62.072 329.138 61.9902 328.668 61.9009 328.161 61.8043 327.617 61.7002 327.036 61.5887 326.419 61.4697 325.765 61.3432 325.074 61.2094 324.348 61.0682 323.586 60.9198 322.787 60.7642 321.954 60.6015 321.085 60.4318 320.18 60.2554 319.241 60.0724 318.267 59.883 317.259 59.6875 316.216 59.486 315.14 59.2788 314.03 59.0663 312.886 58.8487 311.709 58.6263 310.5 58.3994 309.258 58.1684 307.983 57.9336 306.677 57.6953 305.339 57.4539 303.97 57.2098 302.57 56.9631 301.14 56.7144 299.679 56.4639 298.189 56.2119 296.669 55.9587 295.12 55.7046 293.542 55.4499 291.936 55.1948 290.303 54.9397 288.641 54.6846 286.953 54.4299 285.238 54.1757 283.496 53.9221 281.729 53.6694 279.937 53.4177 278.119 53.1671 276.278 52.9177 274.412 52.6696 272.522 52.423 270.61 52.1778 268.675 51.9342 266.718 51.6923 264.739 51.4521 262.739 51.2137 260.719 50.9772 258.678 50.7427 256.618 50.5102 254.539 50.2798 252.441 50.0517 250.325 49.8259 248.192 49.6026 246.041 49.3819 243.875 49.164 241.692 48.949 239.494 48.7372 237.281 48.5286 235.053 48.3235 232.812 48.1221 230.558 47.9247 228.292 47.7314 226.013 47.5426 223.722 47.3583 221.421 47.179 219.11 47.0048 216.789 46.836 214.458 46.6728 212.119 46.5154 209.772 46.3642 207.418 46.2192 205.057 46.0808 202.689 45.949 200.316 45.8242 197.938 45.7064 195.555 45.5957 193.169 45.4924 190.779 45.3964 188.386 45.308 185.992 45.227 183.596 45.1536 181.199 45.0877 178.801 45.0293 176.404 44.9785 174.008 44.9351 171.614 44.899 169.221 44.8702 166.831 44.8486 164.445 44.834 162.062 44.8262 159.684 44.8252 157.311 44.8308 154.943 44.8428 152.582 44.861 150.228 44.8852 147.881 44.9154 145.542 44.9513 143.211 44.9928 140.89 45.0397 138.579 45.0919 136.278 45.1492 133.987 45.2115 131.708 45.2787 129.442 45.3508 127.188 45.4275 124.947 45.509 122.719 45.595 120.506 45.6855 118.308 45.7807 116.125 45.8803 113.959 45.9845 111.808 46.0932 109.675 46.2065 107.559 46.3244 105.461 46.447 103.382 46.5743 101.322 46.7063 99.281 46.8432 97.2606 46.985 95.2608 47.1318 93.2821 47.2836 91.325 47.4404 89.39 47.6025 87.4776 47.7697 85.5882 47.9422 83.7224 48.1199 81.8806 48.303 80.0632 48.4914 78.2708 48.6851 76.5037 48.8841 74.7623 49.0885 73.0472 49.298 71.3588 49.5129 69.6974 49.7328 68.0636 49.9578 66.4576 50.1878 64.8799 50.4227 63.331 50.6624 61.811 50.9066 60.3206 51.1554 58.86 51.4084 57.4295 51.6656 56.0296 51.9268 54.6606 52.1917 53.3229 52.4602 52.0167 52.732 50.7424 53.0069 49.5003 53.2848 48.2908 53.5652 47.1141 53.8481 45.9704 54.1331 44.8602 54.4199 43.7837 54.7083 42.7411 54.9981 41.7328 55.2888 40.7589 55.5804 39.8196 55.8723 38.9154 56.1645 38.0463 56.4564 37.2125 56.748 36.4144 57.0388 35.652 57.3285 34.9256 57.6169 34.2354 57.9037 33.5815 58.1885 32.9641 58.4711 32.3833 58.7512 31.8393 59.0285 31.3322 59.3028 30.8622 59.5738 30.4294 59.8412 30.0338 60.1049 29.6756 60.3646 29.3549 60.6201 29.0717 60.8712 28.8262 61.1179 28.6183 61.3599 28.4481 61.5972 28.3157 61.8296 28.2211 62.0572 28.1644 62.2799 28.1455 62.4977 28.1644 62.5891 28.2211 62.675 28.3157 62.7552 28.4481 62.8293 28.6183 62.8967 28.8262 62.9573 29.0717 63.0107 29.3549 63.0568 29.6756 63.0954 30.0338 63.1264 30.4294 63.1498 30.8622 63.1656 31.3322 63.1739 31.8393 63.1748 32.3833 63.1685 32.9641 63.1554 33.5815 63.1356 34.2354 63.1096 34.9256 63.0777 35.652 63.0404 36.4144 62.9982 37.2125 62.9514 38.0463 62.9006 38.9154 62.8464 39.8196 62.7892 40.7589 62.7295 41.7328 62.6679 42.7411 62.6048 43.7837 62.5407 44.8602 62.476 45.9704 62.4112 47.1141 62.3465 48.2908 62.2824 49.5003 62.219 50.7424 62.1566 52.0167 62.0954 53.3229 62.0353 54.6606 61.9765 56.0296 61.9189 57.4295 61.8624 58.86 61.8069 60.3206 61.752 61.811 61.6976 63.331 61.6433 64.8799 61.5887 66.4576 61.5333 68.0636 61.4767 69.6974 61.4183 71.3588 61.3576 73.0472 61.294 74.7623 61.2269 76.5037 61.1556 78.2708 61.0796 80.0632 60.9982 81.8806 60.9109 83.7224 60.8169 85.5882 60.7159 87.4776 60.6071 89.39 60.4902 91.325 60.3647 93.2821 60.2302 95.2608 60.0864 97.2606 59.933 99.281 59.7697 101.322 59.5965 103.382 59.4133 105.461 59.22 107.559 59.0169 109.675 58.8041 111.808 58.5817 113.959 58.3502 116.125 58.11 118.308 57.8615 120.506 57.6053 122.719 57.3419 124.947 57.0722 127.188 56.7968 129.442 56.5165 131.708 56.2322 133.987 55.9447 136.278 55.655 138.579 55.364 140.89 55.0727 143.211 54.782 145.542 54.493 147.881 54.2067 150.228 53.9241 152.582 53.646 154.943 53.3736 157.311 53.1076 159.684 52.8491 162.062 52.5988 164.445 52.3577 166.831 52.1264 169.221 51.9057 171.614 51.6963 174.008 51.4988 176.404 51.3138 178.801 51.1417 181.199 50.9829 183.596 50.8379 185.992 50.7069 188.386 50.5903 190.779 50.488 193.169 50.4003 195.555 50.3273 197.938 50.2688 200.316 50.2249 202.689 50.1954 205.057 50.1801 207.418 50.1789 209.772 50.1914 212.119 50.2174 214.458 50.2565 216.789 50.3084 219.11 50.3725 221.421 50.4486 223.722 50.5361 226.013 50.6346 228.292 50.7435 230.558 50.8624 232.812 50.9907 235.053 51.128 237.281 51.2737 239.494 51.4272 241.692 51.5882 243.875 51.7559 246.041 51.9301 248.192 52.1101 250.325 52.2954 252.441 52.4856 254.539 52.6802 256.618 52.8789 258.678 53.081 260.719 53.2863 262.739 53.4943 264.739 53.7046 266.718 53.9168 268.675 54.1307 270.61 54.3458 272.522 54.5619 274.412 54.7786 276.278 54.9957 278.119 55.2128 279.937 55.4297 281.729 55.6461 283.496 55.8619 285.238 56.0767 286.953 56.2904 288.641 56.5028 290.303 56.7136 291.936 56.9226 293.542 57.1298 295.12 57.3348 296.669 57.5376 298.189 57.738 299.679 57.9358 301.14 58.1309 302.57 58.3232 303.97 58.5124 305.339 58.6985 306.677 58.8814 307.983 59.0609 309.258 59.2369 310.5 59.4093 311.709 59.578 312.886 59.7428 314.03 59.9037 315.14 60.0605 316.216 60.2132 317.259 60.3617 318.267 60.5058 319.241 60.6454 320.18 60.7806 321.085 60.9112 321.954 61.037 322.787 61.1581 323.586 61.2744 324.348 61.3858 325.074 61.4921 325.765 61.5935 326.419 61.6897 327.036 61.7807 327.617 61.8665 328.161 61.947 328.668 62.0222 329.138 62.092 329.571 62.1564 329.966 62.2154 330.324 62.2688 330.645 62.3167 330.928 62.359 331.174 62.3957 331.382 62.4269 331.552 62.4524 331.684 62.4722 331.779 62.4864 331.836 62.4949Z" stroke="#FFFFFF" stroke-linejoin="miter" clip-path="url(#p2d4f84d5b5)" opacity="0.2"/></g><g id="line2d_1"><path d="M331.855 62.4977 319.241 60.0724 303.97 57.2098 291.936 55.1948 279.937 53.4177 266.718 51.6923 252.441 50.0517 237.281 48.5286 221.421 47.179 207.418 46.2192 193.169 45.4924 181.199 45.0877 166.831 44.8486 152.582 44.861 138.579 45.0919 122.719 45.595 107.559 46.3244 95.2608 47.1318 83.7224 48.1199 74.7623 49.0885 66.4576 50.1878 58.86 51.4084 52.0167 52.732 45.9704 54.1331 40.7589 55.5804 36.4144 57.0388 33.5815 58.1885 31.3322 59.3028 29.6756 60.3646 28.8262 61.1179 28.3157 61.8296 28.1455 62.4977 28.2211 62.675 28.6183 62.8967 29.6756 63.0954 31.8393 63.1748 35.652 63.0404 61.811 61.6976 83.7224 60.8169 95.2608 60.0864 105.461 59.22 116.125 58.11 131.708 56.2322 157.311 53.1076 169.221 51.9057 178.801 51.1417 188.386 50.5903 197.938 50.2688 207.418 50.1789 216.789 50.3084 226.013 50.6346 237.281 51.2737 248.192 52.1101 260.719 53.2863 276.278 54.9957 293.542 57.1298 314.03 59.9037 331.855 62.4977 331.855 62.4977" stroke="#000000" stroke-width="1.5" stroke-linecap="round" fill="none" clip-path="url(#p2d4f84d5b5)"/></g></g></g></svg>