<svg width="480" height="144" viewBox="0 0 360 108" xmlns="http://www.w3.org/2000/svg" xmlns:xlink="http://www.w3.org/1999/xlink" stroke-linejoin="round" overflow="hidden"><defs></defs><defs><clipPath id="p8bed4ad6fc"><rect x="12.96" y="12.96" width="334.08" height="82.08"/></clipPath></defs><g id="figure_1"><g id="patch_1"><path d="M0 108 360 108 360 0 0 0 0 108Z" fill="none"/></g><g id="axes_1"><g id="patch_2"><path d="M331.855 58.1059 330.801 57.7226 329.46 57.2599 327.975 56.7667 326.346 56.2387 324.583 55.6805 322.703 55.0986 320.727 54.5003 318.678 53.8943 316.576 53.2901 314.434 52.6943 312.264 52.1128 310.068 51.5487 307.85 51.0036 305.613 50.4781 303.355 49.9731 301.078 49.4881 298.781 49.0228 296.463 48.5764 294.126 48.1477 291.77 47.7364 289.395 47.3412 287.004 46.9616 284.597 46.5969 282.176 46.2466 279.741 45.9102 277.295 45.5872 274.837 45.277 272.368 44.979 269.891 44.6928 267.405 44.4179 264.912 44.1541 262.412 43.901 259.907 43.6582 257.396 43.4257 254.88 43.2029 252.36 42.9899 249.835 42.7862 247.307 42.5917 244.776 42.4062 242.241 42.2294 239.702 42.0613 237.161 41.9015 234.618 41.7501 232.071 41.6067 229.523 41.4713 226.972 41.3437 224.418 41.2237 221.863 41.1113 219.306 41.0063 216.746 40.9086 214.186 40.818 211.623 40.7345 209.059 40.6579 206.493 40.5882 203.926 40.5252 201.358 40.4689 198.788 40.4192 196.218 40.3759 193.646 40.3391 191.073 40.3086 188.499 40.2845 185.924 40.2665 183.349 40.2548 180.772 40.2492 178.195 40.2498 175.617 40.2563 173.038 40.2689 170.459 40.2875 167.879 40.312 165.299 40.3425 162.718 40.3788 160.137 40.421 157.555 40.469 154.973 40.5228 152.391 40.5825 149.808 40.6481 147.223 40.7191 144.639 40.7957 142.054 40.8779 139.47 40.965 136.887 41.0581 134.305 41.1567 131.724 41.2609 129.144 41.3707 126.565 41.4867 123.988 41.6082 121.413 41.7358 118.839 41.8695 116.269 42.0092 113.7 42.1554 111.133 42.308 108.57 42.4673 106.009 42.6331 103.451 42.8058 100.898 42.9853 98.3493 43.1723 95.8054 43.3669 93.2662 43.5691 90.7331 43.7792 88.2066 43.9975 85.6871 44.2243 83.1757 44.46 80.673 44.7048 78.1799 44.9588 75.6982 45.2227 73.2292 45.4962 70.7753 45.7801 68.3386 46.0743 65.9227 46.3793 63.5309 46.6949 61.17 47.0211 58.8465 47.3573 56.5699 47.7035 54.3503 48.0581 52.2027 48.4195 50.1414 48.7857 48.1814 49.1536 46.3383 49.5187 44.6244 49.8774 43.0468 50.2269 41.6065 50.5647 40.2993 50.8891 39.117 51.1988 38.0488 51.4942 37.0833 51.776 36.209 52.0449 35.415 52.3022 34.6913 52.5495 34.0292 52.7883 33.4216 53.0202 32.8622 53.2472 32.3459 53.4714 31.8687 53.695 31.4268 53.9195 31.0173 54.1461 30.6374 54.3752 30.2847 54.6067 29.9572 54.8404 29.6543 55.0774 29.3774 55.3205 29.1256 55.5701 28.8978 55.8251 28.6997 56.089 28.5363 56.3642 28.4056 56.6473 28.3053 56.9346 28.2326 57.2237 28.1839 57.512 28.1558 57.7972 28.1455 58.0793 28.1531 58.3602 28.1822 58.6413 28.2378 58.9216 28.3222 59.1988 28.435 59.4704 28.5798 59.7322 28.7622 59.9773 28.9871 60.1964 29.2516 60.3854 29.5495 60.5461 29.8738 60.6873 30.2212 60.8159 30.5914 60.9364 30.9851 61.0523 31.4042 61.1661 31.8517 61.2788 32.331 61.3914 32.8463 61.5056 33.4024 61.6217 34.0054 61.7407 34.6625 61.8636 35.3817 61.9914 36.1728 62.1246 37.0481 62.264 38.0212 62.4106 39.1064 62.5658 40.3185 62.7295 41.6723 62.902 43.1799 63.083 44.8478 63.2717 46.6737 63.466 48.6477 63.6628 50.7522 63.8597 52.9655 64.0538 55.2657 64.243 57.6343 64.4267 60.0536 64.6035 62.5124 64.7736 65.0006 64.9365 67.5116 65.0924 70.0404 65.2418 72.5831 65.3848 75.1369 65.5222 77.7002 65.6539 80.2698 65.781 82.8457 65.903 85.426 66.0208 88.0106 66.1342 90.598 66.2438 93.1876 66.3499 95.779 66.4522 98.3718 66.5509 100.965 66.6467 103.56 66.739 106.154 66.828 108.748 66.9138 111.341 66.996 113.933 67.075 116.523 67.1501 119.112 67.2219 121.698 67.29 124.283 67.3541 126.864 67.4142 129.445 67.47 132.021 67.522 134.594 67.5696 137.163 67.6125 139.727 67.65 142.286 67.6819 144.843 67.7082 147.394 67.7288 149.941 67.7427 152.484 67.7503 155.023 67.7508 157.559 67.7445 160.091 67.7306 162.62 67.7097 165.146 67.681 167.668 67.6448 170.187 67.6012 172.702 67.55 175.214 67.4912 177.722 67.4247 180.225 67.3503 182.722 67.2677 185.214 67.1764 187.7 67.0768 190.181 66.9677 192.655 66.8495 195.126 66.7214 197.591 66.5835 200.053 66.4346 202.512 66.2754 204.97 66.105 207.427 65.9231 209.887 65.7296 212.349 65.5244 214.816 65.3077 217.288 65.0791 219.768 64.8392 222.254 64.5878 224.749 64.3248 227.253 64.0506 229.768 63.7653 232.292 63.4696 234.829 63.1642 237.378 62.8479 239.94 62.5235 242.514 62.1906 245.1 61.8512 247.698 61.5055 250.304 61.1562 252.915 60.804 255.525 60.4516 258.129 60.1004 260.725 59.7523 263.311 59.4078 265.884 59.0681 268.442 58.7347 270.983 58.4081 273.504 58.0904 276.001 57.783 278.47 57.4896 280.913 57.2119 283.327 56.9521 285.714 56.7129 288.075 56.495 290.41 56.3003 292.719 56.1305 295.004 55.9866 297.265 55.8697 299.502 55.781 301.716 55.7213 303.907 55.6916 306.076 55.692 308.222 55.7234 310.347 55.7867 312.45 55.881 314.53 56.0068 316.586 56.1615 318.611 56.3429 320.595 56.5474 322.525 56.77 324.384 57.0055 326.152 57.2467 327.81 57.4868 329.343 57.7192 330.746 57.9359Z" stroke="#FFFFFF" stroke-linejoin="miter" clip-path="url(#p8bed4ad6fc)" opacity="0.2"/></g><g id="line2d_1"><path d="M331.855 58.1059 327.975 56.7667 320.727 54.5003 312.264 52.1128 305.613 50.4781 298.781 49.0228 291.77 47.7364 282.176 46.2466 272.368 44.979 262.412 43.901 249.835 42.7862 237.161 41.9015 224.418 41.2237 209.059 40.6579 193.646 40.3391 178.195 40.2498 162.718 40.3788 147.223 40.7191 131.724 41.2609 116.269 42.0092 100.898 42.9853 88.2066 43.9975 75.6982 45.2227 65.9227 46.3793 56.5699 47.7035 48.1814 49.1536 41.6065 50.5647 37.0833 51.776 34.0292 52.7883 31.8687 53.695 30.2847 54.6067 29.1256 55.5701 28.5363 56.3642 28.2326 57.2237 28.1531 58.3602 28.3222 59.1988 28.7622 59.9773 29.2516 60.3854 30.2212 60.8159 32.331 61.3914 35.3817 61.9914 40.3185 62.7295 46.6737 63.466 55.2657 64.243 67.5116 65.0924 82.8457 65.903 103.56 66.739 124.283 67.3541 142.286 67.6819 157.559 67.7445 170.187 67.6012 182.722 67.2677 195.126 66.7214 207.427 65.9231 217.288 65.0791 229.768 63.7653 242.514 62.1906 280.913 57.2119 290.41 56.3003 297.265 55.8697 303.907 55.6916 310.347 55.7867 316.586 56.1615 322.525 56.77 329.343 57.7192 331.855 58.1059 331.855 58.1059" stroke="#000000" stroke-width="1.5" stroke-linecap="round" fill="none" clip-path="url(#p8bed4ad6fc)"/></g></g></g></svg>